<svg width="40" height="39" viewBox="0 0 40 39" fill="none" xmlns="http://www.w3.org/2000/svg">
<path d="M36 36L34.5858 37.4142L36 38.8284L37.4142 37.4142L36 36ZM20 20L21.4142 18.5858L20 17.1716L18.5858 18.5858L20 20ZM36.7071 35.2929L38.1213 36.7071L39.5355 35.2929L38.1213 33.8787L36.7071 35.2929ZM20.7071 19.2929L19.2929 17.8787L17.8787 19.2929L19.2929 20.7071L20.7071 19.2929ZM36 4L37.4142 5.41421L38.8284 4L37.4142 2.58579L36 4ZM35.2929 3.29289L36.7071 1.87868L35.2929 0.464468L33.8787 1.87868L35.2929 3.29289ZM20 18.5858L18.5858 20L20 21.4142L21.4142 20L20 18.5858ZM4.70712 3.29289L6.12134 1.87868L4.70712 0.464466L3.29291 1.87868L4.70712 3.29289ZM4.00002 4L2.5858 2.58579L1.17159 4L2.5858 5.41421L4.00002 4ZM19.2929 19.2929L20.7071 20.7071L22.1213 19.2929L20.7071 17.8787L19.2929 19.2929ZM3.29291 35.2929L1.87869 33.8787L0.464481 35.2929L1.87869 36.7071L3.29291 35.2929ZM4.00002 36L2.5858 37.4142L4.00002 38.8284L5.41423 37.4142L4.00002 36ZM37.4142 34.5858L21.4142 18.5858L18.5858 21.4142L34.5858 37.4142L37.4142 34.5858ZM35.2929 33.8787L34.5858 34.5858L37.4142 37.4142L38.1213 36.7071L35.2929 33.8787ZM19.2929 20.7071L35.2929 36.7071L38.1213 33.8787L22.1213 17.8787L19.2929 20.7071ZM34.5858 2.58579L19.2929 17.8787L22.1213 20.7071L37.4142 5.41421L34.5858 2.58579ZM33.8787 4.70711L34.5858 5.41422L37.4142 2.58579L36.7071 1.87868L33.8787 4.70711ZM21.4142 20L36.7071 4.70711L33.8787 1.87868L18.5858 17.1716L21.4142 20ZM3.29291 4.70711L18.5858 20L21.4142 17.1716L6.12134 1.87868L3.29291 4.70711ZM5.41423 5.41421L6.12134 4.70711L3.29291 1.87868L2.5858 2.58579L5.41423 5.41421ZM20.7071 17.8787L5.41423 2.58579L2.5858 5.41421L17.8787 20.7071L20.7071 17.8787ZM4.70712 36.7071L20.7071 20.7071L17.8787 17.8787L1.87869 33.8787L4.70712 36.7071ZM5.41423 34.5858L4.70712 33.8787L1.87869 36.7071L2.5858 37.4142L5.41423 34.5858ZM18.5858 18.5858L2.5858 34.5858L5.41423 37.4142L21.4142 21.4142L18.5858 18.5858Z" fill="#FF4747"/>
</svg>
