<?xml version="1.0" encoding="UTF-8"?>
<svg id="_레이어_2" xmlns="http://www.w3.org/2000/svg" viewBox="0 0 172.43 129.12">
<defs>
<style>.cls-1{fill:#ff388c;}.cls-2{fill:#503cff;}</style>
</defs>
<g id="_레이어_1-2">
<path id="App_Icon_Placeholder" class="cls-1" d="m82.51,22.09h44.51c14.76,0,22.14,0,29.64,2.51,8.12,3.16,13.74,9.99,15.37,18.66,1.11,7.95-.19,15.32-2.79,30.08l-.79,4.51c-2.6,14.76-3.9,22.14-7.82,30.08-4.69,8.67-12.72,15.51-21.95,18.66-8.39,2.51-15.77,2.51-30.53,2.51h-44.51c-14.76,0-22.14,0-29.64-2.51-8.12-3.16-13.75-9.99-15.37-18.66-1.11-7.94.19-15.32,2.79-30.08l.79-4.51c2.6-14.76,3.9-22.14,7.82-30.08,4.69-8.67,12.72-15.51,21.95-18.66,8.39-2.51,15.76-2.51,30.52-2.51h0"/>
<path id="App_Icon_Placeholder-2" class="cls-2" d="m64.28,0h44.51c14.76,0,22.14,0,29.64,2.51,8.12,3.16,13.74,9.99,15.37,18.66,1.11,7.95-.19,15.32-2.79,30.08l-.79,4.51c-2.6,14.76-3.9,22.14-7.82,30.08-4.69,8.67-12.72,15.51-21.95,18.66-8.39,2.51-15.77,2.51-30.53,2.51h-44.51c-14.76,0-22.14,0-29.64-2.51-8.12-3.16-13.75-9.99-15.37-18.66-1.11-7.94.19-15.32,2.79-30.08l.79-4.51c2.6-14.76,3.9-22.14,7.82-30.08,4.69-8.67,12.72-15.51,21.95-18.66,8.39-2.51,15.76-2.51,30.52-2.51h0"/>
</g>
</svg>