<?xml version="1.0" encoding="UTF-8"?><svg id="_레이어_2" xmlns="http://www.w3.org/2000/svg" viewBox="0 0 294.82 294.82"><defs><style>.cls-1{fill:#fff;}.cls-2{fill:#fee5d7;}.cls-3{fill:#fffae7;}.cls-4{fill:#ffb286;}.cls-5{fill:#ffc09c;}.cls-6{fill:#ffd0b5;}.cls-7{fill:#e6ac85;}.cls-8{fill:#edaf86;}.cls-9{fill:#995426;}.cls-10{fill:#985223;}.cls-11{fill:#9e5c30;}.cls-12{fill:#b78666;}.cls-13{fill:#cf936a;}.cls-14{fill:#ae7651;}.cls-15{fill:#bd9275;}.cls-16{fill:#a8673b;}.cls-17{fill:#ae6e43;}.cls-18{fill:#a8572a;}.cls-19{fill:#be8057;}.cls-20{fill:#c4c8f9;}.cls-21{fill:#c88b62;}.cls-22{fill:#da9d74;}.cls-23{fill:#dfa882;}.cls-24{fill:#95502a;}.cls-25{fill:#95512c;}.cls-26{fill:#954c1a;}.cls-27{fill:#964f1f;}.cls-28{fill:#9b582b;}.cls-29{fill:#7897fd;}</style></defs><g id="_레이어_1-2"><rect class="cls-5" width="294.82" height="294.82"/><path class="cls-1" d="m49.28,169.73c-3-3.25-4.95-7.08-6.3-11.26-1.46-4.51-1.83-9.15-1.91-13.85-.02-1.2-.46-2.41-.77-3.6-.41-1.59-.9-3.15-1.3-4.74-.34-1.34-.66-2.68-.87-4.04-.21-1.34-.36-2.7-.38-4.05-.06-2.87-.11-5.76.02-8.63.07-1.57.51-3.13.76-4.7.08-.52-.01-1.08.14-1.56,1.11-3.46,2.18-6.95,4-10.13.98-1.71,2.06-3.37,3.1-5.05,1.19-1.93,2.39-3.86,3.59-5.79.09-.14.24-.25.36-.37.14-.15.28-.29.42-.44,0,0,0,0,0,0,.76-.01.65-.57.65-1.05.21-.27.43-.55.64-.82.52.01.9-.15.78-.76-.01-.06-.38-.04-.59-.06-.71-.62-1.65-1.11-2.09-1.88-1.63-2.83-3.12-5.74-4.61-8.65-.52-1.02-.88-2.11-1.31-3.17-.05-.14-.1-.29-.15-.43-.37-1.31-.73-2.62-1.11-3.93-.38-1.31-.93-2.59-1.13-3.92-.29-2.05-.67-4.11.03-6.19.45-1.33,1.4-2.14,2.59-2.53,1.69-.56,3.45-.7,5.24-.21,1.34.37,2.73.54,4.16.81.18-1.66.25-3.24.57-4.76.19-.93.73-1.8,1.15-2.68.27-.56.61-1.09.92-1.64.57.02.86-.23.82-.82,1.55-1.51,3.45-1.13,5.24-.81,1.48.27,2.94.81,4.34,1.39,1.51.64,2.95,1.47,4.43,2.22,1.13-.66,1.43-1.89,2.01-2.97.59-1.1,1.46-2.04,2.19-3.06.94-1.3,2.42-1.79,3.78-2.33.7-.28,1.74-.04,2.5.26,1.07.43,2.12,1.02,3.02,1.75.93.76,1.78,1.67,2.44,2.67.85,1.28,1.49,2.71,2.19,4.09.75,1.48,1.58,2.94,2.19,4.47.61,1.53,1.01,3.14,1.46,4.73.28.98.43,2,.75,2.96.06.18.7.3,1.03.23,1.89-.41,3.75-1.03,5.66-1.31,2.72-.4,5.46-.73,8.2-.79,5.37-.12,10.74-.07,16.11,0,3.85.05,7.7.14,11.54.39,2.9.19,5.79.69,8.69,1.02,2.66.3,5.33.51,7.97.86,3.74.5,7.47,1.15,11.21,1.66,3.13.42,6.28.71,9.42,1.09,3.24.39,6.47.84,9.7,1.23,3.03.37,6.07.66,9.1,1.1,2.15.31,4.28.81,6.42,1.21,1.26.24,2.54.39,3.79.67,2.77.62,5.54,1.2,8.28,1.95,2.93.8,5.82,1.75,8.7,2.69,1.31.43,2.58.98,3.87,1.47-.43,1.19-.85,2.39-1.28,3.58-1.42-.48-2.83-.96-4.26-1.43-3.04-1-6.06-2.11-9.15-2.94-1.77-.47-3.37-1.38-5.31-1.5-2.19-.14-4.35-.83-6.52-1.31-1.33-.29-2.62-.82-3.96-.93-1.9-.15-3.81-.13-5.61-.88-.12-.05-.27-.05-.4-.06-1.45-.11-2.92-.15-4.36-.33-1.25-.16-2.48-.55-3.73-.69-1.8-.2-3.62-.22-5.43-.42-1.15-.12-2.29-.62-3.42-.6-1.8.04-3.55.05-5.28-.54-.51-.18-1.06-.3-1.6-.35-1.93-.19-3.86-.29-5.78-.52-1.52-.19-3.03-.55-4.55-.79-.62-.1-1.27-.02-1.89-.13-1.31-.22-2.6-.61-3.92-.75-2-.21-4.03-.24-6.04-.39-1.41-.11-2.86-.14-4.22-.49-1.65-.43-3.29-.43-4.96-.45-.08-.01-.15-.02-.23-.03l-.41-.07c-.21,0-.42,0-.63,0-.77.02-1.54.03-2.31.05-.28,0-.57-.01-.85-.02-.03,0-.07,0-.1-.01-3.02-.33-6.13.64-9.1-.57-.09-.04-.24.12-.38.14-.54.08-1.09.15-1.63.21-2.11.27-4.26-.53-6.37.2-.28.1-.63.03-.94.01-2.32-.17-4.57.18-6.78.84-1.23.37-2.41.95-3.66,1.18-.97.18-1.84.25-2.28,1.28-.04.08-.33.04-.5.08-1.82.44-3.67.8-5.46,1.34-2.99.9-5.95,1.91-8.93,2.87-.14.05-.27.1-.41.16-2.46,1.14-4.92,2.28-7.39,3.42-.07.05-.14.1-.21.15-1.61.87-3.21,1.74-4.82,2.6-.59-.06-.9.18-.87.8-.57.43-1.15.87-1.72,1.3-.06.06-.11.11-.17.17l-2.78,2.36c-.06.06-.11.11-.17.17-.41.31-.88.57-1.21.95-1.61,1.85-3.19,3.73-4.78,5.6-1.19,1.41-2.42,2.78-3.57,4.23-.74.93-1.35,1.96-2.02,2.95-.14.29-.29.58-.43.87-1.19,1.9-2.39,3.81-3.58,5.71-.04.02-.08.05-.12.07.02.02.04.04.05.05-.12.23-.24.46-.36.69-.08.13-.15.26-.23.39-.42.84-.84,1.69-1.26,2.53-.06.07-.11.14-.17.21-.37.87-.75,1.74-1.1,2.62-1.41,3.5-2.53,7.62-2.63,10.88-.04,1.25-.06,2.5-.08,3.76.05.14.11.29.16.43.09,2.21.42,4.38.89,6.54.06.14.11.28.17.41.28.92.56,1.84.83,2.75,0,.13,0,.27,0,.4.3.7.6,1.41.9,2.11l.18.84c.08.28.16.57.24.85.05.07.1.14.14.2,0,.15.01.29.02.44-.05.07-.1.15-.16.22.07,1.42.06,2.86.22,4.27.29,2.46.55,4.94,1.06,7.35,1.19,5.57,3.73,10.47,7.62,14.66,2.56,2.75,5.52,4.98,8.69,6.97.27.17.6.44.66.72.16.81.2,1.64.28,2.47.06.27.11.55.17.82.21.85.42,1.69.64,2.54-.05.21-.1.43-.15.64l-.02.62c.05.14.11.28.16.42.02.49.04.97.06,1.46.05.08.11.15.16.23.01.14.03.29.04.43.01.07.04.12.09.17.02.15.04.31.07.46-.02.02-.06.05-.06.06.02.05.05.09.07.14.08.71.16,1.42.25,2.13.06.27.12.55.17.82.02.21.03.42.05.62.13.29.25.57.38.86-.11.13-.21.34-.34.36-.64.12-1.29.19-1.94.27-2.97.35-5.95.62-8.9,1.08-3.59.56-7.17,1.22-10.72,1.97-3.65.77-7.23,1.78-10.67,3.29-5.51,2.41-9.91,6.08-13.11,11.18-1.33,2.12-2.21,4.43-2.05,6.92.18,2.74,1.44,5.13,3.25,7.19,3.01,3.41,6.77,5.77,10.9,7.55,4.76,2.06,9.71,3.49,14.75,4.72,5.5,1.34,11.06,2.25,16.7,2.65,2.78.2,5.56.27,8.34.45.5.03,1.16.18,1.43.52.65.83,1.16,1.79,1.65,2.73.99,1.89,2.38,3.27,4.47,3.91,4.5,1.39,9.18,1.4,13.8,1.86,2.14.21,4.29.31,6.44.43,2.88.16,5.77.37,8.65.4,3.21.03,6.43-.11,9.65-.19,1.36-.04,2.71-.14,4.07-.2,3.17-.15,6.33-.27,9.5-.43,1.94-.1,3.87-.29,5.81-.41,3.61-.22,7.23-.43,10.84-.64,1.53-.09,3.06-.1,4.59-.22,3.24-.25,6.48-.54,9.72-.84,1.27-.12,2.53-.28,3.79-.44,2.59-.33,5.17-.74,7.76-1.01,1.73-.18,3.47-.18,5.21-.26,4.28-.2,8.56-.39,12.84-.6,2.08-.11,4.15-.27,6.23-.42,3.01-.21,6.01-.49,9.02-.61,3.89-.16,7.79-.12,11.67-.29,2.21-.09,4.43.08,6.61-.66,2.49-.85,4.32-2.3,5.32-4.77.39-.97.99-1.65,2.26-1.74,1.52-.11,3-.62,4.51-.91,2.77-.54,5.55-1.02,8.31-1.57,2.56-.5,5.2-.77,7.64-1.63,5.11-1.81,10.11-3.95,15.15-5.94,4.1-1.62,7.05-4.41,8.78-8.49,1.32-3.11,1.7-6.3.74-9.56-1.43-4.86-4.64-8.24-9.03-10.6-2.96-1.59-6.08-2.76-9.3-3.68-3.08-.89-6.12-1.98-9.26-2.57-4.15-.79-8.37-1.19-12.57-1.75-1-.13-1.12-.3-.73-1.24.08-.19.2-.38.21-.58.07-1.62-.29-3.29.63-4.8.06-.1-.01-.27,0-.41.05-1.18.11-2.36.17-3.54,0-.06.06-.12.1-.18.02-.02.07-.04.07-.06-.01-.05-.04-.1-.06-.14.02-.15.03-.3.05-.45l.11-1.45c.21-.57.61-1.14.58-1.69-.06-1.16-.25-2.28.23-3.43.22-.53.11-1.2.17-1.8.14-1.44.29-2.87.44-4.31,0-.03.04-.06.05-.09.28-1.71.57-3.43.83-5.14.14-.92.25-1.84.37-2.76.03-.2.04-.41.06-.62.07-.75.14-1.51.22-2.26,0-.08,0-.16,0-.24h0c.02-.13.04-.27.06-.4,0-.07,0-.15,0-.22.06-.07.11-.15.17-.22,0,0,0,0,0,0,.28-.24.57-.49.85-.73.42-.21.93-.34,1.26-.65,1.31-1.26,2.57-2.58,3.85-3.88.06-.07.11-.13.17-.2,0,0,0,0,0,0,.14-.07.27-.13.41-.2.06-.07.12-.15.18-.22,1.23-.19,2.13-1.09,2.34-2.34,0-.07.02-.13.06-.19.05-.06.11-.12.16-.18,1.12-1.21,2.24-2.41,3.35-3.62.03-.01.09-.03.09-.04,0-.05-.03-.11-.04-.16l-.03-.03c0-.05,0-.1,0-.16.08-.08.16-.16.25-.24l.18-.17c.22-.37.43-.73.65-1.1.06-.07.12-.14.18-.21.01-.14.03-.28.04-.43.05-.07.11-.14.16-.21.24-.42.48-.85.71-1.27.05-.06.09-.12.14-.18.09-.22.19-.43.28-.65.12-.21.24-.41.35-.62,0,0,.01-.01.01-.01.14-.28.27-.56.41-.84,0-.07,0-.14,0-.21h0c.07,0,.15,0,.22,0,.07-.14.14-.28.2-.42,0-.14,0-.28,0-.42,0-.07,0-.14,0-.21.11-.22.21-.44.32-.66.04-.12.07-.23.11-.35.02-.16.03-.32.05-.47.05-.07.1-.14.15-.21.05-.08.09-.16.14-.24.03-.11.06-.23.09-.34l.18-.69.1-.18c0-.15,0-.29,0-.44.07-.27.14-.55.2-.82.04-.08.08-.16.12-.24l.07-.61c0-.07,0-.15-.01-.22.08-.35.16-.69.24-1.04.13-.57.26-1.14.4-1.71.07-.9.14-1.81.21-2.71,0-.29,0-.58-.01-.87l-.21-1.25c.01-.07.02-.15.04-.22.01-.13.03-.25.04-.38-.02-.15-.03-.31-.05-.46.02-.02.06-.05.05-.06-.02-.05-.05-.09-.08-.13-.07-.22-.14-.43-.21-.65-.02-.14-.04-.27-.06-.41h0c-.06-.07-.11-.14-.17-.21.48-.83-.29-1.42-.42-2.13-.07-.28-.15-.55-.22-.83-.22-.57-.43-1.15-.65-1.72-.05-.12-.1-.25-.15-.37-.15-.29-.3-.59-.46-.88-.06-.2-.11-.4-.17-.6.56-.27,1.11-.53,1.67-.8.6-.29,1.21-.58,1.81-.87.79,1.75,1.66,3.44,1.59,5.47-.04,1.02.51,2.05.54,3.09.08,2.58.19,5.17-.02,7.73-.22,2.65-.68,5.3-1.27,7.89-.39,1.68-1.18,3.27-1.86,4.87-.41.95-.92,1.85-1.46,2.73-.31.5-.76.91-1.15,1.36-.09.1-.24.19-.27.31-.44,1.81-1.88,2.94-2.99,4.25-1.52,1.79-3.26,3.39-4.96,5.02-.7.67-1.6,1.14-2.32,1.81-.92.85-1.92,1.7-2.53,2.76-.47.82-.37,1.96-.55,2.95-.16.84-.43,1.66-.53,2.5-.11.88-.07,1.77-.1,2.65,0,.04,0,.07,0,.11-.32,1.62-.69,3.23-.95,4.86-.13.8-.03,1.64-.11,2.45-.19,2.11-.37,4.22-.64,6.33-.16,1.22-.58,2.41-.71,3.64-.13,1.23-.03,2.47-.03,3.81,1.4.17,2.84.31,4.28.52,2.85.41,5.7.82,8.53,1.3,1.43.24,2.85.61,4.25,1,1.49.41,2.95.92,4.42,1.37,1.09.33,2.23.54,3.28.97,2.04.84,4.03,1.78,6.03,2.71.91.42,1.88.81,2.63,1.44,1.5,1.26,3.2,2.47,4.22,4.08,1.24,1.96,2.96,3.83,3.06,6.34.13,3,.14,6.01.13,9.01,0,2.27-.68,4.4-1.75,6.39-.62,1.14-1.37,2.21-2.07,3.32-.77-.08-.91.39-.86,1.01-1.8,1.52-3.8,2.68-5.98,3.57-3.22,1.32-6.43,2.7-9.67,3.98-1.2.47-2.56.57-3.71,1.12-3.09,1.48-6.46,1.76-9.74,2.43-4.02.82-8.07,1.52-12.11,2.24-.8.14-1.33.37-1.71,1.22-.89,2-2.3,3.47-4.32,4.6-2,1.12-4.03,1.25-6.13,1.32-3.89.13-7.79.08-11.67.25-4.08.18-8.15.54-12.22.81-3.38.22-6.75.44-10.13.64-.71.04-1.43.01-2.15.01-.21.06-.42.13-.64.19-2.98.07-5.96.11-8.93.24-1.56.07-3.12.32-4.67.48-1.91.19-3.83.33-5.74.54-.84.09-1.65.33-2.49.44-1.76.22-3.53.6-5.29.54-2.85-.1-5.63.49-8.46.58-4.28.13-8.55.65-12.82.96-1.88.14-3.77.15-5.65.23-3.24.14-6.48.33-9.73.41-6.4.17-12.8.34-19.21.4-2.54.02-5.08-.27-7.62-.42-.14-.05-.29-.11-.43-.16-3.77-.28-7.54-.64-11.31-.83-2.96-.15-5.86-.57-8.71-1.36-.06-.05-.12-.1-.18-.15-.29-.14-.57-.28-.86-.41-.16-.53-.31-1.08-1.06-.63-.84-1.13-1.68-2.27-2.52-3.4-.06-.06-.11-.12-.17-.17-.3-.57-.59-1.13-.89-1.7-.03-.14-.07-.28-.1-.42-.95-.08-1.9-.16-2.85-.24-.14-.06-.28-.12-.42-.18-3.03-.14-6.06-.18-9.08-.46-2.65-.24-5.28-.72-7.92-1.14-1.3-.21-2.58-.52-3.87-.78-.14-.05-.28-.1-.42-.15-.57-.09-1.13-.18-1.7-.27-.06-.05-.12-.1-.19-.16-.99-.25-1.98-.49-2.96-.74-.14-.03-.28-.06-.42-.1-.71-.16-1.41-.32-2.12-.48-.06-.05-.12-.1-.18-.16-.43-.09-.86-.18-1.29-.26-.06-.05-.12-.1-.18-.16-.36-.09-.72-.18-1.08-.27-.06-.05-.12-.1-.18-.15-.29-.1-.57-.19-.86-.29-.14-.04-.28-.08-.42-.12-2.25-.93-4.49-1.85-6.74-2.78-.16-.12-.33-.24-.49-.36-.68-.3-1.36-.61-2.05-.91-.06-.06-.13-.11-.19-.17-.29-.15-.57-.3-.86-.45-.07-.06-.13-.12-.2-.19-1.06-.78-2.11-1.55-3.17-2.33-.09-1.07-1.07-2.05-2.29-2.31-1.39-1.58-2.5-3.32-2.96-5.4-.08-.37-.19-.75-.19-1.12-.02-2.94-.2-5.9.07-8.82.15-1.59.85-3.26,1.73-4.62,1.35-2.1,3.05-3.97,4.62-5.93.1-.12.3-.16.45-.24.52.08.74-.13.66-.65,1.48-1.04,2.96-2.09,4.43-3.13.6.46.77.1.84-.44,1.4-.63,2.8-1.25,4.2-1.88.47.27.8.23.87-.39,3.89-.99,7.75-2.1,11.67-2.92,3.55-.75,7.16-1.19,10.75-1.75,2.03-.32,4.07-.6,6.26-.92-.16-1.28-.29-2.54-.48-3.8-.24-1.59-.48-3.17-.83-4.74-.1-.47-.48-.97-.87-1.27-1.93-1.5-3.9-2.94-5.86-4.4-.05-.52-.03-1.11-.86-.82-.41-.37-.83-.74-1.24-1.11.03-.76-.2-1.29-1.1-1.23Zm9.98-89.12l.18-.21c.06-.07.13-.15.19-.22.08-.06.16-.11.24-.17h.06c.12-.1.23-.18.35-.26.55-.42,1.1-.83,1.65-1.25.08-.06.16-.12.24-.17,1.96-1.21,3.91-2.42,5.87-3.62.15-.08.3-.15.45-.23.19-.13.37-.29.58-.38,1.88-.78,3.72-1.66,5.65-2.29,1.95-.64,3.98-1.03,5.97-1.53.21-.06.43-.11.64-.17,1.55-.07,3.1-.14,4.64-.21.07.1.14.2.21.3.07-.1.14-.2.21-.3.33-.08.74-.07.98-.27.62-.5,1.52-1.01,1.66-1.66.22-.98-.06-2.08-.23-3.12-.53-3.24-1.53-6.35-2.88-9.33-1.13-2.49-2.37-4.94-4.41-6.87-1.24-1.18-3.19-1.25-4.42-.16-1.87,1.66-3.15,3.7-3.99,6.05-.27.78-.65,1.51-.95,2.19-1.7-1.02-3.31-2.06-4.98-2.96-1.48-.79-3-1.54-4.58-2.11-2.6-.94-5.35.7-5.69,3.35-.19,1.42-.19,2.87-.27,4.3,0,.35,0,.69,0,1.04v2.71c-.16,0-.45.05-.7,0-2.61-.61-5.12-1.55-7.85-1.71-1.07-.07-1.75.3-2.21.96-.86,1.26-1.11,2.7-.59,4.23.87,2.58,1.53,5.25,2.58,7.75,1.28,3.03,2.82,5.95,4.38,8.84.76,1.41,1.77,1.56,3.17.83.14-.07.27-.15.41-.22.44-.49.88-.98,1.32-1.48.05-.06.11-.11.16-.17.09-.08.18-.16.27-.23.12-.08.24-.16.36-.23.28-.28.57-.56.85-.83.14-.06.28-.11.42-.17l.03-.03Z"/><path class="cls-4" d="m223.38,77.63c.63-1.43,1.19-2.89,1.9-4.28.55-1.08,1.22-2.11,1.92-3.1.33-.47.86-.8,1.29-1.2,1.09-1.02,2.05-2.26,3.3-3.02,2.83-1.71,5.76-3.31,9.13-3.76,1.5-.2,3.02-.38,4.53-.41,5.08-.12,9.59,1.61,13.6,4.62,3.65,2.73,6.23,6.28,8.07,10.48,1.74,3.96,2.22,8.09,1.92,12.27-.49,6.81-3.25,12.66-8.33,17.33-.08.07-.18.11-.27.17-.27-.49-.52-.98-.8-1.46-.78-1.34-1.57-2.68-2.35-4.03-.03-.21-.05-.42-.08-.62,1.63-3.39,2.77-6.91,2.83-10.71.01-.86-.12-1.62-1.01-2-.89-.38-1.6.08-2.18.64-.93.9-1.78,1.88-2.66,2.83-.4.43-.78.89-1.17,1.33-.11-.37-.04-.63.04-.89.66-2.06,1.4-4.13,1.24-6.33-.05-.64-.45-1.51-.96-1.78-.38-.2-1.44.21-1.75.65-1.42,1.98-2.67,4.08-3.99,6.14-.71-.49-1.41-.98-2.12-1.47.07-.27.1-.55.21-.8.63-1.37,1.28-2.72,1.92-4.08.31-.67.41-1.3-.39-1.69-.79-.39-1.05.28-1.33.77-.28.48-.44,1.02-.69,1.52-.52,1.01-1.07,2.01-1.6,3.02-1.24-.77-2.47-1.54-3.71-2.3-1.29-.79-2.59-1.56-3.89-2.35.24-.13.5-.25.73-.41,2.16-1.45,4.3-2.94,6.49-4.36,1.19-.77,2.45-1.45,3.69-2.14.69-.38.99-1.02.59-1.61-.17-.24-1.14-.22-1.55.03-2.93,1.77-5.8,3.63-8.72,5.43-.31.19-.76.13-1.15.19,0-.36-.09-.76.03-1.08.97-2.57,1.97-5.14,3-7.69.27-.66.47-1.27-.34-1.57-.82-.3-1.09.38-1.31.99-.41,1.14-.74,2.3-1.21,3.41-.84,2.03-1.75,4.03-2.65,6.04-.21.46-.51.88-.77,1.33-.25-.11-.51-.21-.75-.34-.82-.43-1.62-.89-2.46-1.28-.86-.41-1.76-.75-2.63-1.13-.18-.08-.34-.21-.52-.27-1.03-.35-2.07-.69-3.1-1.03Zm26.05.52c-.14-.01-.29-.02-.43-.03-.25.37-.7.75-.69,1.11.01.32.6.92.83.87.38-.07.86-.53.94-.9.07-.29-.41-.7-.64-1.05Z"/><path class="cls-2" d="m223.38,77.63c1.03.34,2.07.68,3.1,1.03.18.06.34.19.52.27.88.38,1.77.72,2.63,1.13.84.39,1.64.86,2.46,1.28.24.13.5.23.75.34,0,.07.01.14.01.21-.54,1.2-1.07,2.39-1.61,3.59-1.1-.5-2.19-1.03-3.31-1.5-2.01-.85-4.03-1.67-6.04-2.5-.08-.08-.16-.15-.23-.23.43-1.19.85-2.39,1.28-3.58.15-.01.29-.02.44-.03Z"/><path class="cls-2" d="m257.29,101.25c.78,1.34,1.57,2.68,2.35,4.03.28.48.53.97.8,1.46,0,.21-.01.43-.02.64-.6.29-1.21.58-1.81.87-.55.27-1.11.53-1.67.8-.61-1.12-1.21-2.24-1.82-3.36-.05-.14-.11-.29-.16-.43.22-.3.47-.58.65-.91.57-1.03,1.11-2.07,1.67-3.1Z"/><path class="cls-1" d="m17.11,225.33c1.22.26,2.2,1.25,2.29,2.31-.76-.77-1.53-1.54-2.29-2.31Z"/><path class="cls-1" d="m51.63,88.84c.2.02.58,0,.59.06.12.61-.26.77-.78.76.06-.27.13-.55.19-.82Z"/><path class="cls-1" d="m49.28,169.73c.89-.06,1.13.47,1.1,1.23-.37-.41-.73-.82-1.1-1.23Z"/><path class="cls-1" d="m72.92,246.62c.75-.46.9.09,1.06.63-.35-.21-.7-.42-1.06-.63Z"/><path class="cls-1" d="m51.62,172.07c.83-.29.81.3.86.82-.29-.27-.57-.55-.86-.82Z"/><path class="cls-1" d="m50.79,90.48c0,.48.11,1.04-.65,1.05.22-.35.43-.7.65-1.05Z"/><path class="cls-1" d="m276.26,223.4c-.05-.62.09-1.08.86-1.01-.29.34-.57.67-.86,1.01Z"/><path class="cls-1" d="m56.7,48.82c.04.58-.25.84-.82.82.27-.27.54-.54.82-.82Z"/><path class="cls-1" d="m26.76,194.96c-.07.54-.24.9-.84.44.28-.15.56-.29.84-.44Z"/><path class="cls-1" d="m31.83,192.7c-.07.62-.4.66-.87.39.29-.13.58-.26.87-.39Z"/><path class="cls-6" d="m186.07,245.78c.21-.06.42-.13.64-.19-.21.06-.42.13-.64.19Z"/><path class="cls-1" d="m21.49,198.54c.08.52-.15.73-.66.65.22-.22.44-.44.66-.65Z"/><path class="cls-1" d="m44.68,237.98c.14.05.28.1.42.15-.14-.05-.28-.1-.42-.15Z"/><path class="cls-1" d="m33.09,234.82c.14.04.28.08.42.12-.14-.04-.28-.08-.42-.12Z"/><path class="cls-1" d="m50.14,91.53c-.14.15-.28.29-.42.44.14-.15.28-.29.42-.44Z"/><path class="cls-1" d="m95.04,250c.14.05.29.11.43.16-.14-.06-.29-.11-.43-.16Z"/><path class="cls-1" d="m69.24,240.93c.03.14.07.28.1.42-.03-.14-.07-.28-.1-.42Z"/><path class="cls-1" d="m65.97,240.51c.14.06.28.12.42.18-.14-.06-.28-.12-.42-.18Z"/><path class="cls-1" d="m39.42,236.72c.14.03.28.06.42.1-.14-.03-.28-.06-.42-.1Z"/><path class="cls-1" d="m43.46,74.7c.05.14.1.29.15.43-.05-.14-.1-.29-.15-.43Z"/><path class="cls-1" d="m25.86,231.68c.16.12.33.24.49.36-.16-.12-.33-.24-.49-.36Z"/><path class="cls-1" d="m22.57,229.97c.07.06.13.12.2.19-.07-.06-.13-.12-.2-.19Z"/><path class="cls-1" d="m23.62,230.6c.06.06.13.11.19.17-.06-.06-.13-.11-.19-.17Z"/><path class="cls-1" d="m34.38,235.24c.06.05.12.1.18.15-.06-.05-.12-.1-.18-.15Z"/><path class="cls-1" d="m35.64,235.66c.06.05.12.11.18.16-.06-.05-.12-.11-.18-.16Z"/><path class="cls-1" d="m37.11,236.08c.06.05.12.11.18.16-.06-.05-.12-.11-.18-.16Z"/><path class="cls-1" d="m42.8,237.55c.06.05.12.1.19.16-.06-.05-.12-.1-.19-.16Z"/><path class="cls-1" d="m70.23,243.04c.06.06.11.12.17.17-.06-.06-.11-.12-.17-.17Z"/><path class="cls-1" d="m74.83,247.67c.06.05.12.1.18.15-.06-.05-.12-.1-.18-.15Z"/><path class="cls-24" d="m221.66,81.25c.08.08.16.15.23.23-.14,1.02-.28,2.05-.42,3.07-1.71-.63-3.42-1.25-5.13-1.89-2.16-.81-4.29-1.68-6.55-2.21-1.65-.38-3.28-.87-4.92-1.32-1.97-.54-4.08-.66-5.78-1.99-.07-.05-.21-.08-.29-.05-1.38.41-2.73.14-4.09-.12-.76-.74-1.56-1.19-2.64-.61-.17.09-.48-.03-.71-.07-1.57-.29-3.12-.6-4.7-.86-.7-.11-1.61.16-2.09-.2-1.07-.79-2.31-.18-3.35-.72-.82,0-1.63.01-2.44-.04-.57-.04-1.35.03-1.67-.3-.54-.57-.92-.52-1.54-.27-.43.17-.96.15-1.44.13-.73-.02-1.45-.11-2.18-.18-.66-.16-1.34-.47-1.99-.44-2.12.12-4.12-.89-6.24-.63-.13.02-.27-.07-.41-.09-.91-.11-1.81-.21-2.72-.31,0,.04-.01.07-.02.11l.63.31c.14.14.29.27.43.41.44.09.92.1,1.32.27,1.88.83,3.76,1.65,5.6,2.57,3.96,1.99,7.83,4.13,11.34,6.87.84.66,1.73,1.26,2.6,1.88,1.76,1.62,3.51,3.23,5.27,4.85.21.31.38.65.63.93.88,1,1.85,1.92,2.66,2.97.89,1.14,1.9,2.07,3.33,2.41,3.9.93,7.23,3.11,10.73,4.9,3.75,1.92,7.29,4.27,10.92,6.42,1.68.99,3.31,2.12,5.09,2.89,3.9,1.69,7.79,3.47,12.13,3.81,1.66.13,3.33.51,4.98.46,1.58-.05,3.17-.44,4.72-.81.61-.15,1.14-.66,1.7-1.01h2.53c-.09.18-.14.45-.28.53-1.05.54-2.08,1.3-3.2,1.51-2.42.45-4.9.63-7.35.9-.7.08-1.41.14-2.11.19-.42.03-.85.06-1.26,0-3.29-.47-6.5-1.24-9.59-2.51-2.85-1.18-5.61-2.5-8.17-4.26-2.93-2.02-5.92-3.98-8.96-5.83-1.79-1.09-3.71-1.98-5.62-2.83-1.68-.75-3.44-1.35-5.17-1.99-.13-.05-.32.05-.61.11.28.56.54,1.04.77,1.53,1.16,2.57,2.39,5.12,3.43,7.74.6,1.51.91,3.14,1.35,4.71.21,1.47.42,2.95.63,4.42-.09,3.04-.17,6.08-.26,9.12-.08,2.66-.96,5.22-.85,7.94.1,2.52-.36,5.06-.57,7.59-.43,1.27-.85,2.55-1.3,3.81-.32.91-.68,1.81-1.02,2.71-.49.98-.99,1.97-1.48,2.95-.49.84-.99,1.68-1.48,2.53l-1.69,2.72c-.92,1.18-1.84,2.36-2.76,3.54-.4.33-.8.65-1.19.99-.86.75-1.72,1.51-2.57,2.26-.07.06-.14.12-.21.18-.28.14-.56.29-.84.43-.78.73-1.58,1.44-2.34,2.19-.12.12-.11.36-.16.55l-.42,6.32c-.75.93-.19,1.96-.21,2.95-.13,2.04-.25,4.07-.38,6.11-.16,2.45-.31,4.9-.5,7.35-.08,1.06-.25,2.12-.38,3.18-.34,3.3-.68,6.6-1.03,9.9-.05.45-.06.91-.17,1.35-.25.98-.34,1.96-.87,2.91-.45.81-.25,1.98-.35,3.09.34,0,.72,0,1.1,0,3.85-.06,7.7-.12,11.55-.19,2.87-.06,5.74-.13,8.6-.21,2.62-.07,5.24-.17,7.86-.2,2.25-.03,4.49-.01,6.74.02.98.01,1.97.26,2.92.14,2.65-.33,5.3-.72,7.92-1.25,1.6-.32,3.24-.72,4.38-2.07.82-1.08,1.17-2.29,1.32-3.66.31-2.74,1.18-5.39,1.46-8.16.21-2.06.68-4.08.97-6.13.31-2.16.56-4.33.84-6.5.14-1.12.28-2.25.43-3.37.27-2.32.55-4.63.82-6.95.08-.91.16-1.83.23-2.74.14-1.12.28-2.25.43-3.37.21-1.05.43-2.11.64-3.16.07-.91.14-1.83.21-2.74.14-.77.28-1.54.42-2.32.07-.7.15-1.41.22-2.11.21-1.48.42-2.95.63-4.43.13-1.19,1.07-1.71,1.9-2.32.7-.56,1.4-1.12,2.11-1.69,1.4-1.33,2.81-2.67,4.21-4,2.86-2.52,5.37-5.32,6.95-8.85.33-.65.67-1.3.98-1.96,1.49-3.19,2.3-6.56,2.58-10.05.26-3.21-.39-6.31-1.66-9.27-.14-.42-.28-.84-.42-1.26.92-.36,1.85-.72,2.77-1.08.15.29.3.59.46.88.05.12.1.25.15.37.22.57.43,1.15.65,1.72.07.28.15.55.22.83.13.71.9,1.29.42,2.13.06.07.11.15.17.22,0,0,0,0,0,0,.02.14.04.27.06.41.07.22.14.43.21.65-.03.07-.03.14.02.2.02.15.03.31.05.46-.01.13-.03.25-.04.38-.01.07-.02.15-.04.22l.21,1.25c0,.29,0,.58.01.87-.07.9-.14,1.81-.21,2.71-.13.57-.26,1.14-.4,1.71-.08.35-.16.69-.24,1.04,0,.07,0,.15.01.22-.02.2-.05.41-.07.61-.04.08-.08.16-.12.24-.07.27-.14.55-.2.82,0,.15,0,.29,0,.44-.05.05-.08.11-.1.18-.06.23-.12.46-.18.69-.03.11-.06.23-.09.34-.05.08-.09.16-.14.24-.05.07-.1.14-.15.21-.02.16-.03.32-.05.47-.04.12-.07.23-.11.35-.11.22-.21.44-.32.66-.06.07-.11.14-.17.21-.09.28-.17.56-.26.84,0,0,0,0,0,0-.06.07-.11.14-.17.21-.08.28-.16.56-.24.84,0,0-.01.01-.01.01-.12.21-.24.41-.35.62-.09.22-.19.43-.28.65-.05.06-.09.12-.14.18-.24.42-.48.85-.71,1.27-.05.07-.11.14-.16.21-.01.14-.03.28-.04.43-.06.07-.12.14-.18.21-.22.37-.43.73-.65,1.1-.06.06-.12.11-.18.17-.08.08-.16.16-.25.24-.05.03-.11.05-.16.08.05.03.11.05.16.08,0,0,.03.03.03.03,0,.07-.02.14-.04.2-1.12,1.21-2.24,2.41-3.35,3.62-.05.06-.11.12-.16.18-.04.06-.06.12-.06.19-.78.78-1.56,1.56-2.34,2.34-.06.07-.12.15-.18.22-.14.07-.27.13-.41.2,0,0,0,0,0,0-.06.07-.11.13-.17.2-1.28,1.3-2.53,2.62-3.85,3.88-.33.31-.83.44-1.26.65-.28.24-.57.49-.85.73h0c-.06.07-.11.14-.17.21,0,.07,0,.15,0,.22-.02.14-.04.27-.06.41,0,0,0,0,0,0-.05.03-.1.05-.15.08.05.05.1.11.15.16-.07.75-.14,1.51-.22,2.26-.02.21-.03.41-.06.62-.12.92-.23,1.84-.37,2.76-.27,1.72-.55,3.43-.83,5.14,0,.03-.05.06-.05.09-.15,1.44-.3,2.87-.44,4.31-.06.6.05,1.27-.17,1.8-.48,1.15-.3,2.26-.23,3.43.03.55-.37,1.13-.58,1.69-.04.48-.07.97-.11,1.45-.02.15-.03.3-.05.45-.04.07-.04.13,0,.2-.03.06-.1.12-.1.18-.06,1.18-.11,2.36-.17,3.54,0,.14.06.31,0,.41-.91,1.51-.56,3.18-.63,4.8,0,.19-.13.39-.21.58-.39.94-.27,1.11.73,1.24,4.19.55,8.42.96,12.57,1.75,3.14.6,6.18,1.69,9.26,2.57,3.22.93,6.34,2.09,9.3,3.68,4.4,2.36,7.61,5.73,9.03,10.6.96,3.26.58,6.45-.74,9.56-1.73,4.07-4.69,6.86-8.78,8.49-5.04,2-10.04,4.13-15.15,5.94-2.43.86-5.08,1.13-7.64,1.63-2.77.54-5.55,1.03-8.31,1.57-1.51.29-2.99.8-4.51.91-1.27.09-1.86.76-2.26,1.74-1,2.47-2.83,3.93-5.32,4.77-2.17.74-4.4.57-6.61.66-3.89.16-7.79.13-11.67.29-3.01.12-6.01.41-9.02.61-2.08.14-4.15.31-6.23.42-4.28.22-8.56.4-12.84.6-1.74.08-3.49.08-5.21.26-2.6.27-5.18.68-7.76,1.01-1.26.16-2.52.32-3.79.44-3.24.3-6.48.58-9.72.84-1.53.12-3.06.14-4.59.22-3.61.2-7.23.41-10.84.64-1.94.12-3.87.3-5.81.41-3.16.17-6.33.29-9.5.43-1.36.06-2.71.16-4.07.2-3.21.09-6.43.23-9.65.19-2.89-.03-5.77-.25-8.65-.4-2.15-.12-4.3-.22-6.44-.43-4.62-.46-9.3-.47-13.8-1.86-2.09-.65-3.48-2.03-4.47-3.91-.49-.94-1-1.9-1.65-2.73-.27-.34-.93-.49-1.43-.52-2.78-.18-5.56-.26-8.34-.45-5.64-.4-11.19-1.31-16.7-2.65-5.04-1.23-9.99-2.67-14.75-4.72-4.13-1.78-7.89-4.15-10.9-7.55-1.81-2.05-3.08-4.45-3.25-7.19-.16-2.49.72-4.8,2.05-6.92,3.2-5.1,7.6-8.77,13.11-11.18,3.44-1.5,7.02-2.52,10.67-3.29,3.56-.75,7.13-1.41,10.72-1.97,2.95-.46,5.93-.73,8.9-1.08.65-.08,1.3-.15,1.94-.27.13-.02.23-.24.34-.36-.13-.29-.25-.57-.38-.86-.02-.21-.03-.42-.05-.62-.06-.27-.12-.55-.17-.82l-.25-2.13c.04-.07.03-.14-.02-.2-.02-.15-.04-.31-.07-.46-.03-.06-.06-.12-.09-.17-.01-.14-.03-.29-.04-.43-.05-.08-.11-.15-.16-.23-.02-.49-.04-.97-.06-1.46-.05-.14-.11-.28-.16-.42l.02-.62c.05-.21.1-.43.15-.64-.21-.85-.42-1.69-.64-2.54-.06-.27-.11-.55-.17-.82-.08-.82-.12-1.66-.28-2.47-.05-.28-.39-.55-.66-.72-3.17-1.99-6.13-4.22-8.69-6.97-3.89-4.19-6.43-9.09-7.62-14.66-.52-2.42-.78-4.89-1.06-7.35-.17-1.41-.15-2.84-.22-4.27.05-.07.1-.15.16-.22,0-.15-.01-.29-.02-.44-.05-.07-.1-.14-.14-.2-.08-.28-.16-.57-.24-.85l-.18-.84c-.3-.7-.6-1.41-.9-2.11,0-.13,0-.27,0-.4-.28-.92-.56-1.84-.83-2.75-.06-.14-.11-.28-.17-.41-.47-2.16-.8-4.33-.89-6.54-.05-.14-.11-.29-.16-.43.03-1.25.05-2.5.08-3.76.1-3.27,1.23-7.38,2.63-10.88.35-.88.74-1.75,1.1-2.62.06-.07.11-.14.17-.21.42-.84.84-1.69,1.26-2.53.08-.13.15-.26.23-.39.12-.23.24-.46.36-.69.03-.04.06-.08.07-.13,1.19-1.9,2.39-3.81,3.58-5.71.14-.29.29-.58.43-.87.67-.99,1.28-2.02,2.02-2.95,1.14-1.45,2.37-2.82,3.57-4.23,1.59-1.87,3.17-3.75,4.78-5.6.33-.38.81-.63,1.21-.95.06-.06.11-.11.17-.17l2.78-2.36c.06-.06.11-.11.17-.17.57-.43,1.15-.87,1.72-1.3.29-.27.58-.53.87-.8,1.61-.87,3.21-1.74,4.82-2.6.07-.05.14-.1.21-.15,2.46-1.14,4.92-2.28,7.39-3.42.14-.05.27-.1.41-.16,2.97-.96,5.94-1.97,8.93-2.87,1.79-.54,3.64-.9,5.46-1.34.17-.04.46,0,.5-.08.44-1.03,1.32-1.1,2.28-1.28,1.25-.23,2.43-.81,3.66-1.18,2.21-.66,4.47-1.01,6.78-.84.31.02.66.09.94-.01,2.11-.73,4.25.07,6.37-.2.54-.07,1.09-.13,1.63-.21.13-.02.29-.17.38-.14,2.97,1.22,6.08.25,9.1.57.03,0,.07,0,.1.01.28,0,.57.01.85.02.77-.02,1.54-.03,2.31-.05.21,0,.42,0,.63,0,.14.02.27.05.41.07.08.01.15.02.23.03,1.66.02,3.31.02,4.96.45,1.36.35,2.81.38,4.22.49,2.01.15,4.03.18,6.04.39,1.32.14,2.61.53,3.92.75.62.1,1.27.03,1.89.13,1.52.24,3.02.6,4.55.79,1.92.24,3.86.33,5.78.52.54.05,1.08.17,1.6.35,1.72.59,3.48.58,5.28.54,1.14-.02,2.27.47,3.42.6,1.8.2,3.63.22,5.43.42,1.25.14,2.48.53,3.73.69,1.44.18,2.91.23,4.36.33.14,0,.28.01.4.06,1.8.74,3.71.72,5.61.88,1.34.11,2.63.64,3.96.93,2.17.48,4.33,1.17,6.52,1.31,1.93.12,3.54,1.03,5.31,1.5,3.09.82,6.1,1.94,9.15,2.94,1.42.47,2.84.95,4.26,1.43Zm-154.68,123.24c-.14-.92-.28-1.83-.42-2.75-.49-2.58-.98-5.16-1.48-7.78-1.09,0-2.11-.11-3.11.02-2.76.36-5.5.8-8.25,1.24-2.29.36-4.61.64-6.87,1.15-3.26.72-6.52,1.5-9.72,2.47-2.1.64-4.14,1.55-6.08,2.57-3.53,1.86-6.48,4.44-8.68,7.81-1.04,1.59-1.9,3.27-1.91,5.22-.01,2.78,1.64,4.77,3.43,6.6,2.08,2.13,4.61,3.73,7.32,4.91,2.81,1.22,5.7,2.3,8.61,3.26,6.16,2.03,12.51,3.32,18.94,4.11,3.06.38,6.16.45,9.24.66,2.84.2,5.67.42,8.5.63,3.73.28,7.46.67,11.2.82,5.31.22,10.62.34,15.93.36,6.68.02,13.37.34,20.05-.31,3.25-.32,6.52-.46,9.78-.64,2.58-.14,5.16-.3,7.74-.29,3.49.01,6.99.27,10.48.26,5.95,0,11.9-.07,17.85-.22,2.74-.07,5.46-.39,8.19-.61,4.07-.34,8.14-.87,12.22-1.01,7.97-.27,15.96-.3,23.94-.47,1.98-.04,3.95-.21,5.92-.44,2.33-.27,4.64-.66,6.95-1.03,2.54-.41,5.09-.81,7.62-1.3,3.78-.72,7.55-1.48,11.31-2.28,2.55-.54,5.14-1,7.59-1.83,3.73-1.27,7.4-2.76,11.03-4.32,2.55-1.1,5.22-2.06,7.04-4.39,1.76-2.25,2.92-4.71,3.02-7.6.12-3.78-1.85-6.61-4.45-8.98-2.49-2.27-5.57-3.65-8.77-4.64-3.95-1.21-7.9-2.43-11.92-3.39-2.96-.71-6.02-1.03-9.05-1.47-1.47-.21-2.95-.3-4.48-.45-.53,2.86-1.06,5.64-1.56,8.43-.04.2.12.43.18.65-.46,1.07-.91,2.14-.58,3.35-.22.77-.39,1.56-.68,2.3-1.03,2.61-2.85,4.43-5.61,5.1-2.65.64-5.32,1.16-8.01,1.63-1.53.26-3.1.41-4.65.41-2.16,0-4.31-.34-6.47-.29-3.73.08-7.46.45-11.2.52-6.46.11-12.92.08-19.37.12-1.1,0-2.17.09-3.16.74-.55.37-1.28.51-1.96.63-2.83.52-5.65,1.13-8.5,1.46-3.44.41-6.91.76-10.37.81-4.39.05-8.79-.28-13.18-.36-2.13-.04-4.25.11-6.38.2-1,.04-2.01.09-3.01.22-3.79.47-7.57,1.05-11.37,1.43-2.7.27-5.41.36-8.13.44-4.2.12-8.4.21-12.6.21-4.97,0-9.94-.07-14.91-.22-3.12-.09-6.24-.33-9.34-.63-2.22-.22-4.14-1.13-5.05-3.35-.65-1.57-1.21-3.17-1.68-4.8-.46-1.6-.75-3.25-1.11-4.88Zm-1.38-28c.2,1.25.41,2.39.57,3.54.37,2.66.65,5.34,1.08,7.99.56,3.42,1.21,6.82,1.87,10.22.81,4.17,1.61,8.34,2.57,12.47.37,1.6.92,3.42,2.99,3.65,3.48.37,6.97.79,10.46.83,6.87.08,13.74-.04,20.6-.19,5.52-.12,11.03-.39,16.54-.63,1.31-.06,2.61-.29,3.91-.42,3.58-.35,7.15-.88,10.73-1,4.19-.13,8.4.1,12.6.17.03,0,.07.01.1.01,3.64-.08,7.29.04,10.9-.29,3.5-.32,6.94-1.21,10.44-1.62,3.07-.37,4.12-2.34,4.55-4.98.31-1.88.59-3.76.85-5.64.37-2.74.77-5.48,1.04-8.23.29-3.04.44-6.1.65-9.15.15-2.18.27-4.37.43-6.55.11-1.49.29-2.97.41-4.46.1-1.3.15-2.61.22-4.09-.47.2-.77.35-1.08.46-2.41.88-4.79,1.9-7.26,2.59-1.65.46-3.43.62-5.16.64-2.77.03-5.59.16-8.29-.32-5.09-.9-9.6-3.28-13.91-6.12-4.32-2.85-7.98-6.31-10.88-10.56-2.43-3.56-4.41-7.35-5.05-11.69-.13-.85-.49-1.43-1.33-1.83-1.48-.71-2.99-.8-4.55-.55-2.06.32-3.23,1.94-4.61,3.23-.07.07-.04.27-.03.41.17,2.8-.47,5.49-1.04,8.2-.78,3.7-2.14,7.17-4.14,10.34-1.73,2.75-3.74,5.35-6.41,7.3-2.25,1.63-4.46,3.38-6.89,4.68-4.13,2.2-8.67,3.2-13.31,3.64-2.5.24-5.03.3-7.53.2-2.3-.09-4.6-.42-6.87-.83-1.73-.32-3.4-.93-5.16-1.43Zm132-53.29c.48-3.88.17-7.63-.65-11.32-1.01-4.53-2.9-8.73-5.55-12.52-1.59-2.27-3.53-4.29-5.3-6.43-2.31-2.79-5-5.16-7.92-7.26-2.36-1.69-4.81-3.28-7.33-4.74-2.41-1.4-4.87-2.79-7.46-3.82-4.66-1.86-9.44-3.43-14.16-5.15-5.44-1.99-11.14-2.66-16.86-3.08-3.62-.27-7.27-.27-10.91-.26-6.08,0-12.18-.47-18.21.65-1.78.33-3.6.78-5.24,1.53-1.4.65-2.73,1.32-4.27,1.7-6.89,1.7-13.6,3.9-19.88,7.28-3.6,1.93-6.97,4.21-9.93,7-4.04,3.81-7.48,8.15-10.55,12.79-3.22,4.86-6.16,9.84-8.03,15.41-.9,2.67-1.49,5.39-1.49,8.18,0,2.52.35,5.04.61,7.55.08.8.36,1.58.61,2.64.19-.71.29-1.1.4-1.49.79-2.81,1.81-5.51,3.17-8.1,1.35-2.57,2.99-4.94,4.94-7.08,3.6-3.95,8.03-6.7,12.93-8.74,2.94-1.22,5.94-2.18,9.18-2.02.64.03,1.26.31,1.9.4,1.71.23,3.43.36,5.13.65,4.74.83,9.31,2.31,13.63,4.4,4.89,2.36,9.46,5.22,13.06,9.43,1.76,2.06,3.22,4.28,4.29,6.73,1.59,3.62,2.5,7.45,3.04,11.52,3.1-2.33,6.51-2.3,9.96-1.53.19-2.52.33-4.91.55-7.3.17-1.89.26-3.81.7-5.64,1.01-4.24,2.77-8.17,5.44-11.66,2.61-3.42,5.62-6.35,9.76-7.85.7-.25,1.54-.14,2.29-.19.65-.45,1.34-1.16,2.18-1.46,1.63-.58,3.34-.95,5.03-1.35,2.68-.64,5.34-1.5,8.06-1.78,3.8-.38,7.59.12,11.31,1.14,4.91,1.35,9.12,4.04,13.27,6.83,2.46,1.65,4.6,3.68,6.45,6,2.03,2.55,4.09,5.09,5.29,8.19.11.28.34.52.52.77Zm-84.21,20.41c.09-.02.18-.03.27-.05-.45-2.97-.75-5.96-1.37-8.89-1.03-4.79-3.07-9.08-6.61-12.6-4.29-4.27-9.42-7.14-15.02-9.21-3.43-1.27-6.95-2.26-10.59-2.75-1.5-.2-3-.57-4.5-.61-2.65-.06-5.11.79-7.55,1.77-5.05,2.03-9.47,4.96-12.87,9.21-2.25,2.81-4.1,5.93-5.16,9.4-.78,2.55-1.35,5.16-1.89,7.77-.39,1.88-.49,3.77.95,5.38.36.4.63.89.91,1.36,1.42,2.39,3.33,4.32,5.55,5.96,1.24.92,2.54,1.77,3.78,2.68,1.58,1.17,2.11,2.9,2.51,4.72.89,4.08,1.84,8.14,2.71,12.22.25,1.18.34,2.39,1.8,2.74.3.07.59.19.87.31,4.33,1.74,8.83,2.4,13.49,2.2,3.18-.13,6.29-.51,9.41-1.21,3.22-.72,6.22-1.9,8.97-3.6,2.41-1.48,4.77-3.13,6.53-5.42,1.52-1.99,3.25-3.91,4.33-6.13,2.34-4.77,3.55-9.88,3.5-15.24Zm50.61,24.85c.95-.06,2.37,0,3.73-.25,3.96-.74,7.81-1.87,11.14-4.28.31-.22.6-.67.65-1.04.2-1.47.17-2.99.48-4.43.35-1.65.7-3.41,1.55-4.82,1.04-1.73,2.62-3.13,3.92-4.71,2.87-3.49,5.83-6.92,8.53-10.53,1.25-1.67,2.39-3.61,2.14-5.86-.19-1.75-.53-3.51-.99-5.21-1.22-4.53-3.94-8.2-6.91-11.7-2.6-3.05-5.96-5.13-9.3-7.24-4.77-3.01-9.96-4.57-15.59-4.6-3.01-.02-5.95.54-8.84,1.38-1.74.5-3.51.89-5.23,1.46-.96.32-1.78,1.09-2.89.54-.09-.04-.33.04-.37.12-.41,1.05-1.49.99-2.27,1.41-2.33,1.24-4.41,2.76-6.13,4.81-2.11,2.5-3.76,5.2-4.93,8.26-1.52,3.97-1.82,8.11-2.02,12.27-.08,1.58,0,3.16-.01,4.74-.02,3.3.75,6.44,2.2,9.35,2.1,4.22,4.85,7.99,8.46,11.12,2.97,2.57,6.29,4.56,9.7,6.38,3.89,2.07,8.16,2.79,12.99,2.82Zm62.19,66.3c-.82.11-1.45.21-2.09.27-1.58.15-3.16.28-4.74.44-2.57.26-5.14.67-7.72.8-3.4.16-6.8.07-10.2.15-6.25.15-12.5.32-18.75.52-1.48.05-2.95.27-4.43.42-2.57.27-5.14.66-7.71.8-2.94.16-5.89.14-8.84.11-5.6-.06-11.2-.21-16.8-.28-1.63-.02-3.27.14-4.91.19-2.83.09-5.66.07-8.49.24-3.18.19-6.34.61-9.52.79-2.59.15-5.19.12-7.78.11-4.63,0-9.26-.04-13.9-.1-2.16-.03-4.32-.14-6.49-.2-2.41-.07-4.82-.09-7.22-.23-2.42-.14-4.83-.42-7.25-.6-.95-.07-1.9-.01-2.86-.01.77,1.98,2.04,3.18,3.97,3.55,1.72.33,3.44.66,5.18.84,2.65.28,5.31.46,7.97.65,3.25.23,6.51.6,9.77.6,6.15,0,12.3-.21,18.44-.38,3.34-.09,6.69-.28,10.03-.43,1.36-.06,2.71-.11,4.07-.22,3.53-.27,7.05-.58,10.58-.83,2.74-.19,5.49-.29,8.24-.43,1.08-.06,2.16-.08,3.22-.23,2.27-.31,4.53-.75,6.81-1.01,3.2-.36,6.4-.69,9.62-.87,5.02-.28,10.05-.41,15.07-.63,2.4-.11,4.79-.25,7.18-.42,3.49-.25,6.98-.6,10.48-.78,3.01-.15,6.03-.05,9.05-.17,2.33-.09,4.65-.26,6.97-.53,1.25-.15,2.29-.83,3.03-2.16ZM61.26,169.76c0-.34.04-.55,0-.74-.81-3.53-1.63-7.06-2.46-10.59-.32-1.35-.77-2.53-2.08-3.38-1.8-1.17-3.47-2.55-5.09-3.96-1.24-1.08-2.32-2.34-3.58-3.63,1.02,9.46,5.24,16.87,13.21,22.3Zm121.66-9.03c.13.08.27.17.4.25,2.38-2.72,4.99-5.28,7.08-8.21,2.03-2.85,3.33-6.16,4.29-9.58-.92.87-1.69,1.84-2.52,2.77-1.43,1.61-2.89,3.19-4.35,4.78-.25.27-.65.44-.81.75-.87,1.76-2.23,3.04-3.61,4.05-.17,1.79-.32,3.49-.48,5.19Zm-23.04-88.52s-.01-.07-.03-.09c0,0-.05.01-.08.02,0,.03.01.07.03.09,0,0,.05-.01.08-.02Z"/><path class="cls-25" d="m68.04,74.7c-1.96,1.21-3.91,2.42-5.87,3.62-.08.06-.16.12-.24.17-.55.42-1.1.83-1.65,1.25-.12.08-.23.16-.35.24,0,0-.06.01-.06.01-.08.06-.16.11-.24.17-.06.07-.13.15-.19.22-.06.07-.12.14-.18.21,0,0-.03.03-.03.03-.14.06-.28.11-.42.17-.28.28-.57.56-.85.83-.12.08-.24.16-.36.23-.09.08-.18.16-.27.23-.05.06-.11.11-.16.17l-1.32,1.48c-.14.07-.27.15-.41.22-1.4.72-2.41.58-3.17-.83-1.56-2.89-3.1-5.82-4.38-8.84-1.06-2.5-1.71-5.17-2.58-7.75-.52-1.53-.28-2.97.59-4.23.45-.66,1.14-1.03,2.21-.96,2.73.17,5.25,1.11,7.85,1.71.26.06.54,0,.7,0v-2.71c0-.35,0-.69,0-1.04.08-1.44.08-2.88.27-4.3.35-2.65,3.09-4.29,5.69-3.35,1.57.57,3.1,1.31,4.58,2.11,1.68.9,3.28,1.94,4.98,2.96.3-.68.68-1.42.95-2.19.83-2.35,2.12-4.39,3.99-6.05,1.22-1.09,3.17-1.02,4.42.16,2.04,1.93,3.29,4.38,4.41,6.87,1.35,2.98,2.35,6.09,2.88,9.33.17,1.03.44,2.14.23,3.12-.14.65-1.04,1.16-1.66,1.66-.24.19-.65.18-.98.27-.14,0-.28,0-.42,0-1.55.07-3.1.14-4.64.21-.21.06-.43.11-.64.17-1.99.5-4.03.89-5.97,1.53-1.93.63-3.77,1.51-5.65,2.29-.21.09-.39.25-.58.38-.15.08-.3.15-.45.23Zm17.27-8.48c-1.01-6.03-3.76-12.69-6.15-14.66-.61.9-1.34,1.72-1.77,2.68-.8,1.78-1.44,3.64-2.11,5.48-.63,1.71-1.88,2.19-3.47,1.28-.21-.12-.41-.27-.62-.4-2.85-1.71-5.68-3.47-8.57-5.11-1.41-.8-1.86-.65-1.97.97-.19,2.7-.11,5.42-.01,8.12.04.95.14,1.83-.61,2.52-.73.67-1.58.57-2.46.25-1.09-.39-2.2-.72-3.31-1.02-1.74-.47-3.48-.9-5.44-1.41,1.06,5.43,3.37,10.09,5.53,14.67,2.93-2.09,5.72-4.22,8.63-6.14,5.15-3.38,10.77-5.69,16.84-6.81,1.8-.33,3.66-.3,5.51-.44Z"/><path class="cls-18" d="m247.18,112.63c-.84,0-1.68,0-2.53,0-1.83-.28-3.65-.56-5.48-.84.13-.14.24-.36.39-.4.94-.24,1.9-.43,2.84-.67,1.92-.49,3.63-1.35,5.12-2.72.75-.69,1.72-1.14,2.6-1.69,1.82,1.01,3.57,1.48,5-.62.61,1.12,1.21,2.24,1.82,3.36.06.2.11.4.17.6-.92.36-1.85.72-2.77,1.08-.84.35-1.69.7-2.53,1.05-1.55.28-3.09.56-4.64.85Z"/><path class="cls-1" d="m247.57,145.07c.78-.78,1.56-1.56,2.34-2.34-.21,1.25-1.11,2.16-2.34,2.34Z"/><path class="cls-1" d="m259.44,122.94c.07-.9.14-1.81.21-2.71-.07.9-.14,1.81-.21,2.71Z"/><path class="cls-1" d="m259.64,119.35l-.21-1.25c.07.42.14.83.21,1.25Z"/><path class="cls-1" d="m67.89,79.56c-.29.27-.58.53-.87.8-.04-.62.28-.85.87-.8Z"/><path class="cls-3" d="m237.58,175.59c.04-.48.07-.97.11-1.45-.04.48-.07.97-.11,1.45Z"/><path class="cls-1" d="m43.64,138.53l.18.84c-.06-.28-.12-.56-.18-.84Z"/><path class="cls-1" d="m50.6,98.08c-.14.29-.29.58-.43.87.14-.29.29-.58.43-.87Z"/><path class="cls-1" d="m240.85,150.96c.28-.24.57-.49.85-.73-.28.24-.57.49-.85.73Z"/><path class="cls-1" d="m64.29,189.08c.13.29.25.57.38.86-.13-.29-.25-.57-.38-.86Z"/><path class="cls-3" d="m258.8,125.68c.08-.35.16-.69.24-1.04-.08.35-.16.69-.24,1.04Z"/><path class="cls-12" d="m130.66,65.64c-.21,0-.42,0-.63,0,.21,0,.42,0,.63,0Z"/><path class="cls-3" d="m258.42,127.58c.07-.27.14-.55.2-.82-.07.27-.14.55-.2.82Z"/><path class="cls-1" d="m63.4,180.88c-.05.21-.1.43-.15.64.05-.21.1-.43.15-.64Z"/><path class="cls-3" d="m258.59,113.45c-.07-.28-.15-.55-.22-.83.07.28.15.55.22.83Z"/><path class="cls-3" d="m256.87,132.21c.09-.28.17-.56.26-.84.06,0,.11,0,.17,0,0,.14,0,.28,0,.42-.07.14-.14.28-.2.42-.07,0-.15,0-.22,0Z"/><path class="cls-1" d="m56.65,59.33c0,.35,0,.69,0,1.04,0-.35,0-.69,0-1.04Z"/><path class="cls-3" d="m256.46,133.27c.08-.28.16-.56.24-.84.06,0,.11,0,.17,0-.14.28-.27.56-.41.84Z"/><path class="cls-3" d="m256.1,133.9c.12-.21.24-.41.35-.62-.12.21-.24.41-.35.62Z"/><path class="cls-12" d="m127.71,65.68c-.28,0-.57-.01-.85-.02.28,0,.57.01.85.02Z"/><path class="cls-1" d="m257.09,132.21c.07-.14.14-.28.2-.42-.07.14-.14.28-.2.42Z"/><path class="cls-1" d="m64.07,187.64c.06.27.12.55.17.82-.06-.27-.12-.55-.17-.82Z"/><path class="cls-1" d="m85.99,69.89c.14,0,.28,0,.42,0-.07.1-.14.2-.21.3-.07-.1-.14-.2-.21-.3Z"/><path class="cls-1" d="m62.59,177.53c.06.27.11.55.17.82-.06-.27-.11-.55-.17-.82Z"/><path class="cls-3" d="m258.75,126.52c.02-.2.05-.41.07-.61-.02.2-.05.41-.07.61Z"/><path class="cls-1" d="m80.7,70.27c.21-.06.43-.11.64-.17-.21.06-.43.11-.64.17Z"/><path class="cls-1" d="m246.98,145.49c.14-.07.27-.13.41-.2-.14.07-.27.13-.41.2Z"/><path class="cls-1" d="m59.93,79.99c.12-.08.23-.16.35-.24l-.35.24Z"/><path class="cls-1" d="m259.24,116.2c-.02-.14-.04-.27-.06-.41.02.14.04.27.06.41Z"/><path class="cls-1" d="m72.92,76.8c-.07.05-.14.1-.21.15.07-.05.14-.1.21-.15Z"/><path class="cls-1" d="m259.47,117.88c.01-.13.03-.25.04-.38-.01.13-.03.25-.04.38Z"/><path class="cls-1" d="m58.81,80.81c.14-.06.28-.11.42-.17-.14.06-.28.11-.42.17Z"/><path class="cls-11" d="m46.17,105.49c-.08.13-.15.26-.23.39.08-.13.15-.26.23-.39Z"/><path class="cls-1" d="m63.23,182.14c.05.14.11.28.16.42-.05-.14-.11-.28-.16-.42Z"/><path class="cls-1" d="m40.69,125.88c.05.14.11.29.16.43-.05-.14-.11-.29-.16-.43Z"/><path class="cls-1" d="m240.63,151.8c.02-.14.04-.27.06-.41-.02.14-.04.27-.06.41Z"/><path class="cls-1" d="m57.6,81.88c.12-.08.24-.16.36-.23-.12.08-.24.16-.36.23Z"/><path class="cls-3" d="m258.06,129.23c.03-.11.06-.23.09-.34-.03.11-.06.23-.09.34Z"/><path class="cls-1" d="m68.04,74.7c.15-.08.3-.15.45-.23-.15.08-.3.15-.45.23Z"/><path class="cls-3" d="m257.62,130.5c.04-.12.07-.23.11-.35-.04.12-.07.23-.11.35Z"/><path class="cls-1" d="m55.44,83.97c.14-.07.27-.15.41-.22-.14.07-.27.15-.41.22Z"/><path class="cls-1" d="m80.72,73.23c-.14.05-.27.1-.41.16.14-.05.27-.1.41-.16Z"/><path class="cls-1" d="m42.74,136.02c0,.13,0,.27,0,.4,0-.13,0-.27,0-.4Z"/><path class="cls-3" d="m257.72,110.9c-.05-.12-.1-.25-.15-.37.05.12.1.25.15.37Z"/><path class="cls-1" d="m41.74,132.85c.06.14.11.28.17.41-.06-.14-.11-.28-.17-.41Z"/><path class="cls-3" d="m258.33,128.2c.01-.07.04-.13.1-.18-.03.06-.06.12-.1.18Z"/><path class="cls-1" d="m65.3,81.66c-.06.06-.11.11-.17.17.06-.06.11-.11.17-.17Z"/><path class="cls-3" d="m237.52,176.24c-.03-.07-.03-.13,0-.2.02.05.05.09.06.14,0,.01-.04.04-.07.06Z"/><path class="cls-1" d="m240.68,151.17c.06-.07.11-.15.17-.22-.06.07-.11.15-.17.22Z"/><path class="cls-1" d="m246.8,145.69c.06-.07.11-.13.17-.2-.06.07-.11.13-.17.2Z"/><path class="cls-1" d="m249.97,142.53c.05-.06.11-.12.16-.18-.05.06-.11.12-.16.18Z"/><path class="cls-1" d="m44.22,140.86c-.05.07-.1.15-.16.22.05-.07.1-.15.16-.22Z"/><path class="cls-1" d="m63.45,184.02c.05.08.11.15.16.23-.05-.08-.11-.15-.16-.23Z"/><path class="cls-1" d="m63.65,184.68c.03.06.06.12.09.17-.05-.05-.07-.11-.09-.17Z"/><path class="cls-1" d="m63.8,185.32c.05.06.05.13.02.2-.03-.05-.06-.09-.07-.14,0-.01.04-.04.06-.06Z"/><path class="cls-1" d="m44.05,140.22c.05.07.1.14.14.2-.05-.07-.1-.14-.14-.2Z"/><path class="cls-3" d="m253.49,138.74c.02-.07.04-.13.04-.2.02.05.04.11.04.16,0,0-.06.03-.09.04Z"/><path class="cls-3" d="m253.51,138.51c-.05-.03-.11-.05-.16-.08.05-.03.11-.05.16-.08,0,.05,0,.1,0,.16Z"/><path class="cls-12" d="m131.3,65.74c-.08-.01-.15-.02-.23-.03.08.01.15.02.23.03Z"/><path class="cls-3" d="m253.75,138.12c.06-.06.12-.11.18-.17-.06.06-.12.11-.18.17Z"/><path class="cls-3" d="m254.58,136.85c.06-.07.12-.14.18-.21-.06.07-.12.14-.18.21Z"/><path class="cls-3" d="m254.8,136.21c.05-.07.11-.14.16-.21-.05.07-.11.14-.16.21Z"/><path class="cls-3" d="m255.68,134.73c.05-.06.09-.12.14-.18-.05.06-.09.12-.14.18Z"/><path class="cls-1" d="m61.93,78.5c.08-.06.16-.12.24-.17-.08.06-.16.12-.24.17Z"/><path class="cls-1" d="m256.87,132.43c-.06,0-.11,0-.17,0,.06-.07.11-.14.17-.21,0,.07,0,.14,0,.21Z"/><path class="cls-1" d="m257.29,131.37c-.06,0-.11,0-.17,0,.06-.07.11-.14.17-.21,0,.07,0,.14,0,.21Z"/><path class="cls-1" d="m57.17,82.28c.05-.06.11-.11.16-.17-.05.06-.11.11-.16.17Z"/><path class="cls-1" d="m259.47,117.04c-.05-.06-.06-.13-.02-.2.03.04.06.09.08.13,0,.01-.03.04-.05.06Z"/><path class="cls-1" d="m259.18,115.79c-.06-.07-.11-.15-.17-.22.06.07.11.15.17.22Z"/><path class="cls-1" d="m59.63,80.17c.08-.06.16-.11.24-.17-.08.06-.16.11-.24.17Z"/><path class="cls-1" d="m59.26,80.61c.06-.07.12-.14.18-.21-.06.07-.12.14-.18.21Z"/><path class="cls-11" d="m44.68,108.41c-.06.07-.11.14-.17.21.06-.07.11-.14.17-.21Z"/><path class="cls-11" d="m46.59,104.66s-.03.09-.07.13c-.02-.02-.04-.04-.05-.05.04-.02.08-.05.12-.07Z"/><path class="cls-1" d="m62.35,84.19c-.06.06-.11.11-.17.17.06-.06.11-.11.17-.17Z"/><path class="cls-3" d="m257.77,129.68c.05-.07.1-.14.15-.21-.05.07-.1.14-.15.21Z"/><path class="cls-1" d="m240.64,152.04c-.05-.05-.1-.11-.15-.16.05-.03.1-.05.15-.08,0,.08,0,.16,0,.24Z"/><path class="cls-6" d="m247.6,90.5c1.32-2.06,2.57-4.15,3.99-6.14.32-.45,1.37-.86,1.75-.65.5.27.91,1.14.96,1.78.16,2.2-.59,4.26-1.24,6.33-.08.26-.15.51-.04.89.39-.44.77-.9,1.17-1.33.88-.95,1.73-1.93,2.66-2.83.58-.56,1.29-1.02,2.18-.64.89.38,1.03,1.14,1.01,2-.07,3.81-1.21,7.32-2.83,10.71-.4-.49-.8-.97-1.2-1.46,0-.08.01-.15.02-.23.6-1.97,1.24-3.92,1.77-5.9.24-.92.27-1.89.4-2.84-.16-.06-.32-.12-.48-.18-1.48,1.92-2.96,3.84-4.44,5.77-.06,0-.12,0-.18-.01-.85-.84-1.69-1.67-2.54-2.51,0-.07,0-.14,0-.21.94-2.1,1.54-4.29,1.9-6.55-.11-.05-.21-.09-.32-.14-1.02,1.81-2.04,3.62-3.06,5.43-.48-.36-.97-.72-1.45-1.08,0-.07,0-.14,0-.2Z"/><path class="cls-6" d="m232.85,81.89c0-.07,0-.14-.01-.21.26-.44.56-.86.77-1.33.9-2,1.81-4.01,2.65-6.04.46-1.11.8-2.28,1.21-3.41.22-.61.49-1.29,1.31-.99.81.3.61.91.34,1.57-1.03,2.55-2.03,5.12-3,7.69-.12.32-.03.72-.03,1.08.39-.06.84,0,1.15-.19,2.91-1.8,5.79-3.66,8.72-5.43.4-.24,1.38-.27,1.55-.03.4.59.1,1.22-.59,1.61-1.25.69-2.5,1.37-3.69,2.14-2.18,1.42-4.32,2.91-6.49,4.36-.23.16-.49.27-.73.41-.13,0-.27,0-.4,0-.91-.41-1.83-.83-2.74-1.24Z"/><path class="cls-2" d="m235.59,83.13c.13,0,.27,0,.4,0,1.3.78,2.6,1.56,3.89,2.35,1.24.76,2.47,1.53,3.71,2.3,0,.07,0,.14,0,.21-.57,1.26-1.13,2.53-1.7,3.79-1.75-1.08-3.5-2.16-5.25-3.24-.15-.11-.29-.23-.44-.34.05-.19.16-.38.14-.56-.24-1.51-.5-3.01-.76-4.51Z"/><path class="cls-6" d="m243.6,87.98c0-.07,0-.14,0-.21.54-1.01,1.08-2.01,1.6-3.02.25-.49.42-1.04.69-1.52.28-.49.54-1.16,1.33-.77.79.39.7,1.03.39,1.69-.64,1.36-1.29,2.71-1.92,4.08-.11.25-.14.53-.21.8-.07,0-.13,0-.2,0-.56-.35-1.12-.7-1.68-1.05Z"/><path class="cls-2" d="m245.28,89.03c.07,0,.13,0,.2,0,.71.49,1.41.98,2.12,1.47,0,.07,0,.14,0,.2-.28.42-.58.83-.84,1.26-.47.78-.93,1.57-1.39,2.36-.66-.43-1.32-.87-1.99-1.3-.01-.06-.02-.12-.03-.19.2-.27.46-.51.6-.8.46-.99.89-2.01,1.32-3.01Z"/><path class="cls-1" d="m256.01,99.17c.4.49.8.97,1.2,1.46.03.21.05.42.08.62-.55,1.04-1.1,2.08-1.67,3.1-.18.32-.43.6-.65.9-.35-.56-.7-1.13-1.05-1.69.7-1.47,1.4-2.93,2.09-4.4Z"/><path class="cls-6" d="m249.42,78.15c.23.36.71.77.64,1.05-.09.37-.57.83-.94.9-.23.04-.82-.55-.83-.87-.01-.36.44-.74.69-1.11.14.01.29.02.43.03Z"/><path class="cls-18" d="m221.48,84.55c.14-1.02.28-2.05.42-3.07,2.01.83,4.03,1.65,6.04,2.5,1.11.47,2.21,1,3.31,1.5.04.07.08.14.12.21-.35.96-.71,1.92-1.06,2.88-.06.01-.13.02-.19.04-2.88-1.33-5.76-2.65-8.64-3.98v-.07Z"/><path class="cls-1" d="m231.36,85.69c-.04-.07-.08-.14-.12-.21.54-1.2,1.07-2.39,1.61-3.59.91.41,1.83.83,2.74,1.24.26,1.5.52,3,.76,4.51.03.17-.09.37-.14.56-.64-.33-1.27-.67-1.91-1-.07-.08-.15-.16-.22-.23-.06-.64-.12-1.29-.18-1.93-.07,0-.15,0-.22,0-.14.49-.28.98-.42,1.47-.64-.27-1.27-.54-1.91-.81Z"/><path class="cls-14" d="m253.92,103.57c.35.56.7,1.13,1.05,1.69.05.14.11.29.16.43-1.44,2.1-3.19,1.63-5,.62,0-.07,0-.13,0-.2.22-.5.43-1.01.65-1.51.33.1.68.15.98.31.81.43,1.38.28,1.7-.61.09-.26.19-.52.29-.78.06.02.12.03.18.05Z"/><path class="cls-3" d="m65.61,176.48c1.76.5,3.43,1.11,5.16,1.43,2.27.41,4.57.73,6.87.83,2.51.1,5.04.03,7.53-.2,4.63-.44,9.18-1.44,13.31-3.64,2.44-1.3,4.64-3.05,6.89-4.68,2.68-1.94,4.68-4.54,6.41-7.3,2-3.17,3.36-6.64,4.14-10.34.57-2.71,1.21-5.4,1.04-8.2,0-.14-.04-.34.03-.41,1.38-1.3,2.55-2.91,4.61-3.23,1.56-.24,3.07-.16,4.55.55.83.4,1.2.98,1.33,1.83.65,4.34,2.62,8.13,5.05,11.69,2.9,4.25,6.56,7.71,10.88,10.56,4.31,2.84,8.82,5.22,13.91,6.12,2.7.48,5.53.35,8.29.32,1.73-.02,3.51-.18,5.16-.64,2.47-.69,4.85-1.71,7.26-2.59.31-.11.61-.26,1.08-.46-.08,1.48-.13,2.79-.22,4.09-.11,1.49-.3,2.97-.41,4.46-.16,2.18-.28,4.36-.43,6.55-.21,3.05-.36,6.11-.65,9.15-.26,2.75-.67,5.49-1.04,8.23-.25,1.88-.54,3.76-.85,5.64-.43,2.64-1.48,4.61-4.55,4.98-3.49.42-6.94,1.31-10.44,1.62-3.61.33-7.27.21-10.9.29-.03,0-.07-.01-.1-.01-4.2-.07-8.4-.3-12.6-.17-3.59.11-7.16.64-10.73,1-1.31.13-2.61.36-3.91.42-5.51.24-11.03.51-16.54.63-6.87.15-13.74.26-20.6.19-3.49-.04-6.98-.46-10.46-.83-2.07-.22-2.62-2.04-2.99-3.65-.96-4.13-1.76-8.31-2.57-12.47-.66-3.4-1.31-6.81-1.87-10.22-.43-2.65-.72-5.32-1.08-7.99-.16-1.15-.36-2.29-.57-3.54Zm55.42,9.88c-1.13.01-1.76.68-1.75,1.87,0,1.2.86,2.14,1.92,2.13.97-.01,1.87-.92,1.87-1.87,0-1.05-1.05-2.14-2.04-2.13Z"/><path class="cls-3" d="m197.61,123.2c-.18-.26-.41-.49-.52-.77-1.2-3.09-3.26-5.63-5.29-8.19-1.85-2.32-4-4.36-6.45-6-4.15-2.79-8.36-5.48-13.27-6.83-3.72-1.02-7.51-1.53-11.31-1.14-2.72.27-5.38,1.14-8.06,1.78-1.69.4-3.4.78-5.03,1.35-.84.3-1.53,1.01-2.18,1.46-.76.05-1.59-.06-2.29.19-4.14,1.5-7.14,4.43-9.76,7.85-2.67,3.49-4.44,7.42-5.44,11.66-.43,1.83-.52,3.76-.7,5.64-.22,2.38-.36,4.78-.55,7.3-3.45-.77-6.86-.8-9.96,1.53-.54-4.07-1.46-7.9-3.04-11.52-1.07-2.45-2.54-4.67-4.29-6.73-3.6-4.21-8.17-7.06-13.06-9.43-4.32-2.09-8.89-3.57-13.63-4.4-1.7-.3-3.42-.42-5.13-.65-.64-.09-1.26-.37-1.9-.4-3.24-.16-6.24.8-9.18,2.02-4.9,2.04-9.33,4.79-12.93,8.74-1.95,2.14-3.58,4.5-4.94,7.08-1.36,2.59-2.38,5.3-3.17,8.1-.11.39-.21.79-.4,1.49-.25-1.06-.53-1.84-.61-2.64-.26-2.51-.62-5.03-.61-7.55,0-2.78.59-5.51,1.49-8.18,1.87-5.57,4.81-10.55,8.03-15.41,3.07-4.64,6.51-8.98,10.55-12.79,2.96-2.79,6.33-5.07,9.93-7,6.28-3.38,12.99-5.58,19.88-7.28,1.54-.38,2.86-1.05,4.27-1.7,1.64-.75,3.45-1.2,5.24-1.53,6.03-1.13,12.13-.65,18.21-.65,3.64,0,7.29,0,10.91.26,5.72.42,11.41,1.09,16.86,3.08,4.72,1.72,9.49,3.29,14.16,5.15,2.58,1.03,5.04,2.42,7.46,3.82,2.51,1.46,4.96,3.05,7.33,4.74,2.92,2.1,5.62,4.47,7.92,7.26,1.77,2.14,3.71,4.16,5.3,6.43,2.65,3.79,4.54,7.99,5.55,12.52.82,3.69,1.13,7.44.65,11.32Zm-138.3-24.62c.21.29.38.74.68.87.25.11.71-.11.99-.31.27-.19.44-.53.66-.8,1.69-2.05,3.23-4.24,5.09-6.11,3.19-3.19,6.77-5.95,10.7-8.21,1.24-.71,2.46-1.47,3.64-2.28.27-.19.31-.7.45-1.06-.27-.08-.6-.31-.81-.23-1.83.74-3.79,1.3-5.41,2.37-2.69,1.79-5.21,3.87-7.71,5.93-3.07,2.52-5.64,5.52-7.88,8.81-.17.25-.23.57-.41,1.02Z"/><path class="cls-1" d="m234.31,199.45c-.06-.22-.22-.45-.18-.65.5-2.79,1.03-5.57,1.56-8.43,1.53.15,3.01.24,4.48.45,3.02.44,6.08.76,9.05,1.47,4.01.96,7.97,2.17,11.92,3.39,3.21.99,6.29,2.37,8.77,4.64,2.6,2.37,4.57,5.2,4.45,8.98-.09,2.89-1.26,5.36-3.02,7.6-1.82,2.32-4.49,3.29-7.04,4.39-3.63,1.56-7.29,3.04-11.03,4.32-2.45.84-5.04,1.29-7.59,1.83-3.76.8-7.53,1.56-11.31,2.28-2.53.48-5.08.89-7.62,1.3-2.31.37-4.63.76-6.95,1.03-1.96.23-3.94.39-5.92.44-7.98.18-15.96.21-23.94.47-4.08.14-8.15.67-12.22,1.01-2.73.23-5.46.55-8.19.61-5.95.15-11.9.21-17.85.22-3.49,0-6.99-.25-10.48-.26-2.58,0-5.16.15-7.74.29-3.26.18-6.53.32-9.78.64-6.68.66-13.36.33-20.05.31-5.31-.02-10.63-.14-15.93-.36-3.74-.15-7.47-.54-11.2-.82-2.83-.21-5.67-.43-8.5-.63-3.08-.22-6.18-.29-9.24-.66-6.43-.79-12.77-2.09-18.94-4.11-2.91-.96-5.8-2.04-8.61-3.26-2.72-1.18-5.24-2.78-7.32-4.91-1.79-1.82-3.44-3.82-3.43-6.6,0-1.95.88-3.64,1.91-5.22,2.2-3.37,5.15-5.95,8.68-7.81,1.94-1.02,3.99-1.93,6.08-2.57,3.19-.98,6.45-1.75,9.72-2.47,2.26-.5,4.58-.79,6.87-1.15,2.75-.43,5.49-.88,8.25-1.24,1-.13,2.03-.02,3.11-.02.5,2.62.99,5.2,1.48,7.78-.99.15-2,.2-2.95.48-1.95.57-3.89,1.22-5.79,1.94-1.12.43-2.17,1.06-3.25,1.59-.06.06-.12.12-.18.18-.5.28-1.04.52-1.5.85-1.44,1.03-3.01,1.95-4.24,3.19-1.75,1.78-2.57,4.03-1.82,6.54.57,1.91,1.96,3.25,3.55,4.41,2.8,2.04,5.98,3.1,9.32,3.85,3.56.8,7.15,1.26,10.79,1.42,3.7.16,7.39.49,11.08.6,4.87.15,9.74.19,14.61.22,11.47.09,22.95.16,34.42.2,4.06.01,8.13-.12,12.2-.18,4.34-.07,8.69-.15,13.03-.22.11,0,.21,0,.32,0,3.41-.21,6.83-.4,10.24-.64,1.19-.08,2.34.2,3.57-.13,1.29-.34,2.71-.23,4.07-.25,5.19-.09,10.38-.1,15.56-.25,3.27-.1,6.55-.3,9.81-.63,3.97-.4,7.94-.89,11.89-1.49,2.83-.43,5.62-1.09,8.42-1.67,1.32-.27,2.63-.6,3.95-.9.64-.15,1.3-.25,1.93-.43,1.52-.44,2.99-1.09,4.54-1.34,1.4-.22,2.7-.76,4.02-1.12,3.22-.88,6.37-2.06,9.44-3.36,2.82-1.2,4.82-3.32,5.6-6.39.33-1.32.43-2.69-.71-3.67-.9-.78-1.91-1.49-2.98-2.01-1.87-.93-3.67-2.22-5.96-1.86-.09.01-.23-.02-.28-.09-.69-.96-1.65-.37-2.5-.44-.26-.02-.54.06-.78-.02-.57-.18-1.13-.42-1.69-.64Z"/><path class="cls-3" d="m113.39,143.61c.05,5.36-1.16,10.47-3.5,15.24-1.09,2.22-2.81,4.14-4.33,6.13-1.76,2.29-4.12,3.94-6.53,5.42-2.75,1.7-5.75,2.87-8.97,3.6-3.12.7-6.23,1.08-9.41,1.21-4.66.19-9.16-.46-13.49-2.2-.29-.11-.57-.24-.87-.31-1.47-.35-1.55-1.56-1.8-2.74-.87-4.08-1.82-8.14-2.71-12.22-.4-1.82-.93-3.55-2.51-4.72-1.24-.92-2.54-1.76-3.78-2.68-2.21-1.64-4.12-3.57-5.55-5.96-.28-.47-.55-.96-.91-1.36-1.44-1.6-1.34-3.5-.95-5.38.54-2.61,1.12-5.22,1.89-7.77,1.06-3.47,2.91-6.6,5.16-9.4,3.4-4.25,7.82-7.18,12.87-9.21,2.44-.98,4.91-1.84,7.55-1.77,1.5.04,3,.41,4.5.61,3.64.49,7.16,1.49,10.59,2.75,5.61,2.07,10.73,4.94,15.02,9.21,3.54,3.52,5.59,7.82,6.61,12.6.63,2.93.93,5.93,1.37,8.89-.09.02-.18.03-.27.05Zm-25.09,1.43c-.03,1.26.67,1.81,1.72,1.9.93.08,1.84-.91,1.86-1.86.03-1.1-.61-1.68-1.85-1.7-1.26-.01-1.72.43-1.73,1.66Z"/><path class="cls-3" d="m164.01,168.46c-4.83-.03-9.1-.75-12.99-2.82-3.41-1.82-6.74-3.8-9.7-6.38-3.62-3.14-6.36-6.9-8.46-11.12-1.45-2.91-2.23-6.06-2.2-9.35.01-1.58-.06-3.16.01-4.74.2-4.16.5-8.3,2.02-12.27,1.17-3.06,2.83-5.76,4.93-8.26,1.73-2.05,3.8-3.58,6.13-4.81.79-.42,1.87-.36,2.27-1.41.03-.08.28-.16.37-.12,1.11.55,1.94-.22,2.89-.54,1.71-.57,3.49-.96,5.23-1.46,2.89-.84,5.83-1.39,8.84-1.38,5.63.03,10.82,1.6,15.59,4.6,3.34,2.11,6.7,4.18,9.3,7.24,2.98,3.5,5.69,7.18,6.91,11.7.46,1.7.8,3.46.99,5.21.25,2.26-.89,4.2-2.14,5.86-2.71,3.61-5.66,7.04-8.53,10.53-1.3,1.58-2.88,2.98-3.92,4.71-.85,1.41-1.2,3.17-1.55,4.82-.31,1.44-.28,2.96-.48,4.43-.05.37-.34.82-.65,1.04-3.33,2.4-7.17,3.53-11.14,4.28-1.36.25-2.77.19-3.73.25Zm-12.22-27.42c-1.06,0-1.9.83-1.92,1.92-.02,1,.84,1.92,1.78,1.9.88-.02,1.97-1.17,1.97-2.09,0-.96-.81-1.73-1.84-1.73Z"/><path class="cls-1" d="m66.99,204.48c.36,1.63.65,3.28,1.11,4.88.47,1.63,1.03,3.24,1.68,4.8.91,2.22,2.83,3.13,5.05,3.35,3.11.3,6.22.54,9.34.63,4.97.15,9.94.21,14.91.22,4.2,0,8.4-.09,12.6-.21,2.71-.08,5.43-.16,8.13-.44,3.8-.39,7.58-.96,11.37-1.43,1-.12,2-.18,3.01-.22,2.13-.09,4.26-.24,6.38-.2,4.4.08,8.79.41,13.18.36,3.46-.04,6.93-.4,10.37-.81,2.85-.34,5.67-.94,8.5-1.46.67-.12,1.41-.27,1.96-.63.99-.65,2.06-.73,3.16-.74,6.46-.05,12.92-.01,19.37-.12,3.73-.07,7.46-.44,11.2-.52,2.15-.05,4.31.29,6.47.29,1.55,0,3.12-.14,4.65-.41,2.68-.46,5.36-.99,8.01-1.63,2.76-.67,4.58-2.49,5.61-5.1.29-.74.46-1.53.68-2.3.34.07.68.13,1.02.21,1.81.4,3.72-.06,5.48.65,1.75.7,3.5,1.39,5.19,2.21.77.37,1.04,1.03.64,2.02-.78,1.94-2.24,3.17-4.03,3.92-2.56,1.07-5.2,1.98-7.86,2.77-3.84,1.14-7.71,2.23-11.62,3.13-4.96,1.14-9.97,2.08-14.97,3.06-1.64.32-3.3.58-4.96.75-2.12.22-4.24.32-6.37.46-3.03.21-6.05.47-9.09.59-3.32.14-6.65.14-9.98.21-2.9.07-5.81.12-8.71.23-2.9.11-5.79.28-8.69.41-3.11.15-6.21.41-9.32.4-17.54-.02-35.09-.08-52.63-.2-7.36-.05-14.71-.24-22.07-.42-2.37-.06-4.74-.27-7.11-.4-3.71-.21-7.37-.73-10.88-1.94-1.93-.66-3.86-1.5-5.57-2.6-2.87-1.84-3.22-4.41-.94-6.51,1.43-1.31,3.04-2.51,4.77-3.39,1.8-.91,3.64-1.8,5.66-2.27,1.79-.42,3.53-1.08,5.29-1.63Z"/><path class="cls-8" d="m180.42,192.26c.13-1.06.3-2.11.38-3.18.19-2.45.34-4.9.5-7.35.32-.1.73-.11.95-.32,2.25-2.09,4.81-3.41,7.95-3.5,3.51-.1,7.03-.49,10.52-.34,3.99.17,7.99.62,11.94,1.26,4.6.76,9.33,1.29,13.2,4.35.81.64,2.03,1.06,2.42,1.89.5,1.06,2.05,1.95,1.06,3.5-.02.03.05.12.07.19.22.76.49,1.51.64,2.28.06.29-.14.63-.26.94-.23.58-.66,1.13-.7,1.72-.05.8-.35,1.36-1.08,1.45-1.04.12-1.68.9-1.94,1.59-.62,1.65-1.95,2.17-3.37,2.45-1.84.36-3.73.61-5.6.64-6.05.08-12.09.08-18.11-.79-3.42-.5-6.8-1.1-10.08-2.26-1.73-.61-3.49-1.1-5.25-1.61-.93-.27-1.68-.68-1.88-1.74-.14-.75-.58-1.18-1.38-1.16Z"/><path class="cls-20" d="m66.99,204.48c-1.76.55-3.5,1.21-5.29,1.63-2.02.47-3.86,1.36-5.66,2.27-1.72.88-3.34,2.07-4.77,3.39-2.28,2.1-1.93,4.67.94,6.51,1.71,1.1,3.64,1.94,5.57,2.6,3.51,1.2,7.18,1.73,10.88,1.94,2.37.13,4.74.34,7.11.4,7.35.18,14.71.37,22.07.42,17.54.12,35.09.17,52.63.2,3.11,0,6.21-.26,9.32-.4,2.9-.14,5.79-.3,8.69-.41,2.9-.11,5.81-.17,8.71-.23,3.33-.07,6.66-.08,9.98-.21,3.03-.13,6.06-.39,9.09-.59,2.12-.14,4.25-.24,6.37-.46,1.66-.17,3.32-.43,4.96-.75,5-.98,10-1.93,14.97-3.06,3.91-.9,7.77-1.99,11.62-3.13,2.66-.79,5.3-1.7,7.86-2.77,1.78-.75,3.25-1.98,4.03-3.92.4-.99.13-1.65-.64-2.02-1.69-.82-3.44-1.52-5.19-2.21-1.76-.7-3.67-.25-5.48-.65-.34-.08-.68-.14-1.02-.21-.32-1.21.12-2.28.58-3.35.56.22,1.12.46,1.69.64.24.07.52,0,.78.02.84.08,1.81-.52,2.5.44.05.07.19.1.28.09,2.29-.37,4.09.93,5.96,1.86,1.07.53,2.08,1.23,2.98,2.01,1.14.99,1.05,2.35.71,3.67-.78,3.07-2.78,5.19-5.6,6.39-3.08,1.3-6.23,2.49-9.44,3.36-1.33.36-2.63.9-4.02,1.12-1.54.25-3.02.89-4.54,1.34-.63.18-1.29.29-1.93.43-1.32.3-2.63.63-3.95.9-2.8.58-5.59,1.24-8.42,1.67-3.95.6-7.92,1.09-11.89,1.49-3.26.33-6.54.53-9.81.63-5.18.15-10.37.16-15.56.25-1.36.02-2.78-.09-4.07.25-1.23.33-2.39.05-3.57.13-3.41.24-6.83.43-10.24.64-.11,0-.21,0-.32,0-4.34.07-8.69.15-13.03.22-4.07.07-8.13.19-12.2.18-11.47-.03-22.95-.11-34.42-.2-4.87-.04-9.74-.08-14.61-.22-3.7-.11-7.39-.44-11.08-.6-3.64-.16-7.23-.62-10.79-1.42-3.34-.75-6.52-1.81-9.32-3.85-1.59-1.16-2.98-2.5-3.55-4.41-.75-2.51.07-4.77,1.82-6.54,1.23-1.25,2.8-2.16,4.24-3.19.46-.33,1-.57,1.5-.85.06-.06.12-.12.18-.18,1.08-.54,2.13-1.17,3.25-1.59,1.9-.72,3.84-1.36,5.79-1.94.95-.28,1.97-.33,2.95-.48.14.92.28,1.83.42,2.75Z"/><path class="cls-7" d="m180.42,192.26c.8-.01,1.24.41,1.38,1.16.19,1.06.94,1.47,1.88,1.74,1.76.51,3.53,1,5.25,1.61,3.27,1.16,6.65,1.76,10.08,2.26,6.02.87,12.06.88,18.11.79,1.87-.03,3.76-.28,5.6-.64,1.42-.28,2.75-.8,3.37-2.45.26-.69.9-1.47,1.94-1.59.73-.08,1.03-.64,1.08-1.45.04-.58.47-1.14.7-1.72.12-.3.32-.65.26-.94-.15-.77-.42-1.52-.64-2.28-.02-.07-.09-.16-.07-.19.99-1.55-.56-2.44-1.06-3.5-.39-.82-1.6-1.24-2.42-1.89-3.87-3.06-8.6-3.59-13.2-4.35-3.94-.65-7.95-1.09-11.94-1.26-3.5-.15-7.02.23-10.52.34-3.14.09-5.7,1.41-7.95,3.5-.22.21-.63.22-.95.32.13-2.04.25-4.07.38-6.11,2.74-.63,5.37-1.62,8.26-1.77,3.32-.17,6.61-.5,9.93-.14,3.85.41,7.72.6,11.55,1.1,3.76.49,7.51,1.13,11.22,1.92,3.74.79,7.36,2,10.42,4.44.15.12.39.1.6.15-.28,2.17-.52,4.34-.84,6.5-.3,2.05-.76,4.08-.97,6.13-.28,2.76-1.14,5.42-1.46,8.16-.15,1.36-.5,2.57-1.32,3.66-.38.06-.78.05-1.12.2-2.92,1.3-6.05,1.42-9.13,1.43-3.37,0-6.75-.36-10.12-.59-1.91-.13-3.82-.25-5.73-.46-2.59-.29-5.17-.65-7.75-1.01-3.06-.44-6.14-.82-9.17-1.41-2.25-.44-4.44-1.16-6.66-1.75.34-3.3.68-6.6,1.03-9.9Z"/><path class="cls-10" d="m247.18,112.63c1.55-.28,3.09-.56,4.64-.85-.6.65-1.1,1.46-1.83,1.92-1.02.64-2.22,1-3.32,1.52-1.5.69-2.93,1.64-4.5,2.07-2,.55-4.1.77-6.17,1.01-2.12.24-4.26.33-6.56.5.35.63.63,1.14.95,1.71-.53.1-.88.17-1.39.26.5.57.89,1.03,1.34,1.54-.31.17-.56.3-.95.51,1.76,1.42,3.39,2.78,5.07,4.08,3.07,2.38,5.52,5.31,7.63,8.56.45.69,1.09,1.24,1.62,1.88.42.51.81,1.06,1.21,1.59-.06.1-.12.19-.18.29h-2.78c-.06,1.86,1.72,2.01,2.48,3.02.16.21.97-.06,1.49-.11-1.4,1.33-2.81,2.67-4.21,4-.56-.18-1.15-.3-1.69-.54-1.15-.5-2.3-1.02-3.4-1.62-1.18-.64-2.31-1.37-3.45-2.09-.13-.08-.22-.27-.29-.42-.54-1.13-1.07-2.27-1.61-3.41-.43-.91-.01-1.58,1.02-1.62.5-.02,1.01,0,1.52,0,0-.24,0-.31,0-.38-.22-1.83-1.61-3.04-2.43-4.56-.43-.79-.97-1.55-1.57-2.21-4.14-4.49-9.26-7.67-14.64-10.37-4.8-2.41-9.83-4.35-14.75-6.5-.44-1.57-.74-3.2-1.35-4.71-1.05-2.62-2.27-5.16-3.43-7.74-.22-.49-.48-.97-.77-1.53.29-.06.48-.16.61-.11,1.73.65,3.49,1.24,5.17,1.99,1.91.86,3.83,1.75,5.62,2.83,3.04,1.85,6.03,3.81,8.96,5.83,2.56,1.76,5.31,3.08,8.17,4.26,3.09,1.27,6.3,2.04,9.59,2.51.41.06.84.03,1.26,0,.71-.05,1.41-.11,2.11-.19,2.45-.28,4.93-.45,7.35-.9,1.12-.21,2.15-.97,3.2-1.51.15-.08.19-.35.28-.53Z"/><path class="cls-28" d="m199.35,141.49c.21-2.53.66-5.07.57-7.59-.1-2.72.77-5.28.85-7.94.09-3.04.18-6.08.26-9.12.48.1.99.12,1.42.31,3.99,1.76,8.09,3.34,11.93,5.39,4.04,2.16,7.79,4.79,10.25,8.88.6,1,.49,1.97.26,2.89-.07.28-1.22.3-1.88.43-.14.03-.28.03-.42,0-1.17-.23-1.71.25-2.07,1.4-.49,1.54.15,3.87,1.27,4.32,2,.81,4.03,1.53,6.04,2.29,3.76,1.41,7.53,2.81,11.28,4.25.23.09.32.53.48.8-.83.61-1.77,1.13-1.9,2.32-4.84-1.33-9.64-2.82-14.52-3.96-5.28-1.23-10.63-2.16-15.95-3.2-2.62-.51-5.26-.99-7.89-1.48Z"/><path class="cls-1" d="m226.19,234.75c-.75,1.33-1.79,2.01-3.03,2.16-2.31.27-4.64.45-6.97.53-3.01.11-6.04.02-9.05.17-3.5.17-6.98.53-10.48.78-2.39.17-4.79.32-7.18.42-5.02.22-10.05.35-15.07.63-3.21.18-6.42.51-9.62.87-2.28.26-4.54.7-6.81,1.01-1.07.14-2.15.17-3.22.23-2.75.15-5.49.25-8.24.43-3.53.24-7.05.56-10.58.83-1.35.1-2.71.16-4.07.22-3.34.15-6.69.33-10.03.43-6.15.17-12.3.38-18.44.38-3.26,0-6.51-.37-9.77-.6-2.66-.19-5.32-.36-7.97-.65-1.74-.19-3.46-.51-5.18-.84-1.94-.37-3.2-1.58-3.97-3.55.96,0,1.92-.06,2.86.01,2.42.17,4.83.46,7.25.6,2.4.14,4.81.15,7.22.23,2.16.07,4.32.18,6.49.2,4.63.06,9.26.09,13.9.1,2.6,0,5.2.03,7.78-.11,3.18-.18,6.34-.6,9.52-.79,2.82-.17,5.66-.15,8.49-.24,1.64-.05,3.27-.21,4.91-.19,5.6.07,11.2.22,16.8.28,2.95.03,5.9.05,8.84-.11,2.58-.14,5.14-.53,7.71-.8,1.47-.15,2.95-.37,4.43-.42,6.25-.21,12.5-.38,18.75-.52,3.4-.08,6.81,0,10.2-.15,2.58-.12,5.14-.53,7.72-.8,1.58-.16,3.16-.29,4.74-.44.64-.06,1.27-.16,2.09-.27Z"/><path class="cls-22" d="m234.91,170.99c-.27,2.32-.55,4.63-.82,6.95-.2-.05-.43-.04-.6-.14-2.34-1.45-4.92-2.31-7.57-2.97-7.18-1.79-14.52-2.58-21.88-3.17-3.9-.32-7.82-.41-11.73-.41-1.9,0-3.8.39-5.69.66-1.58.22-3.15.52-4.73.78.14-2.11.28-4.21.42-6.32.73-.07,1.45-.16,2.18-.21,1.98-.16,3.96-.37,5.95-.44,3.15-.11,6.3-.25,9.45-.14,3.02.11,6.04.49,9.05.79,2.22.22,4.44.43,6.64.75,2.76.4,5.49.91,8.24,1.35,3.75.6,7.51,1.15,11.09,2.54Z"/><path class="cls-9" d="m239.59,147.81c-.16-.28-.25-.71-.48-.8-3.75-1.44-7.52-2.84-11.28-4.25-2.02-.76-4.05-1.48-6.04-2.29-1.12-.45-1.75-2.78-1.27-4.32.36-1.15.91-1.63,2.07-1.4.14.03.28.03.42,0,.66-.13,1.81-.15,1.88-.43.23-.92.34-1.89-.26-2.89-2.45-4.1-6.21-6.73-10.25-8.88-3.84-2.05-7.94-3.63-11.93-5.39-.43-.19-.95-.21-1.42-.31-.21-1.47-.42-2.95-.63-4.42,4.93,2.15,9.95,4.09,14.75,6.5,5.38,2.7,10.5,5.88,14.64,10.37.61.66,1.15,1.42,1.57,2.21.82,1.51,2.21,2.73,2.43,4.56,0,.07,0,.13,0,.38-.51,0-1.01-.02-1.52,0-1.03.04-1.45.71-1.02,1.62.54,1.14,1.07,2.27,1.61,3.41.07.15.16.34.29.42,1.14.71,2.27,1.44,3.45,2.09,1.1.6,2.25,1.11,3.4,1.62.54.24,1.12.36,1.69.54-.7.56-1.4,1.12-2.11,1.69Z"/><path class="cls-27" d="m245.92,142.12c-.51.05-1.33.33-1.49.11-.76-1.01-2.54-1.16-2.48-3.02h2.78c.06-.1.12-.19.18-.29-.4-.53-.79-1.08-1.21-1.59-.53-.64-1.17-1.2-1.62-1.88-2.11-3.24-4.56-6.17-7.63-8.56-1.68-1.3-3.31-2.66-5.07-4.08.39-.21.64-.34.95-.51-.44-.51-.84-.97-1.34-1.54.51-.1.86-.16,1.39-.26-.32-.57-.6-1.08-.95-1.71,2.3-.17,4.44-.26,6.56-.5,2.07-.24,4.17-.46,6.17-1.01,1.57-.43,3-1.38,4.5-2.07,1.11-.51,2.3-.87,3.32-1.52.73-.46,1.23-1.27,1.83-1.92.84-.35,1.69-.7,2.53-1.05.14.42.28.84.42,1.26-.33.08-.74.06-.97.26-1.64,1.39-3.24,2.8-5,4.06-.83.59-1.55,1.18-2.56,1.4-.4.09-.79.36-1.12.63-.4.33-.66.87-1.1,1.09-.7.35-1.49.52-2.24.77.07.07.14.13.21.2-.47.5-.94,1-1.41,1.5.1.51-.09.97-.16,1.45-.04.27.05.68.23.83,3.37,2.88,6.77,5.73,10.15,8.59.62.53,1.25.91,2.08.49-1.58,3.53-4.09,6.33-6.95,8.85Z"/><path class="cls-11" d="m199.35,141.49c2.63.49,5.26.96,7.89,1.48,5.32,1.04,10.67,1.97,15.95,3.2,4.88,1.14,9.68,2.63,14.52,3.96-.21,1.48-.42,2.95-.63,4.43-2.27-.54-4.53-1.12-6.81-1.6-4.06-.84-8.12-1.68-12.2-2.4-3.39-.6-6.8-1.08-10.22-1.49-3.59-.43-7.21-.71-10.81-1.05.34-.9.7-1.8,1.02-2.71.45-1.27.87-2.54,1.3-3.81Z"/><path class="cls-17" d="m161.21,72.81l-.63-.31s.01-.07.02-.11c.91.1,1.81.2,2.72.31.14.02.28.1.41.09,2.13-.26,4.12.75,6.24.63.65-.04,1.33.28,1.99.44.21.38.32.9.64,1.12,2.2,1.54,4.35,3.19,6.69,4.47,3.62,1.98,7.37,3.74,11.1,5.5,3.22,1.52,6.51,2.87,9.73,4.38,2.09.98,4.17,2.01,6.17,3.17,2.53,1.47,4.95,3.14,7.45,4.66,3.28,2,6.58,3.97,9.91,5.87,1.18.67,2.5,1.1,3.76,1.64.05-.08.11-.15.16-.23-.28-.5-.55-1-.83-1.5.08-.05.18-.16.25-.15,2.52.67,5.03,1.36,7.55,2.04-.08.8.29,1.16,1.09,1.33,1.2.25,2.37.65,3.55.98-.2.14-.38.38-.6.41-2.39.35-4.76.27-7.11-.34-.12-.03-.26,0-.45,0,.11.34.19.61.31,1-.46-.03-.82,0-1.13-.1-1.55-.53-3.21-.9-4.62-1.7-5.38-3.05-10.65-6.3-16.03-9.37-3.61-2.06-7.25-4.08-11.01-5.83-4.12-1.91-8.39-3.5-12.61-5.2-1.12-.45-2.29-.81-3.44-1.2-.87-.63-1.75-1.23-2.6-1.88-3.51-2.74-7.38-4.88-11.34-6.87-1.83-.92-3.72-1.74-5.6-2.57-.4-.18-.88-.19-1.32-.27-.14-.14-.29-.27-.43-.41Z"/><path class="cls-26" d="m252.87,133.27c-.83.41-1.46.03-2.08-.49-3.38-2.87-6.78-5.71-10.15-8.59-.19-.16-.27-.57-.23-.83.06-.48.25-.94.16-1.45.47-.5.94-1,1.41-1.5-.07-.07-.14-.13-.21-.2.75-.25,1.54-.41,2.24-.77.44-.22.7-.76,1.1-1.09.33-.27.72-.54,1.12-.63,1.01-.22,1.72-.81,2.56-1.4,1.76-1.26,3.36-2.67,5-4.06.23-.2.65-.18.97-.26,1.27,2.96,1.93,6.06,1.66,9.27-.29,3.48-1.09,6.86-2.58,10.05-.31.66-.65,1.31-.98,1.96Z"/><path class="cls-12" d="m181.23,74.52c1.04.54,2.29-.07,3.35.72.48.36,1.39.09,2.09.2,1.57.25,3.13.57,4.7.86.24.04.54.17.71.07,1.08-.58,1.89-.13,2.64.61.47.56.85,1.23,1.42,1.66.77.58,1.71.91,2.51,1.44,1.61,1.07,3.19,2.19,4.78,3.31,2.96,2.09,5.92,4.17,8.88,6.27,2.44,1.73,4.85,3.52,7.33,5.2,1.11.75,2.35,1.31,3.53,1.96.14.21.28.42.42.64.63,1.33,1.26,2.67,1.9,4-.39-.13-.81-.2-1.18-.39-5.13-2.65-9.82-6.01-14.63-9.17-4.15-2.73-8.51-5.07-13.05-7.08-5.19-2.3-10.26-4.8-14.55-8.6-.44-.39-.57-1.12-.84-1.7Z"/><path class="cls-11" d="m239.17,111.78c1.83.28,3.65.56,5.48.84-.57.35-1.09.87-1.7,1.01-1.55.38-3.14.76-4.72.81-1.65.05-3.32-.33-4.98-.46-4.34-.33-8.23-2.11-12.13-3.81-1.78-.77-3.41-1.9-5.09-2.89-3.64-2.15-7.17-4.5-10.92-6.42-3.49-1.79-6.83-3.97-10.73-4.9-1.43-.34-2.44-1.27-3.33-2.41-.81-1.05-1.78-1.97-2.66-2.97-.25-.28-.42-.62-.63-.93.22,0,.46-.09.65-.01,3.83,1.52,7.78,2.81,11.45,4.66,4.96,2.5,9.7,5.42,14.52,8.17,3.22,1.83,6.37,3.81,9.67,5.48,3.02,1.53,6.22,2.63,9.65,3.02,1.83.21,3.78-.31,5.48.8Z"/><path class="cls-15" d="m223.16,96.82c-1.18-.65-2.42-1.21-3.53-1.96-2.48-1.68-4.88-3.47-7.33-5.2-2.95-2.1-5.91-4.19-8.88-6.27-1.58-1.11-3.16-2.24-4.78-3.31-.8-.53-1.75-.87-2.51-1.44-.57-.43-.95-1.1-1.42-1.66,1.36.26,2.71.53,4.09.12.09-.03.22,0,.29.05,1.7,1.32,3.81,1.45,5.78,1.99,1.64.45,3.27.94,4.92,1.32,2.26.52,4.39,1.4,6.55,2.21,1.71.64,3.42,1.26,5.13,1.89,0,0,0,.07,0,.07,0,1.22-.05,2.45.02,3.67.06,1.02.26,2.03.41,3.05.42,1.82.84,3.65,1.26,5.47Z"/><path class="cls-16" d="m239.17,111.78c-1.7-1.11-3.65-.59-5.48-.8-3.43-.39-6.63-1.49-9.65-3.02-3.3-1.67-6.45-3.65-9.67-5.48-4.83-2.75-9.57-5.68-14.52-8.17-3.67-1.85-7.62-3.14-11.45-4.66-.18-.07-.43,0-.65.01-1.76-1.62-3.51-3.23-5.27-4.85,1.15.4,2.31.75,3.44,1.2,4.22,1.7,8.49,3.29,12.61,5.2,3.76,1.75,7.4,3.77,11.01,5.83,5.38,3.06,10.65,6.32,16.03,9.37,1.41.8,3.06,1.17,4.62,1.7.31.11.68.06,1.13.1-.12-.39-.2-.66-.31-1,.19,0,.33-.03.45,0,2.35.61,4.72.69,7.11.34.22-.03.4-.27.6-.41.78.18,1.56.33,2.33.53,1.11.28,2.2.67,3.32.85.37.06.82-.41,1.24-.64-.24-.37-.41-.82-.73-1.09-.27-.22-.72-.21-1.09-.31.23-.32.45-.64.69-.94.25-.31.52-.61.78-.91.42.14.83.29,1.25.43.14.2.27.41.41.61.21.16.43.33.64.49.03.64.39.66.84.42.24-.13.44-.33.65-.5.21,0,.41.02.62.03,0,.07,0,.13,0,.2-.87.56-1.85,1.01-2.6,1.69-1.49,1.36-3.2,2.22-5.12,2.72-.94.24-1.9.42-2.84.67-.15.04-.26.26-.39.4Z"/><path class="cls-14" d="m181.23,74.52c.27.57.4,1.31.84,1.7,4.29,3.8,9.35,6.29,14.55,8.6,4.53,2.01,8.9,4.36,13.05,7.08,4.81,3.16,9.5,6.52,14.63,9.17.36.19.78.26,1.18.39.42.49.84.99,1.27,1.48.28.5.55,1,.83,1.5-.05.08-.11.15-.16.23-1.26-.54-2.58-.96-3.76-1.64-3.34-1.9-6.63-3.88-9.91-5.87-2.5-1.52-4.92-3.19-7.45-4.66-1.99-1.16-4.07-2.19-6.17-3.17-3.22-1.5-6.52-2.86-9.73-4.38-3.73-1.76-7.48-3.52-11.1-5.5-2.35-1.28-4.49-2.93-6.69-4.47-.32-.22-.43-.74-.64-1.12.73.06,1.45.15,2.18.18.48.02,1.01.04,1.44-.13.62-.25,1-.3,1.54.27.32.33,1.09.27,1.67.3.81.05,1.63.03,2.44.04Z"/><path class="cls-23" d="m179.39,202.16c2.22.59,4.41,1.32,6.66,1.75,3.03.59,6.11.97,9.17,1.41,2.58.37,5.16.72,7.75,1.01,1.9.21,3.82.33,5.73.46,3.37.23,6.75.59,10.12.59,3.08,0,6.21-.12,9.13-1.43.34-.15.75-.14,1.12-.2-1.14,1.35-2.78,1.75-4.38,2.07-2.62.52-5.27.91-7.92,1.25-.95.12-1.95-.12-2.92-.14-2.25-.03-4.49-.05-6.74-.02-2.62.04-5.24.14-7.86.2-2.87.07-5.74.15-8.6.21-3.85.07-7.7.13-11.55.19-.38,0-.76,0-1.1,0,.1-1.12-.1-2.28.35-3.09.53-.96.62-1.94.87-2.91.11-.44.12-.9.17-1.35Z"/><path class="cls-19" d="m236.21,161.72c-.21,1.05-.43,2.11-.64,3.16-1.54-.25-3.09-.48-4.63-.75-3.29-.58-6.56-1.25-9.86-1.76-3.02-.46-6.07-.76-9.11-1.11-3.04-.35-6.07-.8-9.12-.98-3.56-.21-7.13-.18-10.7-.24-.56-.01-1.12.03-1.68-.01-.29-.02-.56-.17-.85-.26.92-1.18,1.84-2.36,2.76-3.54.18.08.37.21.55.22,3.24.15,6.49.27,9.73.44,1.95.1,3.9.21,5.84.45,3.59.43,7.17.92,10.75,1.45,3.78.56,7.56,1.17,11.33,1.82,1.88.32,3.75.75,5.62,1.13Z"/><path class="cls-21" d="m189.63,159.75c.28.09.56.24.85.26.56.04,1.12,0,1.68.01,3.57.07,7.14.03,10.7.24,3.05.18,6.08.63,9.12.98,3.04.35,6.09.65,9.11,1.11,3.3.5,6.57,1.18,9.86,1.76,1.54.27,3.09.5,4.63.75-.14,1.12-.28,2.25-.43,3.37-.2-.06-.4-.14-.6-.18-4.44-.85-8.88-1.74-13.34-2.52-2.29-.4-4.62-.63-6.94-.88-1.73-.19-3.47-.31-5.21-.46-2.98-.27-5.96-.6-8.95-.79-1.96-.13-3.93-.06-5.89-.07-2.06-.01-4.11.01-6.17-.02-.74-.01-1.57.5-2.2-.32.86-.75,1.71-1.51,2.57-2.26.39-.34.79-.66,1.19-.99Z"/><path class="cls-23" d="m181.89,172.67c1.58-.26,3.15-.56,4.73-.78,1.89-.27,3.8-.66,5.69-.66,3.91,0,7.83.1,11.73.41,7.35.6,14.69,1.38,21.88,3.17,2.64.66,5.23,1.52,7.57,2.97.17.1.4.1.6.14-.14,1.12-.28,2.25-.43,3.37-.2-.05-.45-.03-.6-.15-3.07-2.44-6.68-3.65-10.42-4.44-3.71-.79-7.46-1.43-11.22-1.92-3.83-.5-7.7-.69-11.55-1.1-3.33-.35-6.61-.03-9.93.14-2.89.15-5.52,1.15-8.26,1.77.01-.99-.55-2.01.21-2.95Z"/><path class="cls-14" d="m236.21,161.72c-1.87-.38-3.74-.81-5.62-1.13-3.77-.64-7.55-1.25-11.33-1.82-3.58-.53-7.16-1.02-10.75-1.45-1.94-.23-3.89-.34-5.84-.45-3.24-.17-6.49-.29-9.73-.44-.19,0-.37-.14-.55-.22.56-.91,1.12-1.81,1.69-2.72,1.43.07,2.86.14,4.29.22,2.51.14,5.03.19,7.53.45,3.74.4,7.47.9,11.18,1.45,4.2.63,8.39,1.34,12.57,2.06,2.27.39,4.52.87,6.78,1.3-.07.91-.14,1.83-.21,2.74Z"/><path class="cls-13" d="m185.86,163c.63.82,1.46.31,2.2.32,2.06.03,4.11,0,6.17.02,1.96.01,3.93-.05,5.89.07,2.99.19,5.96.52,8.95.79,1.74.16,3.47.27,5.21.46,2.32.26,4.64.48,6.94.88,4.46.78,8.89,1.67,13.34,2.52.2.04.4.12.6.18-.08.91-.16,1.83-.23,2.74-3.57-1.39-7.33-1.94-11.09-2.54-2.75-.44-5.49-.95-8.24-1.35-2.2-.32-4.42-.53-6.64-.75-3.02-.3-6.03-.68-9.05-.79-3.14-.11-6.3.03-9.45.14-1.98.07-3.96.28-5.95.44-.73.06-1.46.14-2.18.21.05-.19.04-.44.16-.55.76-.74,1.56-1.46,2.34-2.19.48.4.57.36.84-.43.07-.06.14-.12.21-.18Z"/><path class="cls-16" d="m197.03,148.01c3.6.34,7.22.62,10.81,1.05,3.42.41,6.83.9,10.22,1.49,4.08.72,8.14,1.56,12.2,2.4,2.28.47,4.54,1.06,6.81,1.6-.07.7-.15,1.41-.22,2.11-.38-.05-.76-.06-1.13-.15-5.56-1.29-11.17-2.31-16.83-3.01-3.83-.48-7.64-1.07-11.48-1.48-3.94-.43-7.9-.7-11.85-1.05.49-.98.99-1.97,1.48-2.95Z"/><path class="cls-1" d="m61.26,169.76c-7.97-5.43-12.19-12.84-13.21-22.3,1.26,1.29,2.34,2.55,3.58,3.63,1.62,1.41,3.29,2.8,5.09,3.96,1.31.85,1.76,2.03,2.08,3.38.83,3.53,1.65,7.06,2.46,10.59.04.19,0,.4,0,.74Z"/><path class="cls-17" d="m195.55,150.96c3.95.34,7.91.62,11.85,1.05,3.83.42,7.65,1.01,11.48,1.48,5.67.71,11.27,1.73,16.83,3.01.37.09.76.1,1.13.15-.14.77-.28,1.54-.42,2.32-2.26-.44-4.51-.91-6.78-1.3-4.19-.72-8.37-1.44-12.57-2.06-3.72-.56-7.45-1.05-11.18-1.45-2.5-.27-5.02-.31-7.53-.45-1.43-.08-2.86-.15-4.29-.22.49-.84.99-1.68,1.48-2.53Z"/><path class="cls-15" d="m182.93,160.73c.16-1.7.32-3.4.48-5.19,1.38-1.01,2.74-2.29,3.61-4.05.15-.31.56-.48.81-.75,1.46-1.59,2.92-3.17,4.35-4.78.82-.92,1.6-1.89,2.52-2.77-.95,3.42-2.26,6.73-4.29,9.58-2.09,2.93-4.7,5.49-7.08,8.21-.13-.08-.27-.17-.4-.25Z"/><path class="cls-21" d="m185.65,163.18c-.27.79-.36.84-.84.43.28-.14.56-.29.84-.43Z"/><path class="cls-25" d="m161.21,72.81c.14.14.29.27.43.41-.14-.14-.29-.27-.43-.41Z"/><path class="cls-25" d="m159.89,72.21s-.07.03-.08.02c-.02-.02-.02-.06-.03-.09.03,0,.07-.03.08-.02.02.02.02.06.03.09Z"/><path class="cls-29" d="m85.31,66.22c-1.84.14-3.71.11-5.51.44-6.07,1.11-11.69,3.43-16.84,6.81-2.92,1.92-5.7,4.04-8.63,6.14-2.16-4.58-4.47-9.25-5.53-14.67,1.96.51,3.71.94,5.44,1.41,1.11.3,2.22.63,3.31,1.02.89.32,1.73.42,2.46-.25.75-.68.65-1.57.61-2.52-.1-2.71-.17-5.43.01-8.12.11-1.62.56-1.78,1.97-.97,2.89,1.65,5.72,3.4,8.57,5.11.21.13.41.27.62.4,1.58.91,2.84.43,3.47-1.28.67-1.84,1.31-3.7,2.11-5.48.43-.96,1.16-1.78,1.77-2.68,2.4,1.97,5.15,8.63,6.15,14.66Z"/><path class="cls-2" d="m253.92,103.57c-.06-.01-.12-.03-.18-.05-1.04-1.33-2.09-2.67-3.13-4-.04-.11-.09-.22-.13-.32.87-1.14,1.74-2.29,2.61-3.43.06,0,.12.01.18.01.92,1.05,1.84,2.11,2.76,3.16,0,.08-.01.15-.02.23-.7,1.47-1.4,2.93-2.09,4.4Z"/><path class="cls-4" d="m256.03,98.94c-.92-1.05-1.84-2.11-2.76-3.16,1.48-1.92,2.96-3.84,4.43-5.77.16.06.32.12.48.18-.12.95-.15,1.93-.4,2.84-.53,1.98-1.17,3.94-1.77,5.9Z"/><path class="cls-1" d="m253.09,95.76c-.87,1.14-1.74,2.29-2.61,3.43-.47-.51-.94-1.01-1.42-1.52.06-.3.09-.62.19-.9.42-1.18.86-2.35,1.3-3.52.85.84,1.69,1.67,2.54,2.51Z"/><path class="cls-2" d="m250.55,93.26c-.43,1.17-.88,2.34-1.3,3.52-.1.29-.13.6-.19.9-.06,0-.12-.02-.18-.04-.57-.55-1.14-1.1-1.71-1.65,0-.06,0-.12,0-.18.64-1.28,1.28-2.55,1.92-3.83.48.36.97.71,1.45,1.07,0,.07,0,.14,0,.21Z"/><path class="cls-1" d="m249.09,91.98c-.64,1.28-1.28,2.55-1.92,3.83-.57-.42-1.13-.85-1.7-1.27-.03-.07-.06-.14-.1-.21.46-.79.92-1.58,1.39-2.36.26-.43.56-.84.84-1.26.48.36.97.72,1.45,1.08.01.06.03.13.03.19Z"/><path class="cls-4" d="m249.09,91.98c0-.06-.02-.13-.03-.19,1.02-1.81,2.04-3.62,3.06-5.43.11.05.21.09.32.14-.36,2.26-.96,4.45-1.9,6.55-.48-.36-.97-.71-1.45-1.07Z"/><path class="cls-18" d="m236.65,88.54c1.75,1.08,3.5,2.16,5.25,3.24,0,.06.02.11.03.17-.43.91-.86,1.83-1.29,2.74-1.17-.71-2.35-1.43-3.52-2.14-.01-.05-.03-.11-.05-.16-.14-1.29-.28-2.57-.42-3.86Z"/><path class="cls-1" d="m241.93,91.95c-.01-.06-.02-.11-.03-.17.57-1.26,1.13-2.53,1.7-3.79.56.35,1.12.7,1.68,1.05-.44,1.01-.86,2.02-1.32,3.01-.14.3-.4.54-.6.8-.48-.3-.95-.6-1.43-.89Z"/><path class="cls-14" d="m236.65,88.54c.14,1.29.28,2.57.42,3.86-.63-.36-1.26-.72-1.89-1.07-.15-.12-.3-.24-.46-.36.05-.21.16-.44.13-.64-.16-1.05-.36-2.08-.54-3.13.64.33,1.27.67,1.91,1,.15.11.29.23.44.34Z"/><path class="cls-18" d="m245.38,94.33c.03.07.06.14.1.21-.4,1.08-1.19,2.07-.82,3.34-.84-.7-1.69-1.41-2.53-2.11.42-.91.85-1.83,1.27-2.74.66.43,1.32.87,1.99,1.3Z"/><path class="cls-14" d="m243.39,93.03c-.42.91-.85,1.83-1.27,2.74-.07,0-.13,0-.2,0-.43-.36-.86-.72-1.29-1.08.43-.91.86-1.83,1.29-2.74.48.3.95.6,1.43.89.01.06.02.12.03.19Z"/><path class="cls-22" d="m221.9,91.34c-.14-1.02-.35-2.03-.41-3.05-.07-1.22-.02-2.45-.02-3.67,2.88,1.33,5.76,2.65,8.64,3.98-.04.17-.08.34-.14.5-.41,1.2-.55,1.23-1.55.46-.3-.23-.64-.48-.99-.54-.37-.06-.78.09-1.17.14.15.37.19.89.47,1.07.65.45,1.41.75,2.12,1.1-.42,1.12-.84,2.25-1.26,3.37-1.41-.88-2.82-1.77-4.24-2.64-.46-.28-.97-.49-1.45-.73Z"/><path class="cls-7" d="m228.85,91.34c-.71-.36-1.47-.65-2.12-1.1-.27-.19-.32-.71-.47-1.07.39-.06.8-.21,1.17-.14.35.06.69.31.99.54,1,.77,1.14.74,1.55-.46.06-.16.09-.34.14-.5.06-.01.13-.03.19-.04.55.24,1.09.48,1.64.73.03.12.07.24.1.36-.15.52-.55,1.4-.4,1.5,1.12.78,2.34,1.41,3.54,2.09.07.14.14.28.21.41v1.27c-.47-.22-.95-.4-1.4-.65-1.08-.6-2.15-1.23-3.22-1.84-.01-.07-.02-.14-.02-.21.1-.43.4-.98.24-1.25-.2-.34-.78-.53-1.23-.59-.13-.02-.35.63-.53.97-.12,0-.25,0-.37,0Z"/><path class="cls-14" d="m231.94,89.29c-.55-.24-1.09-.48-1.64-.73.35-.96.71-1.92,1.06-2.88.64.27,1.27.54,1.91.81,0,.06.02.13.04.19-.46.87-.92,1.73-1.37,2.6Z"/><path class="cls-18" d="m231.94,89.29c.46-.87.92-1.73,1.37-2.6.26.09.52.18.78.27.07.08.15.16.22.23.18,1.04.38,2.08.54,3.13.03.2-.08.43-.13.64-.9-.44-1.79-.88-2.69-1.32-.03-.12-.07-.24-.1-.36Z"/><path class="cls-2" d="m234.09,86.96c-.26-.09-.52-.18-.78-.27-.02-.06-.03-.12-.04-.19.14-.49.28-.98.42-1.47.07,0,.15,0,.22,0,.06.64.12,1.29.18,1.93Z"/><path class="cls-18" d="m250.61,99.52c1.04,1.33,2.09,2.67,3.13,4-.1.26-.19.52-.29.78-.32.9-.88,1.05-1.7.61-.3-.16-.65-.21-.98-.31-.21-.14-.42-.28-.64-.42-.18-.35-.33-.72-.55-1.04-.5-.72-1.04-1.41-1.56-2.11.94.17,1.6-.22,2.09-1.01.12-.2.33-.34.5-.51Z"/><path class="cls-12" d="m250.14,104.18c.21.14.42.28.64.42-.22.5-.43,1-.65,1.51-.21,0-.41-.02-.62-.03-.15-.07-.29-.14-.44-.21.09-.73-.24-1.28-.92-1.4-.28-.05-.65.38-.99.59-.07,0-.13,0-.2,0-.42-.14-.83-.29-1.25-.43-.43-.2-.86-.41-1.29-.61.31-.27.6-.55.92-.8.24-.19.52-.34.78-.51.07,0,.14,0,.22,0,1.27.49,2.53.97,3.8,1.46Z"/><path class="cls-25" d="m121.03,186.36c1,0,2.04,1.08,2.04,2.13,0,.95-.91,1.86-1.87,1.87-1.06.01-1.91-.93-1.92-2.13,0-1.19.62-1.86,1.75-1.87Z"/><path class="cls-1" d="m59.31,98.58c.17-.45.24-.77.41-1.02,2.24-3.28,4.81-6.28,7.88-8.81,2.51-2.06,5.02-4.14,7.71-5.93,1.62-1.08,3.58-1.63,5.41-2.37.2-.08.53.15.81.23-.14.36-.18.88-.45,1.06-1.18.81-2.4,1.57-3.64,2.28-3.93,2.26-7.51,5.02-10.7,8.21-1.87,1.87-3.41,4.06-5.09,6.11-.22.27-.39.61-.66.8-.28.19-.74.41-.99.31-.31-.13-.47-.58-.68-.87Z"/><path class="cls-1" d="m54.57,205.75c-.06.06-.12.12-.18.18.06-.06.12-.12.18-.18Z"/><path class="cls-25" d="m88.3,145.04c0-1.23.47-1.67,1.73-1.66,1.24.01,1.88.6,1.85,1.7-.02.96-.93,1.95-1.86,1.86-1.05-.09-1.75-.65-1.72-1.9Z"/><path class="cls-25" d="m151.79,141.03c1.02,0,1.84.77,1.84,1.73,0,.92-1.09,2.07-1.97,2.09-.94.02-1.81-.91-1.78-1.9.02-1.09.86-1.92,1.92-1.92Z"/><path class="cls-19" d="m226.74,102.94c-.42-.49-.84-.99-1.27-1.48-.63-1.33-1.26-2.67-1.9-4,.39.13.79.23,1.17.38,1.1.43,2.19.87,3.28,1.31-.05,1.44.15,1.59,1.55,1.7,1.31.1,2.62.28,3.91.53,1.97.39,3.92.89,5.88,1.34.64.22,1.27.43,1.91.65-.33.23-.65.5-1,.7-.5.28-1.03.52-1.54.78-.5-.11-1-.28-1.5-.32-.91-.07-1.93-.88-2.7.31-2.51-.68-5.03-1.37-7.55-2.04-.07-.02-.17.09-.25.15Z"/><path class="cls-15" d="m234.54,104.83c.77-1.2,1.79-.39,2.7-.31.51.04,1,.21,1.5.32.35.14.68.3,1.04.41,1.48.43,2.97.84,4.45,1.25.37.09.82.09,1.09.31.32.26.5.72.73,1.09-.41.23-.87.7-1.24.64-1.12-.18-2.21-.57-3.32-.85-.77-.2-1.55-.36-2.33-.53-1.18-.33-2.35-.73-3.55-.98-.79-.17-1.16-.53-1.09-1.33Z"/><path class="cls-13" d="m228.03,99.14c-1.09-.44-2.18-.88-3.28-1.31-.38-.15-.78-.25-1.17-.38-.14-.21-.28-.42-.42-.64-.42-1.82-.84-3.65-1.26-5.47.49.24.99.45,1.45.73,1.42.86,2.83,1.76,4.24,2.64.28.42.56.84.84,1.26.41-.32.95-.55,1.19-.97.47-.81.78-1.72,1.15-2.58,1.07.62,2.14,1.24,3.22,1.84.45.25.93.44,1.4.65.08.2.16.41.23.61.24.62.35,1.35.77,1.79.18.19.99-.2,1.68-.37.38.23.97.53,1.5.93.48.36.87.83,1.3,1.25-.23-.07-.46-.12-.68-.22-1.03-.47-2.84.07-3.55,1.08-1.57-.26-3.13-.58-4.71-.74-1.29-.13-2.6-.07-3.9-.1Z"/><path class="cls-17" d="m244.24,106.49c-1.49-.42-2.97-.82-4.45-1.25-.36-.1-.69-.27-1.04-.41.51-.26,1.04-.5,1.54-.78.35-.2.67-.46,1-.7,1.05.22,2.1.45,3.14.67.43.2.86.41,1.29.61-.26.3-.53.6-.78.91-.24.3-.46.63-.69.94Z"/><path class="cls-23" d="m247.16,105.06c.33-.21.7-.64.99-.59.69.12,1.01.67.92,1.4-.35.1-.7.2-1.05.3-.21-.16-.43-.33-.64-.49-.07-.21-.14-.41-.22-.62Z"/><path class="cls-17" d="m248.01,106.17c.35-.1.7-.2,1.05-.3.15.07.29.14.44.21-.22.17-.41.37-.65.5-.45.24-.81.23-.84-.42Z"/><path class="cls-17" d="m247.16,105.06c.07.21.14.41.22.62-.14-.2-.27-.41-.41-.61.06-.01.13-.01.2,0Z"/><path class="cls-14" d="m250.61,99.52c-.17.17-.38.31-.5.51-.49.79-1.15,1.17-2.09,1.01,0,0,0,0,0,0-.07-.07-.14-.14-.21-.21,0,0,0,0,0,0,.35-1.06.71-2.12,1.06-3.19.06.02.12.03.18.04.47.51.94,1.01,1.42,1.52.04.11.09.22.13.32Z"/><path class="cls-18" d="m248.88,97.64c-.35,1.06-.71,2.12-1.06,3.19-.7-.63-1.41-1.26-2.11-1.89-.21-.28-.42-.56-.63-.84.83.09,1.27-.28,1.48-1.08.1-.37.41-.68.62-1.02.57.55,1.14,1.1,1.71,1.65Z"/><path class="cls-14" d="m247.17,95.99c-.21.34-.52.65-.62,1.02-.21.8-.65,1.18-1.48,1.08,0,0,0,0,0,0-.14-.07-.29-.14-.43-.22h0c-.37-1.27.42-2.25.82-3.34.57.42,1.13.85,1.7,1.27,0,.06,0,.12,0,.18Z"/><path class="cls-13" d="m240.64,94.69c.43.36.86.72,1.29,1.08-.06.12-.1.32-.2.34-1.1.32-.69.85-.15,1.31,1.43,1.22,2.89,2.41,4.34,3.61h0c.21.22.41.43.62.64,0,.14,0,.28,0,.42-1.37.16-2.35-.74-3.46-1.28-.17-.08-.23-.4-.34-.61.51.21,1.02.42,1.54.63.06-.08.13-.16.19-.24-.15-.23-.26-.52-.47-.69-1.09-.92-2.17-1.85-3.32-2.69-1.02-.75-2.12-1.4-3.18-2.09-.01-.06-.03-.13-.04-.19-.12-.79-.24-1.59-.35-2.38,1.17.71,2.35,1.43,3.52,2.14Z"/><path class="cls-23" d="m237.12,92.55c.12.79.24,1.59.35,2.38-.7-.43-1.39-.85-2.09-1.28-.07-.14-.14-.28-.21-.41,0-.64,0-1.28.01-1.92.63.36,1.26.72,1.89,1.07.02.05.04.11.05.16Z"/><path class="cls-22" d="m235.18,91.32c0,.64,0,1.28-.01,1.92-1.19-.68-2.42-1.31-3.54-2.09-.15-.1.25-.98.4-1.5.9.44,1.79.88,2.69,1.32.15.12.3.24.46.36Z"/><path class="cls-19" d="m245.92,101.03c-1.45-1.2-2.91-2.39-4.34-3.61-.54-.46-.95-.98.15-1.31.09-.03.13-.23.2-.34.07,0,.13,0,.2,0,.84.7,1.69,1.41,2.53,2.11,0,0,0,0,0,0,.14.07.29.14.43.22,0,0,0,0,0,0,.21.28.42.56.63.84.07.7.15,1.4.22,2.1Z"/><path class="cls-23" d="m230.77,92.43c-.37.87-.68,1.77-1.15,2.58-.24.41-.79.65-1.19.97-.28-.42-.56-.84-.84-1.26.42-1.12.84-2.25,1.26-3.37.12,0,.25,0,.38,0,.51.29,1.01.58,1.52.87,0,.07,0,.14.02.21Z"/><path class="cls-6" d="m235.38,93.65c.7.43,1.4.85,2.09,1.28.01.06.02.13.04.19-.03.4-.06.79-.1,1.28-.69-.34-1.25-.6-1.8-.87-.08-.2-.16-.41-.23-.61,0-.42,0-.85,0-1.27Z"/><path class="cls-6" d="m230.74,92.22c-.51-.29-1.01-.58-1.52-.87.18-.34.4-.98.53-.97.44.06,1.02.25,1.23.59.16.27-.14.83-.24,1.25Z"/><path class="cls-17" d="m245.92,101.03c-.07-.7-.15-1.4-.22-2.1.7.63,1.41,1.26,2.11,1.89,0,0,0,0,0,0,.07.07.14.14.21.21,0,0,0,0,0,0,.52.7,1.06,1.39,1.56,2.11.22.32.37.69.55,1.04-1.27-.49-2.53-.97-3.8-1.46.07-.21.14-.42.2-.63,0-.14,0-.28,0-.42-.21-.21-.41-.43-.62-.64h0Z"/><path class="cls-19" d="m246.55,102.09c-.07.21-.14.42-.2.63-.07,0-.14,0-.22,0-1.82-.5-3.64-.99-5.47-1.49-1.34-.42-2.68-.83-4.02-1.25.71-1.01,2.52-1.55,3.55-1.08.21.1.45.15.68.22.07,0,.13,0,.2.01.49.35.99.7,1.48,1.05.07,0,.13,0,.2.01.11.21.17.52.34.61,1.11.55,2.09,1.44,3.46,1.28Z"/><path class="cls-15" d="m240.66,101.23c1.82.5,3.64.99,5.47,1.49-.26.17-.54.32-.78.51-.32.25-.62.53-.92.8-1.05-.22-2.1-.45-3.14-.67-.64-.22-1.27-.43-1.91-.65.43-.49.86-.98,1.29-1.48Z"/><path class="cls-23" d="m240.66,101.23c-.43.49-.86.99-1.29,1.48-1.96-.45-3.91-.94-5.88-1.34-1.29-.26-2.6-.44-3.91-.53-1.41-.1-1.6-.25-1.55-1.7,1.3.03,2.61-.04,3.9.1,1.58.16,3.14.49,4.71.74,1.34.42,2.68.83,4.02,1.25Z"/><path class="cls-23" d="m241.07,99.14c-.07,0-.13,0-.2-.01-.43-.42-.83-.89-1.3-1.25-.52-.4-1.12-.7-1.5-.93-.69.17-1.5.56-1.68.37-.42-.44-.54-1.18-.77-1.79.56.27,1.11.54,1.8.87.04-.49.07-.89.1-1.28,1.06.69,2.16,1.34,3.18,2.09,1.15.85,2.23,1.78,3.32,2.69.2.17.31.46.47.69-.06.08-.13.16-.19.24-.51-.21-1.02-.42-1.54-.63-.07,0-.13,0-.2-.01-.49-.35-.99-.7-1.48-1.05Z"/><path class="cls-18" d="m248.03,101.04c-.07-.07-.14-.14-.21-.21.07.07.14.14.21.21Z"/><path class="cls-18" d="m245.07,98.09c-.14-.07-.29-.14-.43-.22.14.07.29.14.43.22Z"/><path class="cls-19" d="m245.92,101.03c.21.21.41.43.62.64-.21-.21-.41-.43-.62-.64Z"/><path class="cls-13" d="m241.07,99.14c.49.35.98.7,1.48,1.05-.49-.35-.98-.7-1.48-1.05Z"/></g></svg>