<?xml version="1.0" encoding="UTF-8"?><svg id="_레이어_2" xmlns="http://www.w3.org/2000/svg" viewBox="0 0 294.82 294.82"><defs><style>.cls-1{fill:#040402;}.cls-2{fill:#030506;}.cls-3{fill:#f2fefd;}.cls-4{fill:#989898;}.cls-5{fill:#d2d99a;}.cls-6{fill:#d0d99d;}.cls-7{fill:#dd9a24;}.cls-8{fill:#da9a2a;}.cls-9{fill:#0f9b87;}.cls-10{fill:#0a0602;}.cls-11{fill:#3f403d;}.cls-12{fill:#2e4470;}.cls-13{fill:#2e446e;}</style></defs><g id="_레이어_1-2"><rect class="cls-4" width="294.82" height="294.82"/><path class="cls-1" d="m162.59,160.79s-.07.1-.11.13c.04-.02.09-.07.12-.13h-.01Zm-14.23,41.73s-.01-.02-.01-.02c-.02-1.25-.05-2.5-.07-3.75.02,1.25.05,2.5.06,3.75h0s.02.02.02.02Zm-63-47.63c-.02.07-.06.15-.1.21.04-.06.07-.13.11-.21v-.02s-.01.01-.01.02Z"/><path class="cls-9" d="m210.59,142.39c-.01,1.01-.02,1.98-1.18,2.49-.62.28-1.18.7-1.76,1.07-4.07-.25-8.08.53-12.12.69-1.57.06-3.28-.04-4.77.77-2.5.52-5.08.58-7.54,1.3-5.77.3-10.66,2.48-14.52,6.85-.24.17-.55.32-.46.7l-.12-.02-.05.12c-.1.1-.19.19-.29.29l-.07.04.05.07c-.1.35-.19.7-.3,1.06-.4.72-.81,1.45-1.23,2.16-1.21.23-2.34.9-3.62.81h-.01c-.18-.11-.34-.22-.51-.33.45-.5.76-1.1.84-1.72.24-2.1.81-4.08,2.04-5.83.62-.89.28-1.2-.62-1.54-2.13-.8-4.24-1.59-6.42-2.23-4.09-1.21-8.23-2.03-12.51-2.34-1.59-.11-3.19-.05-4.77-.28-3-.44-6.02-.69-9.03-.83-4.81-.23-9.58.29-14.38.78-4.52.45-8.91,1.18-13.22,2.59h-.01c-.78-.08-1.47.22-2.17.45-5.36,1.68-10.35,4.19-15.34,6.7-.39.06-.76.12-1.14.18-.02-.42-.05-.85-.07-1.29.04-.06.07-.13.1-.21h.01l.1-.02v-.1c.25-.33.5-.66.75-.98,1.27-1.03,2.62-2,3.83-3.13.51-.47,1.48-.44,1.57-1.38,2.78-2.31,6.34-3.02,9.61-4.03,4.91-1.52,10.03-2.48,15.19-2.93,2.7-.23,3.11-.92,2.5-3.57-.32-1.37-.95-2.61-1.32-3.96.05-.25-.13-.35-.33-.44-.23-.28-.47-.55-.72-.81-.01-.19.04-.47-.32-.28-1.04-.04-2.09-.06-3.15-.1-.25-.18-.53-.18-.81-.06-.24,0-.47.01-.72.01-.68-.18-1.35-.19-2.02.06-.52-.01-1.06-.01-1.59-.02l-.11-.07-.12.06c-.64-.02-1.27-.05-1.91-.06-.07-.05-.13-.05-.21,0-.33,0-.66-.01-.98-.01-.08-.05-.16-.04-.23.01-.33-.01-.66-.01-.98-.01-.17-.01-.34-.01-.5-.02-8.54-.13-17.03-.83-25.53-1.47-2.72-.19-5.51-.36-8.22.4-.28-.66-.49-.33-.68.06l-.08.05c-.51.01-1.02.02-1.53.04-.27-.07-.49-.04-.63.22-.79.02-1.58.04-2.37.06-.76-.8-2.37-.85-2.21-2.48.25-.47.62-.85,1.08-1.13.47-.11.95-.21,1.43-.3,1.93-.29,3.84-.8,5.81-.81,3.05.24,6.11.11,9.16.12,4.3.02,8.57.24,12.84.89.7-.01,1.41-.02,2.11-.02,1.43.15,2.88.46,4.27.53,1.28.06,2.57.96,3.89.16.32-.06.64-.11.96-.16.08-.05.17-.11.25-.16.19-.11.39-.21.59-.32.11,0,.21,0,.32.01,1.37-.09,2.74.12,4.1-.16,2.33.41,4.7-.05,7.04.33.8.13,1.1-.61,1.08-1.31-.02-.55-.19-1.08-.3-1.61-.19-3.3.1-6.57.43-9.84.79-3.23,1.52-6.48,2.68-9.61.4-1.08.91-2.22,1.91-2.99.16.7-.27,1.49.34,2.11-.05.25-.11.52-.17.78l-.08.06.05.08c-.9,2.59-1.54,5.22-1.38,8l-.08.1.07.11c-.27,4.95-.36,9.88.64,14.78.8,3.91,1.89,7.72,3.63,11.34.06.06.12.13.19.19.16.12.33.24.5.35l.05.1.1-.05h1.01l.1.06.1-.08h2.25c.64.21,1.27.23,1.92.04.47.01.94.04,1.41.05l.07.05s.06-.02.09-.02h.01c6.82.34,13.64.68,20.4,1.88,4.95.87,9.59,2.5,14.12,4.51,1.72.77,3.18,1.26,4.81-.18.94-.83,2.22-1.12,3.41-1.52,3.91-1.35,7.99-1.76,12.01-2.56,5.53-1.09,11.1-1.26,16.66-1.74l.12.02.11-.05c2.3-.07,4.62-.38,6.85.45Z"/><path class="cls-4" d="m103.45,129.02c-.09.05-.17.1-.26.16.09-.05.17-.1.26-.16Z"/><path class="cls-3" d="m164.95,152.9c-1.23,1.75-1.8,3.73-2.04,5.83-.07.62-.39,1.23-.84,1.72-.61.12-1.21.27-1.68.75-2.78.94-4.64,3.13-6.74,4.98-1.43-.66-2.4-.07-3.11,1.19-2.42,1.32-4.83,2.65-7.26,3.96-5,2.71-10.25,4.55-16.04,4.48-3.86-.06-7.74.01-11.6-.07-2.2-.05-4.37-.36-6.53-.91-2.32-.61-4.7-.97-7.06-1.43-.41-.19-.8-.42-1.23-.57-1.8-.63-3.66-1.2-5.17-2.38-3.5-2.71-5.09-5.34-2.62-9.46,2.29-3.84,5.06-7.23,8.86-9.65.67-.44,1.25-.96,1.69-1.6.11-.16.21-.33.29-.5.02-.06.06-.12.1-.19h.01c4.31-1.41,8.71-2.14,13.22-2.59,4.8-.49,9.57-1.01,14.38-.78,3.01.13,6.04.39,9.03.83,1.58.23,3.18.17,4.77.28,4.27.32,8.42,1.13,12.51,2.34,2.19.64,4.3,1.43,6.42,2.23.9.34,1.24.66.62,1.54Z"/><path class="cls-7" d="m219.54,155c-.02.3-.04.6-.06.9-.17.02-.28.11-.23.3-.97,2.78-3.11,4.47-5.72,5.37-6.8,2.34-13.61,4.68-20.56,6.58-3.32.91-6.75,1.01-10.1,1.65-1.12.21-2.16-.24-3.25-.3-3.79-.23-7.36-1.01-10.21-3.84-1.49-1.47-1.99-3.25-2.15-5.22,1.46-1.31,2.85-2.7,4.7-3.5.28-.12.34-.45.38-.75.45.02.83-.06.91-.6.63.02,1.12-.16,1.23-.89,2.95-1.71,6.19-2.73,9.34-3.97.91-.98,2.46-.45,3.35-1.45.21-.02.4-.05.61-.07.21-.07.42-.13.63-.21.29.04.58.07.86.11.51-.16,1.02-.33,1.52-.5.22.04.44.07.66.11.62-.44,1.3-.63,2.06-.52,2.93-.69,5.89-1.01,8.9-.83.7-.9,1.74-.78,2.7-.87,1.08-.11,2.19.22,3.23-.24.4.07.81.16,1.23.23.9.04,1.8.07,2.7.11,1.95.28,3.74,1.04,5.43,2.05.1.1.18.21.28.3,1.21,1.83,1.68,3.86,1.59,6.04Z"/><path class="cls-12" d="m109.21,200.51c-.47,2.61-1.87,4.98-2.93,7.42-1.43.46-1.06,1.76-1.3,2.78-.17,1.09-.81,1.97-1.29,2.93-1.21.42-.97,1.25-.57,2.11.01.43-.08.84-.32,1.21-.9.63-1.14,1.63-1.52,2.59-.87,2.17-.04,4.7-1.48,6.73-.21-.02-.41-.04-.61-.05-.21-.53-.51-.56-.91-.21-3.9-.57-7.65-1.81-11.48-2.72.11-.75-.27-1.34-.67-1.91.26-.68.51-1.35.77-2.03.34-.1.51-.27.21-.6.02-.21.05-.4.07-.61.35-.11.55-.27.21-.62,1.2-6.22,2.39-12.46,4.99-18.29.68-1.51,1.7-2.85,2.85-4.06,2.25-2.33,5.14-2.27,8.04-2.04.64.05,1.29.21,1.92.38,4.51,1.23,4.83,2.34,4.01,6.97Z"/><path class="cls-8" d="m100.77,134.34c-.57-.05-1.14-.1-1.72-.15-.19.15-.39.13-.58,0,.1.06.19.1.28.1.02,0,.04-.01.06-.01.06,0,.11-.02.17-.06.02-.01.04-.01.05-.02t.02-.01c.58.06,1.15.11,1.72.16Z"/><path class="cls-5" d="m152.77,167.72c-.92,1.8-1.85,3.59-2.76,5.39-1.35-.01-2.08,1.12-3.11,1.7-4.77,2.65-9.97,3.49-15.33,3.78-.64.04-1.45-.29-1.87.56-.19.01-.39.02-.58.04-2.59-.58-5.21-.24-7.81-.23-5.23.02-10.47.01-15.64-.77-5.39-.8-10.59-2.37-15.39-5-4.55-2.5-7.54-6.08-7.15-11.69.06-.83-.21-1.69-.33-2.53.15-.3.39-.49.69-.58-.05.57.1,1.09.45,1.54,2.13,2.71,3.75,5.77,6.32,8.16,1.87,1.75,4,3.13,6.1,4.55,1.76,1.19,3.79.5,5.7.76,2.36.46,4.74.83,7.06,1.43,2.16.55,4.34.86,6.53.91,3.86.08,7.74.01,11.6.07,5.79.07,11.04-1.77,16.04-4.48,2.43-1.31,4.85-2.64,7.26-3.96.74.12,1.48.23,2.22.34Z"/><path class="cls-6" d="m103.99,149.04c-.04.06-.06.13-.11.19-.08.17-.18.34-.29.5-.44.64-1.02,1.17-1.69,1.6-3.8,2.43-6.57,5.82-8.86,9.65-2.47,4.12-.87,6.75,2.62,9.46,1.52,1.18,3.38,1.75,5.17,2.38.42.15.81.38,1.23.57-1.91-.27-3.93.43-5.7-.76-2.1-1.42-4.23-2.81-6.1-4.55-2.56-2.39-4.19-5.45-6.32-8.16-.35-.45-.5-.97-.45-1.54.21-.32.41-.62.63-.94.1-.02.19-.04.29-.06.94.04,1.72-.18,2.04-1.19,4.99-2.51,9.98-5.03,15.34-6.7.7-.23,1.4-.53,2.17-.45h.01Z"/><path class="cls-7" d="m149,182.55c-.19.28-.19.56-.01.85-.04,1.03-.06,2.06-.08,3.1-.09.04-.11.11-.07.19-.34,1.3.28,2.71-.44,3.97,0,.21-.01.41-.01.63-.18.19-.17.38.01.57v.63c-.18.18-.19.38-.02.57-.01.22-.01.43-.02.64-.09.08-.09.17-.01.25.01.62.01,1.23.02,1.85-.06-.04-.12-.02-.18.01.04.26.08.52.13.79-.01.27-.02.53-.04.8v1.19s-.05.06-.05.06l.05.07c.02,1.25.05,2.5.06,3.75h0s-.07.07-.07.07l.05.1c-.95,1.91-2.47,3.4-3.72,5.09-.18.53-.45,1.02-.9,1.37-.11.15-.22.3-.33.46-.09.43-.33.75-.67,1.02-.08.12-.17.24-.25.36-2.13,3.62-4.01,7.38-5.67,11.21-1.46,3.34-3.08,6.58-4.63,9.87-.07.1-.15.21-.22.32-1.02,1.21-1.74,2.66-2.84,3.84-2.44,2.57-5.33,3.76-8.91,3.8-3.44.04-6.56-.69-9.47-2.4-2.23-1.3-3.9-3.18-4.71-5.62-.53-1.6-.47-3.35-.41-5.04.35-.41.35-.81-.02-1.21.07-5.11,1.81-9.78,3.79-14.4,1.65-3.87,3.49-7.7,4.37-11.86.9-4.21-1.66-8.33-5.94-9.41-3.08-.78-6.14-1.6-9.4-.92-4.51.92-7.2,3.89-9.33,7.71-1.85,3.32-2.79,6.95-3.83,10.5-.76,2.64-1.4,5.34-1.75,8.11-.43,3.35-1.68,6.38-5.1,7.89-1.96,1.63-4.44,1.85-6.76,2.23-3.61.62-6.98-.27-9.72-2.91-.13-.12-.17-.34-.24-.52-2.56-2.96-3.19-6.58-3.36-10.29-.21-4.61-.23-9.25.17-13.86.35-4,1.2-7.89,2.64-11.63,2.26-5.89,5.45-11.26,9.52-16.1,2.26-2.68,4.59-5.31,7.44-7.4.11-.09.21-.17.32-.25.32-.43.72-.74,1.2-.95.95-1.07,2.09-1.88,3.24-2.7.12.84.39,1.7.33,2.53-.39,5.61,2.6,9.19,7.15,11.69,4.8,2.64,9.99,4.2,15.39,5,5.17.78,10.41.79,15.64.77,2.6-.01,5.22-.35,7.81.23.19-.01.39-.02.58-.04.43-.85,1.23-.52,1.87-.56,5.36-.29,10.55-1.13,15.33-3.78,1.03-.58,1.76-1.71,3.11-1.7-.27,3.16-1.09,6.24-1.02,9.44Z"/><path class="cls-11" d="m67.4,141.04c-.33,1.2-.08,2.73-1.74,3.22-.86.27-1.74.52-2.61.74-4.48,1.1-8.97,2.1-13.39,3.42-2.76.83-5.67,1.27-8.51,1.86-.32.06-.78.33-.9-.15-.13-.47.33-.75.72-.81,1.98-.3,3.85-.98,5.78-1.48,3.68-.94,7.4-1.79,11.09-2.72,1.98-.51,3.98-.91,5.99-1.32,1-.19,1.72-.58,1.57-1.77.4-.55.22-.94-.33-1.23-.61-.07-1.21-.15-1.82-.23-.24-.04-.44.05-.58.24-.21.01-.41.04-.62.05-.32-.12-.55-.34-.66-.66.21-2.14-.15-2.68-2.54-3.81-1.88-.9-3.79-1.76-5.95-2.77.96-.51,1.54-.1,2.09.1,3.92,1.42,7.37,3.81,11.14,5.56.72.33,1.58.7,1.29,1.76Z"/><path class="cls-11" d="m51.18,143.83c-3.52.5-6.93,1.55-10.42,2.27-2.17.45-4.02-.11-5.68-1.6-1.4-1.24-3.24-1.76-4.77-2.79-.07-.32-.24-.51-.6-.49-.22-.11-.45-.21-.67-.32-.35-.16-.81-.24-.73-.78.06-.49.52-.56.87-.69.75-.32,1.55-.11,2.34-.17.56.73-.06,1.88.89,2.47.8.72,1.79.81,2.81.83.52.01,1.31-.06,1,.83-.4,1.1.33,1.41,1.03,1.82.97.58,2.04.46,3.08.4,1.7-.1,2.55-1.21,2.36-2.95-.19-1.63-1.01-2.21-2.83-1.93-1.01.17-1.55-.21-1.7-1.18-.11-.79-.46-1.54-.29-2.37.89-.15,1.85-.83,2.57.3-.16.85.21,1.3,1.04,1.38,1.47,1.03,3.07,1.93,4.38,3.13,1.58,1.43,3.3,1.63,5.23,1.25.02.19.05.39.07.58Z"/><path class="cls-2" d="m40.33,145.61c-1.04.06-2.11.18-3.08-.4-.7-.41-1.43-.72-1.03-1.82.32-.89-.47-.81-1-.83-1.02-.01-2-.11-2.81-.83-.1-1.3.58-1.69,1.76-1.48.34.05.7.1,1.03.05,1.23-.17,1.34-.55.53-1.62.53-.75,1.29-1.2,2.13-1.51-.17.83.18,1.58.29,2.37.15.97.69,1.35,1.7,1.18,1.82-.28,2.64.3,2.83,1.93.19,1.74-.66,2.85-2.36,2.95Z"/><path class="cls-5" d="m92.84,134.32c-3,.04-6,.07-9,.11-.64.01-1.31-.12-1.91.24-.69.05-1.38.09-2.08.12-4.95.04-9.84-.86-14.77-1.13-.11-.02-.22-.05-.34-.06-.38-.35-.94-.57-.9-1.23.79-.02,1.58-.04,2.37-.06.21-.07.42-.15.63-.22.51-.01,1.02-.02,1.53-.04.12.49.57.49.92.66,1.07.55,2.16.01,3.25.1,2.26.17,4.35,1.38,6.65,1.03,4.06-.62,8.11-.17,12.16,0,.52.02,1.14-.18,1.47.47Z"/><path class="cls-12" d="m148.79,237.28c-1.6-.4-3.23-.67-4.86-1.01-1.68-.07-3.22-.75-4.83-1.15-.7-.09-1.41-.16-2.11-.24-1.31-.19-1.75-.68-.94-1.99,3.19-5.17,5.19-10.95,8.15-16.25.73-2.17,2.19-3.93,3.35-5.85.67-.01.98.33,1.02.98.07,1.23.36,2.44.16,3.68-.16,4.93.59,9.81.72,14.72.05,1.88.52,3.67.95,5.48.47,2.04.35,2.13-1.6,1.64Z"/><path class="cls-8" d="m148.34,202.49h-.01c-.01-1.25-.04-2.5-.06-3.75.02,1.25.05,2.5.07,3.75Z"/><path class="cls-11" d="m36.87,149.93c-.62.3-1.02.07-1.32-.11-2.96-1.77-6.08-3.3-8.91-5.29-.3-.21-.67-.43-.41-.81.23-.35.64-.19.96-.05.81.39,1.66.73,2.42,1.21,2.32,1.48,4.6,3.01,6.9,4.53.15.1.22.29.38.52Z"/><path class="cls-10" d="m62.04,140.86c-.11.44-.44.67-.84.75-1.89.45-3.76,1-5.68,1.26-1.48.21-2.77,1.23-4.34.96-.02-.19-.05-.39-.07-.58,2.43-.67,4.71-1.83,7.26-2.19,1.02-.15,2-.57,3.01-.86.11.32.34.53.66.66Z"/><path class="cls-13" d="m102.81,216.96c-.51,2.65-1.3,5.23-1.29,7.98,0,.97-.58,1.6-1.71,1.34,1.45-2.03.61-4.55,1.48-6.73.38-.96.62-1.95,1.52-2.59Z"/><path class="cls-10" d="m91.61,149.26c-.08.95-1.06.91-1.57,1.38-1.2,1.13-2.55,2.1-3.83,3.13-.22-.52-.43-1.06-.63-1.58,1.93-1.13,3.67-2.66,6.02-2.94Z"/><path class="cls-10" d="m35.21,140.3c-.33.05-.69,0-1.03-.05-1.18-.21-1.86.18-1.76,1.48-.95-.58-.33-1.74-.89-2.47,1.42-.07,2.77-.68,4.21-.58.8,1.07.69,1.45-.53,1.62Z"/><path class="cls-8" d="m172.33,156.18h0c-.04.32-.1.64-.38.77-1.85.8-3.24,2.19-4.7,3.5-.12-.21-.24-.41-.36-.62.25-.36.67-.63.72-1.13.55-.1.8-.53,1.13-.91,1.38-.12,2.27-1.34,3.6-1.6Z"/><path class="cls-6" d="m153.66,166.19c-.01.68-.63,1-.89,1.53-.74-.11-1.48-.22-2.22-.34.7-1.26,1.68-1.85,3.11-1.19Z"/><path d="m261.16,215.46c-2.28-.8-4.69-1.19-6.92-2.14-.94.18-1.79-.38-2.7-.39-.11.01-.22.02-.33.05-.19.04-.28-.07-.32-.23-4.03-.86-4.15-1-3.79-4.02.19-.36.56-.66.5-1.13.29-.49.3-1,.22-1.52.02-1.62.05-3.22.07-4.83.19-.19.55-.3.38-.69.06-.34.17-.69.16-1.03-.38-5.94.9-11.79.67-17.73-.16-3.79.91-7.55.66-11.38-.18-3.3.29-6.58.49-9.87.47-7.81.24-15.64.55-23.46.46-12.34.34-24.72-.51-37.06-.8-3.64-1.48-7.31-2.99-10.76-1.46-3.35-3.41-6.34-6.05-8.86-1.29-1.57-2.82-2.84-4.48-3.97-.11-.1-.23-.18-.35-.27-.84-.81-1.87-1.36-2.91-1.83-1.17-.56-2.19-1.24-2.84-2.36-.76-1.32-1.92-2.26-3.11-3.16-.11,0-.17-.06-.18-.17-.11-.06-.21-.11-.3-.17-3.76-3.24-8.21-3.23-12.67-2.32-2.27.46-4.43.86-6.69.25-.24.05-.49.1-.63-.19-3.74.11-7.44-.55-11.18-.73-2.34-.11-4.74-.29-7.08-.8-3.67-.81-7.35-1.83-11.18-1.4-.55.06-1.11-.06-1.65-.11-2.41.28-4.82.12-7.23.01-1.19-.06-1.37-1.4-2.37-1.59-.16-.68-.58-1.06-1.29-1.13-.29-.12-.59-.25-.89-.39-.22-.17-.42-.35-.63-.52-1.15-.19-2.23-.64-3.32-1.07-1.81.01-3.63.01-5.44.02-2.16.68-4.38,1.24-6.18,2.74-.56.33-1.11.67-1.66,1-.78.53-1.17,1.51-2.11,1.85-.3.46-.81.15-1.2.3-1.15.52-2.31,1.12-3.64.8-1.45.01-2.87.25-4.27.52-3.48.67-6.89,1.64-10.24,2.78-2.15.89-4.37,1.63-6.36,2.83-3.16,1.91-5.74,4.4-7.43,7.74-1.15,1.1-1.4,2.7-2.16,4.01-.43.5-.35,1.17-.56,1.74-.55.85-.83,1.8-1.06,2.77h.01-.01s0,0,0,0c-.16.05-.24.13-.18.32-.04.21-.06.41-.1.62-.58.68-.46,1.57-.67,2.36-1.74,6.56-2.65,13.24-2.74,20.03-.04,2.71-.02,5.43-.05,8.15v5.73c.06,1.31.12,2.62.17,3.93,1.37-.09,2.74.12,4.1-.16,0-.15,0-.3.01-.46-.01-.19-.04-.39-.05-.58-.43-.97-.58-1.98-.45-3.02-.64-2.03.11-4.06-.04-6.07-.35-2-.41-4,.11-5.99.07-1.02.15-2.05.22-3.08-.32-.66-.41-1.29.23-1.83.02-.39.04-.79.06-1.19-.24-1.51.05-2.98.38-4.44.41-4.21,1.21-8.35,2.31-12.45.55-1.99,1.4-3.85,2.22-5.72.1-.21.21-.4.3-.61.46-.83.91-1.65,1.36-2.48,1.93-3.36,4.72-5.73,8.31-7.18.86-.35,1.64-.98,2.64-1.02.56-.01,1.08-.16,1.51-.55.21-.02.4-.05.59-.07.6-.01,1.17-.1,1.57-.62,3.55-.98,7.1-1.91,10.77-2.32.72-.07,1.74-.44,2.11.56.4,1.02-.33,1.68-1.12,2.2-.56.86-1.45,1.15-2.37,1.38-.41.44-.84.86-1.25,1.3-1.15.49-2.13,1.24-3.02,2.09-.21.12-.4.24-.6.36-.33.01-.53.17-.61.49-.5.44-1,.89-1.49,1.32-.56.04-.85.34-.9.89-.81.91-1.61,1.81-2.43,2.72-.34.4-.69.8-1.04,1.2-.01.3-.13.52-.43.63-.05.08-.08.18-.12.28-.01.34-.21.52-.51.61-.55.62-1.08,1.23-1.62,1.83-.07.21-.15.4-.22.6-.1-.01-.18-.01-.28-.02-3.61,6.35-6.72,12.9-7.97,20.17-.29,1.72-.43,3.49-.64,5.22.21.85-.09,1.66-.19,2.48-.16.36-.44.72-.46,1.08-.11,2.94-.36,5.87.16,8.79.08.47.17.9.76.91-.19-3.3.1-6.57.43-9.84.79-3.23,1.52-6.48,2.68-9.61.4-1.08.91-2.22,1.91-2.99-.07-.35.23-.53.35-.8.7-1.86,1.42-3.7,2.39-5.44.1-.24.19-.47.29-.72.1-.16.18-.33.28-.5.1-.02.12-.07.1-.17h.01c-.09-.38.05-.63.41-.73.07-.09.1-.17.09-.27,1.32-2.04,2.65-4.08,3.97-6.13.79-1.99,2.44-3.32,3.83-4.81,2.72-2.96,5.65-5.77,9.1-7.86,3.12-1.87,6.22-3.85,9.68-5.11.22-.06.44-.12.64-.18.1-.04.19-.07.29-.12,1.09-.33,2.2-.66,3.29-.98.57-.17,1.13-.38,1.7-.52,2.45-.62,4.99-.95,7.4-1.81,2.38-.18,4.76-.35,7.14-.57,3.17-.28,6.32.16,9.46.33,3.19.18,6.32,1.03,9.44,1.74,2.09.47,4.04,1.25,5.99,2.1.41.07.86-.05,1.2.32.11.1.22.19.34.3.19.02.38.05.57.07.11.07.22.15.32.23,1.2.3,2.23.96,3.3,1.55.19.01.39.01.58.01,1.72,1.45,3.87,2.19,5.66,3.55,1.86,1.41,3.83,2.7,5.32,4.53.27-.02.46.04.53.32.1.11.19.22.29.32.1.11.19.22.29.33.81.58,1.46,1.32,2.05,2.13l.06.07c.07.07.13.15.19.21l.08.02v.07c.47.24.81.57.98,1.06h0s.01.01.01.01c.7.8,1.38,1.62,2.02,2.45.27.35.53.7.78,1.07.29.43.57.85.83,1.29.19.28.36.57.51.87.04.05.06.1.08.15.15.25.28.51.4.78.06.12.12.24.18.36h0c.47.39.64.9.64,1.48.05.01.08.04.11.05s.05.04.06.05c.06.06.08.13.06.25.4.6.81,1.2,1.23,1.81.02.21.04.4.06.61.58,1.31,1.17,2.61,1.76,3.92-.06.46.02.87.35,1.21.33,2.67,1.13,5.26,1.59,7.92.76,4.42.83,8.82.64,13.26.05.08.05.17-.02.25.08.62-.35,1.2-.12,1.83.01.11.01.21.01.32-.57,2.27-.95,4.59-1.18,6.92-.06.09-.09.18-.09.28-.07.11-.15.22-.21.33-.05.3-.1.6-.15.9-.51.62-.73,1.35-.78,2.14-1.25,3.29-2.61,6.53-4.38,9.59-.22.39-.32.86-.83,1.02-.1.13-.19.25-.3.38-.1-.12-.19-.26-.29-.38-.24-.22-.47-.43-.72-.63-.36-.52-.76-.98-1.36-1.24-.01,0-.01-.01-.02-.01-.11-.09-.22-.17-.33-.25-1.02-.46-1.91-1.23-3.01-1.53-.21-.12-.4-.24-.61-.36-1.2-.3-2.39-.61-3.59-.91-.22.01-.44.02-.66.04l.02.07c-.07,1.04-.53,1.87-1.32,2.55-.47.41-1.04.81-.76,1.6.9.04,1.8.07,2.7.11,1.95.28,3.74,1.04,5.43,2.05.1.1.18.21.28.3,1.21,1.83,1.68,3.86,1.59,6.04-.02.3-.04.6-.06.9-.07.1-.15.21-.23.3-.97,2.78-3.11,4.47-5.72,5.37-6.8,2.34-13.61,4.68-20.56,6.58-3.32.91-6.75,1.01-10.1,1.65-1.12.21-2.16-.24-3.25-.3-3.79-.23-7.36-1.01-10.21-3.84-1.49-1.47-1.99-3.25-2.15-5.22-.12-.21-.24-.41-.36-.62-.24-.06-.49-.09-.67.15-1.21.23-2.34.9-3.62.81-.04.06-.08.11-.12.13-.07.08-.16.15-.23.19-.06.05-.13.09-.21.1-.07.04-.15.05-.23.05-.46.07-.96-.1-1.41-.05-2.78.94-4.64,3.13-6.74,4.98-.01.68-.63,1-.89,1.53-.92,1.8-1.85,3.59-2.76,5.39-.27,3.16-1.09,6.24-1.02,9.44,0,.28-.01.57-.01.85-.04,1.03-.06,2.06-.08,3.1,0,.05.02.11.02.16,0,.01-.06.02-.1.04-.34,1.3.28,2.71-.44,3.97,0,.21-.01.41-.01.63,0,.18,0,.38.01.57v.63c-.01.19-.01.38-.02.57-.01.22-.01.43-.02.64.06.08.06.17-.01.25.01.62.01,1.23.02,1.85.13.28.13.55-.05.8-.01.27-.02.53-.04.8.17.13.17.28,0,.41v.78l.09.07-.09.06c.02,1.25.05,2.5.07,3.75,0,0,0,.01.01.02,0,.02.04.07.04.07l-.08.07c-.95,1.91-2.47,3.4-3.72,5.09-.18.53-.45,1.02-.9,1.37-.11.15-.22.3-.33.46-.09.43-.33.75-.67,1.02-.08.12-.17.24-.25.36-2.13,3.62-4.01,7.38-5.67,11.21-1.46,3.34-3.08,6.58-4.63,9.87-.07.1-.15.21-.22.32-1.02,1.21-1.74,2.66-2.84,3.84-2.44,2.57-5.33,3.76-8.91,3.8-3.44.04-6.56-.69-9.47-2.4-2.23-1.3-3.9-3.18-4.71-5.62-.53-1.6-.47-3.35-.41-5.04-.46-.4-.46-.81-.02-1.21.07-5.11,1.81-9.78,3.79-14.4,1.65-3.87,3.49-7.7,4.37-11.86.9-4.21-1.66-8.33-5.94-9.41-3.08-.78-6.14-1.6-9.4-.92-4.51.92-7.2,3.89-9.33,7.71-1.85,3.32-2.79,6.95-3.83,10.5-.76,2.64-1.4,5.34-1.75,8.11-.43,3.35-1.68,6.38-5.1,7.89-1.96,1.63-4.44,1.85-6.76,2.23-3.61.62-6.98-.27-9.72-2.91-.13-.12-.17-.34-.24-.52-2.56-2.96-3.19-6.58-3.36-10.29-.21-4.61-.23-9.25.17-13.86.35-4,1.2-7.89,2.64-11.63,2.26-5.89,5.45-11.26,9.52-16.1,2.26-2.68,4.59-5.31,7.44-7.4.11-.09.21-.17.32-.25.32-.43.72-.74,1.2-.95.95-1.07,2.09-1.88,3.24-2.7.15-.3.39-.49.69-.58.21-.32.41-.62.63-.94.16-.89-.19-2.02,1.12-2.36.04-.06.07-.13.1-.21,0-.01.01-.02.01-.02,0-.02.01-.05.02-.06.01-.02.04-.04.07-.04.25-.33.5-.66.75-.98-.22-.52-.43-1.06-.63-1.58-1.66.91-3.06,2.47-5.22,2.15-1.14.1-2.29.18-3.42-.13-2.81-.29-5.66-.19-8.44-.75-2.45-.49-4.77-1.4-7.06-2.38-.39-.17-.79-.46-.75-.81.05-.39.56-.53.95-.63,1.88-.44,3.75-.9,5.63-1.28,1.68-.35,2.94-.86,3.1-2.96.15-1.8.84-3.53,1.23-5.31.19-.91.39-1.88-.49-2.62-.22-.06-.44-.12-.66-.19-.43-.13-.85-.28-1.25-.46-.21-.09-.4-.18-.59-.3h-.01s-.05-.01-.06-.04c-.1-.05-.18-.1-.27-.16-.17-.1-.34-.22-.5-.35-.16-.13-.32-.27-.46-.43-.15-.15-.28-.32-.41-.49-.11-.1-.21-.19-.32-.29h-.01c-.47-.02-1.03.1-1.18-.6-.12-.11-.24-.23-.36-.34-.08-.07-.17-.15-.27-.22-.38-.35-.94-.57-.9-1.23-.76-.8-2.37-.85-2.21-2.48-.29.02-.72-.09-.87.08-1.88,1.87-3.33.57-4.8-.61-.85,0-1.77-.19-2.54.05-5.8,1.85-11.84,2.72-17.66,4.44-4.91,1.46-9.98,2.21-14.82,3.91-.02.3-.05.61-.07.9.02.21.05.4.07.6.51.5.53,1.13.58,1.79.16,1.91,1.11,3.59,1.49,5.44.16.78,1.08,1.13,1.77,1.54,3.91,2.33,8.05,4.27,11.82,6.86.56.39,1.01.43,1.65.23,1.89-.59,3.81-1.09,5.73-1.57.62-.16,1.36-.22,1.37.81-.33.15-.21.39-.13.62-.04.21-.09.4-.13.61-.91.92-.94,2.15-1.12,3.33-.11.4-.23.8-.35,1.2.17,2.16-.7,4.2-.67,6.35.12,2.61.11,5.23-.01,7.86.39,1.06-.32,1.98-.34,2.99-.4.68-.07,1.45-.27,2.15.01,5.74.01,11.48.01,17.22v3.02c.12.51.24,1.01.36,1.51-.17,1.03.5,1.99.21,3.02.01.51.01,1.01.01,1.52v.9c.01.91.01,1.82.01,2.72.1,1.01.18,2.02.28,3.02.22.34.28.73.41,1.09,1.3,3.53,2.79,6.95,6.59,8.57,1.51,1.47,3.51,1.53,5.39,1.77,1.4.18,2.53.68,3.57,1.59,2.32,2.06,4.93,3.34,8.15,3.64,1.65.15,3.25.64,4.92.18.91-.23,1.79-.57,2.74-.51,1.92-.46,3.73-1.15,5.38-2.28,1.17-.79,2.43-.27,3.56.09,4.27,1.34,8.72,1.93,13.04,3.04,1.48.38,2.9,1.04,4.48,1.08.72.01,1.03.61,1.02,1.28-.06,3.13,1.78,5.25,3.93,7.08,3.5,2.99,7.6,4.47,12.23,4.53,2.21.04,4.37-.13,6.52-.56.29-.19.57-.41.96-.35.1-.46.43-.61.86-.56.62.02.9-.73,1.53-.66,0-.18.05-.3.27-.22.83-.74,1.64-1.47,2.46-2.2.01-.57.21-.94.87-.81.5-.02,1.01-.04,1.51-.05,1.43-.75,2.6.51,3.93.51.33.12.64.28.98.35,4.53,1,9.07,1.96,13.59,3,.89.21,2-.04,2.65.74,1.04,1.29,2.45,1.97,3.87,2.68,2.95,1.48,6.1,2.21,9.35,2.66,2.77.39,5.51.18,8.27.24,2.59.06,5.15-.27,7.6-1.08,4.82-1.59,9.55-3.45,14.43-4.87,1.77-.73,3.52-1.53,5.42-1.92.63-.49,1.4-.61,2.14-.8l3.02-.91c4.41-1.52,8.83-3.05,13.25-4.57,3.89-1.32,7.87-2.37,11.63-4.03,2.05-.91,4.08-1.91,5.74-3.5,1.47-.35,3.02-.36,4.42-1.03.56,0,1.04-.23,1.53-.49,5.62-1.23,11.27-2.34,16.6-4.6.19-.11.4-.21.59-.3,1.51-2.36.34-4.13-1.53-4.8ZM162.66,63.8c-.19-.06-.27.06-.32.21h-.01c-3.07.04-5.88,1.23-8.74,2.11-1.53.22-2.81,1.1-4.21,1.64-.33.06-.67.17-1.01.18-.23.01-.57,0-.69-.15-.19-.23-.12-.56.1-.81,2.02-2.28,4.27-4.14,7.47-4.46.84-.07,1.66-.22,2.5-.3,1.72-.18,3.36.18,4.93.87.36.24.33.47-.01.7Zm-113.56,76.76c.19-.55.73-.58,1.21-.61.25-.01.46.13.45.46-.27.5-.78.53-1.25.6-.24.02-.52-.16-.41-.45Zm-13.55,9.25c-2.96-1.77-6.08-3.3-8.91-5.29-.3-.21-.67-.43-.41-.81.23-.35.64-.19.96-.05.81.39,1.66.73,2.42,1.21,2.32,1.48,4.6,3.01,6.9,4.53.15.1.22.29.38.52-.62.3-1.02.07-1.32-.11Zm5.6.46c-.32.06-.78.33-.9-.15-.13-.47.33-.75.72-.81,1.98-.3,3.85-.98,5.78-1.48,3.68-.94,7.4-1.79,11.09-2.72,1.98-.51,3.98-.91,5.99-1.32,1-.19,1.72-.58,1.57-1.77-.36-.34-.32-.79-.33-1.23-.61-.07-1.21-.15-1.82-.23-.09.35-.23.55-.58.24-.21.01-.41.04-.62.05-.11.44-.44.67-.84.75-1.89.45-3.76,1-5.68,1.26-1.48.21-2.77,1.23-4.34.96-3.52.5-6.93,1.55-10.42,2.27-2.17.45-4.02-.11-5.68-1.6-1.4-1.24-3.24-1.76-4.77-2.79-.3-.05-.51-.18-.6-.49-.22-.11-.45-.21-.67-.32-.35-.16-.81-.24-.73-.78.06-.49.52-.56.87-.69.75-.32,1.55-.11,2.34-.17,1.42-.07,2.77-.68,4.21-.58.53-.75,1.29-1.2,2.13-1.51.89-.15,1.85-.83,2.57.3.56.3.84.81,1.04,1.38,1.47,1.03,3.07,1.93,4.38,3.13,1.58,1.43,3.3,1.63,5.23,1.25,2.43-.67,4.71-1.83,7.26-2.19,1.02-.15,2-.57,3.01-.86.21-2.14-.15-2.68-2.54-3.81-1.88-.9-3.79-1.76-5.95-2.77.96-.51,1.54-.1,2.09.1,3.92,1.42,7.37,3.81,11.14,5.56.72.33,1.58.7,1.29,1.76-.33,1.2-.08,2.73-1.74,3.22-.86.27-1.74.52-2.61.74-4.48,1.1-8.97,2.1-13.39,3.42-2.76.83-5.67,1.27-8.51,1.86Zm13.29-11.06q1.24-.97,2.83-.64c-.8.67-1.64.63-2.83.64Zm-.22,62.94c-.33.5-.27,1.06-.27,1.6-.01,2.78,0,5.56,0,8.34.6,1.57.1,3.39,1.13,4.86.01.21.04.4.06.6-.13.58.67,1.26-.18,1.77-.7.43-1.42.33-2.16.02-1.02-.41-1.65-1.26-2.34-2.05-3.27-2.71-3.7-6.4-3.57-10.29-.3-.49-.27-1.01-.15-1.53-.3-2.51.1-5.06-.39-7.58-.02-4.53-.05-9.06-.07-13.6.57-1.98.07-4.03.36-6.04.01-2.13-.29-4.26.24-6.38-.07-4.35.11-8.68.96-12.96.94-1.6.84-3.59,1.93-5.14.19-.8.74-1.25,1.49-1.53,2.57-1,5.09-1.69,6.96,1.24.13.21.34.36.51.55,3.33,2.19,7.02,3.25,10.94,3.69,1.42.16,1.59,1.29,1.64,2.44.38.78.4,1.55,0,2.32-.01,1.04-.6,1.79-1.3,2.45-5.89,5.71-9.84,12.59-12.81,20.18-2.16,5.51-2.97,11.17-2.99,17.01Zm49.49,11.48c-.02.75-.22,1.45-.57,2.11.01.43-.08.84-.32,1.21-.51,2.65-1.3,5.23-1.29,7.98,0,.97-.58,1.6-1.71,1.34-.21-.02-.41-.04-.61-.05-.33.06-.64.02-.91-.21-3.9-.57-7.65-1.81-11.48-2.72-1.64-.35-1.69-.49-.67-1.91.26-.68.51-1.35.77-2.03.07-.19.13-.4.21-.6.02-.21.05-.4.07-.61.06-.21.13-.41.21-.62,1.2-6.22,2.39-12.46,4.99-18.29.68-1.51,1.7-2.85,2.85-4.06,2.25-2.33,5.14-2.27,8.04-2.04.64.05,1.29.21,1.92.38,4.51,1.23,4.83,2.34,4.01,6.97-.47,2.61-1.87,4.98-2.93,7.42-.34.97-.64,1.95-1.3,2.78-.17,1.09-.81,1.97-1.29,2.93Zm45.09,23.64c-1.6-.4-3.23-.67-4.86-1.01-1.68-.07-3.22-.75-4.83-1.15-.7-.09-1.41-.16-2.11-.24-1.31-.19-1.75-.68-.94-1.99,3.19-5.17,5.19-10.95,8.15-16.25.73-2.17,2.19-3.93,3.35-5.85.67-.01.98.33,1.02.98.07,1.23.36,2.44.16,3.68-.16,4.93.59,9.81.72,14.72.05,1.88.52,3.67.95,5.48.47,2.04.35,2.13-1.6,1.64Zm77.95-149.32c-.04.16-.01.39-.3.25-.45.09-.83-.06-1.17-.32,0-.9-.66-1.45-1.15-2.05-1.77-2.19-3.6-4.34-5.4-6.48l-.04-.05c-2.08-1.63-3.91-3.53-6.16-4.94-.55-.35-1.09-.7-1.77-.72-.06-.1-.12-.18-.18-.28-.05-.18-.1-.38-.13-.57,1.02-.84,2.02-1.72,3.29-2.17.56-.39,1.14-.74,1.83-.84.44-.41,1-.29,1.51-.36,1.21,0,2.43-.01,3.63-.02l1.35.4c.07.05.15.1.22.15.02.01.05.04.07.05.05.04.11.07.16.1.02.18.12.28.32.24.5.23,1.01.45,1.51.68,1.75,1.38,3.29,2.98,4.53,4.86.02.75.29,1.42.66,2.06-.02.33-.17.69.21.94.04.69.07,1.4.11,2.09-.09.58-.17,1.17-.25,1.74-.05.19-.1.39-.15.58-.41.58-.73,1.2-.9,1.89-.59.92-1.19,1.85-1.77,2.78Zm19.87,60.59c-.07,1.85-.21,3.7-.32,5.56-.85.64-.59,1.37-.18,2.13.04,4.43-.12,8.85-.32,13.29-.34,7.52-.58,15.05-.9,22.58-.17,3.75-.44,7.5-.66,11.27l.07.91c-.02.19-.05.39-.07.6-.27.38-.25.78-.15,1.2-.04.4-.08.81-.13,1.21-.49.55-.27,1.19-.24,1.81-.04.19-.07.39-.11.58-.3.25-.25.6-.19.94-.04,1.34-.43,2.61-.7,3.91l-.22.62c-.62.69-.9,1.57-1.17,2.4-.84,2.64-2.36,4.72-4.62,6.29-.16.19-.32.39-.47.58-.13.04-.27.07-.4.11-1.34,1.48-3.19,2.04-4.98,2.67-11.61,4.04-23.22,8.06-34.84,12.07-1.42.49-2.88.86-4.32,1.29-2.53.8-5.05,1.59-7.58,2.39h-.01c-3,1.69-6.28,1.83-9.59,1.79-5.59.44-10.76-1.09-15.69-3.5-2.08-1.01-3.19-3.02-3.95-5.15-1.17-3.27-1.25-6.72-1.49-10.12-.21-2.81-.24-5.62-.35-8.44-.41-.89-.39-1.79-.09-2.7-.08-.8-.17-1.6-.25-2.42.04-.5.09-1.01.12-1.51-.05-4.34-.11-8.67-.16-12.99v-1.52c-.04-5.67.44-11.32.89-16.96.51-6.38,3.33-11.23,8.5-14.85.97-.69,1.59-.63,2.13.46,1.24,2.54,2.96,4.65,5.45,6.06,2.82,1.26,5.72,2.23,8.83,2.42,1.13.06,1.77.66,2.21,1.71.79,1.87.87,3.81,1.02,5.77.05.7.11,1.41.16,2.1.44,4.85.09,9.72.4,14.57.49.75.4,1.54.08,2.33.24,2.04.34,4.09.29,6.16-.21,7.47-.4,14.95-.61,22.42-.04,1.11-.17,2.2-.27,3.29-.38,4.24-2.31,7.25-6.57,8.55-1.58.49-1.68,1.41-.61,3.08,2.17.96,3.84-.39,5.57-1.27.89-.46,1.68-1.08,2.51-1.62,1.72-2.22,3.02-4.65,3.29-7.48.34-3.55.76-7.1.8-10.65.12-9.64.12-19.3.02-28.94-.02-2.68-.16-5.39-.81-8.03-.02-.81-.04-1.61-.06-2.42.01-.6.01-1.2.02-1.81-.11-2.02-.5-4-1.01-5.93-.41-1.54.35-1.79,1.47-1.87,5.36-.41,10.42-2.09,15.5-3.66,3.98-1.23,7.93-2.6,11.88-3.93,2.46-.84,4.65-2.13,6.56-3.92,1.17-1.09,2.03-2.34,2.51-3.86.36-1.17,1.08-1.76,2.36-1.62,1.06.12,2.09-.13,3.12-.32,1.12-.22,1.89-1.34,1.76-2.55-.12-1.06-1.09-1.77-2.32-1.59-.98.15-2.21.75-2.72-.34-.4-.89.6-1.75,1.13-2.59,3.12-4.94,5.46-10.19,6.85-15.91.11-.46.22-.92.32-1.38.08-.38.17-.76.24-1.14.02-.13.06-.28.08-.41.13-.69.25-1.38.36-2.08.27-1.65.46-3.32.57-4.98.02-.35.05-.72.06-1.07.02-.33.04-.66.04-1,.02-.46.02-.94.02-1.41,0-.44-.01-.86-.02-1.3h.01c.09-5.39-1.14-10.58-2.48-15.74-.3-1.08-.78-2.13-.69-3.28.08-1.17-.39-2.05-1.31-2.73-.52-1.17-1.02-2.37-1.6-3.51-.39-.77-.16-1.18.41-1.77,2.54-2.67,4.15-5.82,4.43-9.55.16-.97-.38-2.34,1.42-2.3.32.35.63.72.95,1.07.75.04,1.12.76,1.75,1.02.79.85,1.57,1.7,2.36,2.56,4.19,5.14,5.74,11.23,6.38,17.66-.24.52-.38,1.03.25,1.41.02.34.06.67.08,1.01-.58,1.62-.5,3.19.23,4.75.04,4.17.11,8.33.11,12.51,0,8.99.01,17.99-.36,26.98Z"/><path class="cls-12" d="m71.31,162.51c-.01,1.04-.6,1.79-1.3,2.45-5.89,5.71-9.84,12.59-12.81,20.18-2.16,5.51-2.97,11.17-2.99,17.01-.33.5-.27,1.06-.27,1.6-.01,2.78,0,5.56,0,8.34.6,1.57.1,3.39,1.13,4.86.01.21.04.4.06.6-.13.58.67,1.26-.18,1.77-.7.43-1.42.33-2.16.02-1.02-.41-1.65-1.26-2.34-2.05-3.27-2.71-3.7-6.4-3.57-10.29-.3-.49-.27-1.01-.15-1.53-.3-2.51.1-5.06-.39-7.58-.02-4.53-.05-9.06-.07-13.6.57-1.98.07-4.03.36-6.04.01-2.13-.29-4.26.24-6.38-.07-4.35.11-8.68.96-12.96.94-1.6.84-3.59,1.93-5.14.19-.8.74-1.25,1.49-1.53,2.57-1,5.09-1.69,6.96,1.24.13.21.34.36.51.55,3.33,2.19,7.02,3.25,10.94,3.69,1.42.16,1.59,1.29,1.64,2.44-.32.78-.32,1.54,0,2.32Z"/><path class="cls-10" d="m71.11,137.47c-.22-.06-.44-.12-.66-.19-.43-.13-.85-.28-1.25-.46-.21-.1-.4-.19-.59-.3h-.01s-.05-.01-.06-.04c-.1-.05-.18-.1-.27-.16-.17-.11-.34-.22-.5-.35-.16-.13-.32-.27-.46-.43-.15-.15-.28-.32-.41-.49h0c1.48.66,3.12,1.08,4.21,2.42Z"/><path class="cls-11" d="m85.33,156.38c-.4.24-.75.53-.9,1.01-.1.02-.19.04-.29.06.16-.89-.19-2.02,1.12-2.36.02.44.05.86.07,1.29Z"/><path class="cls-11" d="m57.26,138.57c-.8.67-1.64.63-2.83.64q1.24-.97,2.83-.64Z"/><path class="cls-13" d="m86.82,223.3c-1.64-.35-1.69-.49-.67-1.91.4.57.78,1.15.67,1.91Z"/><path class="cls-11" d="m50.77,140.42c-.27.5-.78.53-1.25.6-.24.02-.52-.16-.41-.45.19-.55.73-.58,1.21-.61.25-.01.46.13.45.46Z"/><path class="cls-13" d="m106.29,207.93c-.34.97-.64,1.95-1.3,2.78.24-1.02-.13-2.32,1.3-2.78Z"/><path class="cls-13" d="m103.7,213.63c-.02.75-.22,1.45-.57,2.11-.4-.86-.64-1.69.57-2.11Z"/><path class="cls-13" d="m71.31,162.51c-.32-.78-.32-1.54,0-2.32.38.78.4,1.55,0,2.32Z"/><path class="cls-11" d="m162.6,160.79c-.04.06-.08.11-.12.13-.07.08-.16.15-.23.19-.07.04-.13.07-.21.1s-.16.04-.23.05c-.46.07-.96-.1-1.41-.05.46-.49,1.07-.63,1.68-.75.17.11.33.22.51.33h.01Z"/><path class="cls-10" d="m41.49,138.87c-.84-.08-1.2-.53-1.04-1.38.56.3.84.81,1.04,1.38Z"/><path class="cls-11" d="m80.36,154.35c-1.14.1-2.29.18-3.42-.13,1.15-.11,2.3-.07,3.42.13Z"/><path class="cls-8" d="m105.57,226.93c-.46-.4-.46-.81-.02-1.21.38.4.38.8.02,1.21Z"/><path class="cls-10" d="m65.39,142.02c-.36-.34-.32-.79-.33-1.23.55.29.73.68.33,1.23Z"/><path class="cls-13" d="m99.21,226.23c-.33.06-.64.02-.91-.21.4-.35.7-.33.91.21Z"/><path class="cls-10" d="m66.57,134.75c-.47-.01-1.03.11-1.18-.58.47.02.87.23,1.18.58Z"/><path class="cls-10" d="m63.24,140.57c-.09.35-.23.55-.58.24.15-.19.34-.28.58-.24Z"/><path class="cls-10" d="m222.5,147.18c-.1.13-.19.25-.3.38-.1-.12-.19-.26-.29-.38h.6Z"/><path class="cls-13" d="m87.2,218.16c.06-.21.13-.41.21-.62.34.35.15.51-.21.62Z"/><path class="cls-13" d="m86.92,219.37c.07-.19.13-.4.21-.6.3.33.13.5-.21.6Z"/><path class="cls-10" d="m30.3,141.71c-.3-.05-.51-.18-.6-.49.35-.02.52.17.6.49Z"/><path class="cls-11" d="m148.31,196.61c-.05-.27-.1-.53-.13-.79.06-.04.12-.05.18-.01.13.28.13.55-.05.8Z"/><path class="cls-11" d="m149,182.55c0,.28-.01.57-.01.85-.18-.29-.18-.57.01-.85Z"/><path class="cls-11" d="m148.27,197.82v-.41c.17.13.17.28,0,.41Z"/><path class="cls-8" d="m148.39,192.49c-.01.19-.01.38-.02.57-.17-.19-.16-.39.02-.57Z"/><path class="cls-8" d="m148.39,191.86c-.18-.19-.19-.38-.01-.57,0,.18,0,.38.01.57Z"/><path class="cls-10" d="m228.84,133.21c-.07.11-.15.22-.21.33-.07-.19.04-.28.21-.33Z"/><path class="cls-11" d="m148.39,202.58l-.08.07-.05-.1.07-.06h0s.01-.01.01-.01c0,0,0,.01.01.02,0,.02.04.07.04.07Z"/><path class="cls-11" d="m148.35,198.67l-.09.06-.05-.07s.04-.06.05-.06l.09.07Z"/><path class="cls-10" d="m219.48,155.9c-.07.1-.15.21-.23.3-.05-.19.06-.28.23-.3Z"/><path class="cls-10" d="m65.1,133.67s-.05.1-.07.16c-.08-.07-.17-.15-.27-.22.12.01.23.04.34.06Z"/><path class="cls-8" d="m148.33,193.96c-.07-.09-.07-.17.01-.25.06.08.06.17-.01.25Z"/><path class="cls-11" d="m148.92,186.65s-.06.02-.1.04c-.04-.08-.01-.16.07-.19,0,.05.02.11.02.16Z"/><path class="cls-11" d="m85.46,154.76v.1l-.1.02h-.01s.01-.02.01-.02c0-.02.01-.05.02-.06.01-.02.04-.04.07-.04Z"/><path class="cls-6" d="m216.66,109.99c-.1-2.1.15-4.34-.81-6.35-.11-2.4-1.11-4.61-1.52-6.95-2.37-5.23-5.5-9.96-9.42-14.12-1.92-2.04-4.29-3.58-6.62-5.14-.58-.32-1.18-.64-1.77-.96-.77-.24-1.57-.4-2.28-.75-3.58-1.74-7.41-2.88-11.24-3.66-7.46-1.51-15.01-.89-22.5-.12-1.97.21-3.96.22-5.85,1.2-2.57,1.34-5.27,2.49-8.02,3.41-2.13.73-4.16,1.65-5.85,3.01-3.42,2.76-6.67,5.74-10.24,8.31-.44.32-.69.9-1.34.9-1.32,2.05-2.65,4.09-3.97,6.13.01.1-.01.18-.09.27.01.33-.16.55-.41.72h-.01c.02.11,0,.16-.1.18-.1.17-.18.34-.28.5-.1.24-.19.47-.29.72-.97,1.74-1.69,3.58-2.39,5.44-.12.27-.42.45-.35.8.16.7-.27,1.49.34,2.11-.05.25-.11.52-.17.78l.02.09-.06.06c-.9,2.59-1.54,5.22-1.38,8,.04.07.04.15-.01.21-.27,4.95-.36,9.88.64,14.78.8,3.91,1.89,7.72,3.63,11.34.11.02.17.09.19.19.16.12.33.24.5.35.06-.01.11,0,.15.05h1.01c.06-.05.13-.05.19-.02h2.25c.64-.1,1.29-.13,1.92.04.47.01.94.04,1.41.05l.09-.05.07.07h.01c6.82.34,13.64.68,20.4,1.88,4.95.87,9.59,2.5,14.12,4.51,1.72.77,3.18,1.26,4.81-.18.94-.83,2.22-1.12,3.41-1.52,3.91-1.35,7.99-1.76,12.01-2.56,5.53-1.09,11.1-1.26,16.66-1.74l.11-.09.12.06c2.3-.07,4.62-.38,6.85.45.34-.01.69-.02,1.04-.04l-.02-.07c-.86-1.38-.63-2.76-.02-4.17.32-.73.45-1.54.62-2.32.28-1.37,1.07-2.25,2.44-2.55.05-.21.09-.43.12-.63.06-.09.12-.17.19-.25,2.21-7.32,2.05-14.85,1.7-22.37Zm-82.14-21.03c-.15-1.68.92-1.74,2.04-1.89.24-.04.49-.07.74-.11.27-.25.56-.27.86-.05h.97c2.4.01,4.8.04,7.2.05.51.11,1.02.21,1.53.32,2.42.21,4.86.36,7.26.66,1.15.15,2.33.56,2.43,2.02.08,1.14-.84,1.92-2.53,1.88-3.66-.09-7.31-.17-10.95-.57-.34-.04-.7.01-1.04.02-2.1-.21-4.21.06-6.32-.23-1.29-.18-2.08-.61-2.2-2.09Zm8.08,9.91c1.34-1.28,3.68-1.66,5.25-.9,1,.49,1.72,2.33,1.53,3.83-.21,1.6-1.19,2.67-2.48,3.04-1.92.55-3.23-.29-4.42-1.61-.62-1.47-.5-2.91.12-4.35Zm23.19,31.68c-1.93-.38-3.64-1.14-5.12-2.38-1.09-.9-2.11-.83-3.32-.24-5.05,2.45-11.03.84-13.84-3.53-1-1.53-1.65-3.22-1.37-4.97-.56-5.77,6.17-12.29,13.1-10.46.83.22,1.7.15,2.51-.19,2.38-1.01,4.64-.98,6.81.6,1.27.92,2.78.94,4.3.92,5.46-.07,10.44,4.92,10.14,10.36-.41,7.36-6.1,11.27-13.21,9.9Zm25.84-22.1c-2.13-.02-3.58-1.66-3.56-4,.02-2.39,1.19-3.53,3.63-3.52,2.22.01,3.91,1.59,3.9,3.67-.02,2.09-1.87,3.87-3.97,3.85Zm13.9-15.43c-.11,1.32-.96,1.54-2.1,1.57-4.48.12-8.91-.47-13.36-.89-2.04-.19-4.09.02-6.13-.36-1.75-.34-2.04-.57-1.92-2.33.15-2.15,1.92-1.37,3.08-1.68h.01c2.37.12,4.72.26,7.09.38,3.81.02,7.54.79,11.33,1,1.41.07,2.09.98,1.99,2.32Z"/><path class="cls-6" d="m117.25,134.34c-.16.12-.33.24-.5.36-.62.07-1.25.06-1.86-.16-.44-.57-.95-.45-1.46-.12-3.32.04-6.62.11-9.92-.11-.74-.05-1.49.01-2.25.02-.16-.12-.33-.13-.5,0-.57-.05-1.14-.1-1.72-.15h-.58c-1.87.28-3.74.36-5.62.13-.33-.66-.95-.45-1.47-.47-4.04-.17-8.1-.62-12.16,0-2.31.35-4.4-.86-6.65-1.03-1.09-.09-2.19.45-3.25-.1-.35-.17-.8-.17-.92-.66l.08-.05c.23-.02.46-.04.68-.06,2.71-.76,5.5-.6,8.22-.4,8.5.64,16.99,1.34,25.53,1.47.16.16.33.16.5.02.33,0,.66,0,.98.01l.11.06.12-.07c.33,0,.66.01.98.01l.11.07.1-.07c.63.01,1.26.04,1.91.06l.11.04.12-.02c.53.01,1.07.01,1.59.02.68.12,1.35.17,2.02-.06.24,0,.47-.01.72-.01.27.17.53.18.81.06,1.06.04,2.1.06,3.15.1.11.1.22.18.32.28.24.27.49.53.72.81Z"/><rect class="cls-5" x="173.22" y="155.59" width=".01" height=".01"/><path class="cls-5" d="m187.15,149.3c-.89,1-2.44.46-3.35,1.45-3.15,1.24-6.39,2.26-9.34,3.97-.62.01-1.13.13-1.24.87-.4.04-.72.22-.9.6-1.32.27-2.21,1.48-3.6,1.6-.01-.57-.04-1.14-.67-1.43l.05-.12.12.02c.29-.15.44-.39.46-.7,3.86-4.37,8.76-6.55,14.52-6.85.05.89.57.8,1.25.73.89-.09,1.76-.81,2.68-.13Z"/><path class="cls-5" d="m208.32,146.27c-1.04.46-2.15.13-3.23.24-.96.1-1.99-.02-2.7.87-3.01-.18-5.97.13-8.9.83-.76-.11-1.45.09-2.06.52-.22-.04-.44-.07-.66-.11,0-.41-.01-.81-.01-1.23,1.49-.8,3.21-.7,4.77-.77,4.04-.16,8.05-.95,12.12-.69.22.11.44.22.67.33Z"/><path class="cls-6" d="m190.77,148.63c-.5.17-1.01.34-1.52.5-.28-.04-.57-.07-.86-.11-.35-.36-.52-.19-.63.21-.21.02-.4.05-.61.07-.92-.68-1.8.05-2.68.13-.68.07-1.2.16-1.25-.73,2.47-.72,5.04-.78,7.54-1.3,0,.41.01.81.01,1.23Z"/><path class="cls-11" d="m211.64,142.35c-.07,1.04-.53,1.87-1.32,2.55-.47.41-1.04.81-.76,1.6-.41-.07-.83-.16-1.23-.23-.23-.11-.45-.22-.67-.33.58-.36,1.14-.79,1.76-1.07,1.15-.51,1.17-1.48,1.18-2.49.34-.01.69-.02,1.04-.04Z"/><path class="cls-6" d="m168.07,156.35c.62.29.65.87.67,1.44-.33.37-.59.81-1.13.91-.05-.3-.1-.6-.16-.89.1-.35.2-.71.3-1.06,0,0,.02-.1.02-.1.1-.1.2-.2.3-.29Z"/><path class="cls-4" d="m130.51,141.5c-.64.19-1.28.17-1.92-.04.64-.1,1.29-.13,1.92.04Z"/><path class="cls-4" d="m111.54,133.09c-.66.24-1.34.19-2.01.06.66-.25,1.33-.23,2.01-.06Z"/><path class="cls-4" d="m69.16,131.96c-.23.02-.46.04-.69.05.2-.38.41-.71.69-.05Z"/><path class="cls-4" d="m116.54,133.52c-.11-.09-.21-.18-.32-.27.36-.2.3.08.32.27Z"/><path class="cls-4" d="m113.08,133.14c-.28.13-.56.11-.82-.05.28-.13.56-.12.82.05Z"/><path class="cls-5" d="m117.58,134.77c-.27-.02-.55-.05-.83-.07.17-.12.34-.24.5-.36.19.09.38.18.33.44Z"/><path class="cls-4" d="m103.4,133.04c-.17.14-.34.14-.5-.02.17,0,.34.01.5.02Z"/><path class="cls-6" d="m66.86,132.1c-.21.08-.42.15-.63.23.15-.26.37-.3.63-.23Z"/><path class="cls-6" d="m168.69,155.55c-.03.32-.16.56-.46.71-.08-.39.21-.53.46-.71Z"/><path class="cls-4" d="m120.03,114.77l-.07-.11.08-.1c.04.07.04.15-.01.21Z"/><polygon class="cls-4" points="203.74 141.94 203.63 141.99 203.51 141.96 203.62 141.88 203.74 141.94"/><path class="cls-4" d="m132.08,141.57s-.09.02-.09.02l-.07-.05.09-.05.07.07Z"/><path class="cls-4" d="m104.61,133.05l-.11.08s-.12-.07-.12-.07c.07-.05.15-.05.23,0Z"/><path class="cls-4" d="m105.8,133.06l-.1.07s-.11-.07-.11-.07c.07-.05.14-.05.21,0Z"/><polygon class="cls-4" points="107.94 133.14 107.82 133.16 107.7 133.12 107.83 133.06 107.94 133.14"/><path class="cls-4" d="m126.35,141.46l-.1.08-.1-.06c.06-.05.13-.05.19-.02Z"/><path class="cls-4" d="m124.5,141.09c-.07-.06-.13-.13-.19-.19.11.02.17.09.19.19Z"/><path class="cls-4" d="m125.15,141.49l-.1.05-.05-.1c.06-.01.11,0,.15.05Z"/><polygon class="cls-2" points="107.94 87.58 107.93 87.59 107.93 87.58 107.94 87.58"/><polygon class="cls-2" points="107.94 87.58 107.93 87.59 107.93 87.58 107.94 87.58"/><path class="cls-7" d="m229.81,80.96c-.09.58-.17,1.17-.25,1.74-.05.19-.1.39-.15.58-.41.58-.73,1.2-.9,1.89-.59.92-1.19,1.85-1.77,2.78-.11.08-.21.17-.3.25-.45.09-.83-.06-1.17-.32,0-.9-.66-1.45-1.15-2.05-1.77-2.19-3.6-4.34-5.4-6.48l-.04-.05c-2.08-1.63-3.91-3.53-6.16-4.94-.55-.35-1.09-.7-1.77-.72-.06-.1-.12-.18-.18-.28-.05-.18-.1-.38-.13-.57,1.02-.84,2.02-1.72,3.29-2.17.56-.39,1.14-.74,1.83-.84.44-.41,1-.29,1.51-.36,1.21,0,2.43-.01,3.63-.02l1.35.4c.07.05.15.1.22.15.02.01.05.04.07.05.05.04.11.07.16.1.02.18.12.28.32.24.5.23,1.01.45,1.51.68,1.75,1.38,3.29,2.98,4.53,4.86.02.75.29,1.42.66,2.06-.02.33-.17.69.21.94.04.69.07,1.4.11,2.09Z"/><path class="cls-10" d="m224.37,94.52h0s-.01.01-.01.01c0-.01-.01-.01-.01-.02.01,0,.01.01.02.01Z"/><path class="cls-8" d="m162.66,63.8c-.19-.06-.27.06-.32.21h-.01c-3.07.04-5.88,1.23-8.74,2.11-1.53.22-2.81,1.1-4.21,1.64-.33.06-.67.17-1.01.18-.23.01-.57,0-.69-.15-.19-.23-.12-.56.1-.81,2.02-2.28,4.27-4.14,7.47-4.46.84-.07,1.66-.22,2.5-.3,1.72-.18,3.36.18,4.93.87.36.24.33.47-.01.7Z"/><path class="cls-12" d="m246.97,121.56c0,8.99.01,17.99-.36,26.98-.07,1.85-.21,3.7-.32,5.56-.85.64-.59,1.37-.18,2.13.04,4.43-.12,8.85-.32,13.29-.34,7.52-.58,15.05-.9,22.58-.17,3.75-.44,7.5-.66,11.27l.07.91c-.02.19-.05.39-.07.6-.27.38-.25.78-.15,1.2-.04.4-.08.81-.13,1.21-.49.55-.27,1.19-.24,1.81-.04.19-.07.39-.11.58-.3.25-.25.6-.19.94-.04,1.34-.43,2.61-.7,3.91l-.22.62c-.62.69-.9,1.57-1.17,2.4-.84,2.64-2.36,4.72-4.62,6.29-.16.19-.32.39-.47.58-.13.04-.27.07-.4.11-1.34,1.48-3.19,2.04-4.98,2.67-11.61,4.04-23.22,8.06-34.84,12.07-1.42.49-2.88.86-4.32,1.29-2.53.8-5.05,1.59-7.58,2.39h-.01c-3,1.69-6.28,1.83-9.59,1.79-5.59.44-10.76-1.09-15.69-3.5-2.08-1.01-3.19-3.02-3.95-5.15-1.17-3.27-1.25-6.72-1.49-10.12-.21-2.81-.24-5.62-.35-8.44-.41-.89-.39-1.79-.09-2.7-.08-.8-.17-1.6-.25-2.42.04-.5.09-1.01.12-1.51-.05-4.34-.11-8.67-.16-12.99v-1.52c-.04-5.67.44-11.32.89-16.96.51-6.38,3.33-11.23,8.5-14.85.97-.69,1.59-.63,2.13.46,1.24,2.54,2.96,4.65,5.45,6.06,2.82,1.26,5.72,2.23,8.83,2.42,1.13.06,1.77.66,2.21,1.71.79,1.87.87,3.81,1.02,5.77.05.7.11,1.41.16,2.1.44,4.85.09,9.72.4,14.57-.3.79-.36,1.57.08,2.33.24,2.04.34,4.09.29,6.16-.21,7.47-.4,14.95-.61,22.42-.04,1.11-.17,2.2-.27,3.29-.38,4.24-2.31,7.25-6.57,8.55-1.58.49-1.68,1.41-.61,3.08,2.17.96,3.84-.39,5.57-1.27.89-.46,1.68-1.08,2.51-1.62,1.72-2.22,3.02-4.65,3.29-7.48.34-3.55.76-7.1.8-10.65.12-9.64.12-19.3.02-28.94-.02-2.68-.16-5.39-.81-8.03-.02-.81-.04-1.61-.06-2.42.01-.6.01-1.2.02-1.81-.11-2.02-.5-4-1.01-5.93-.41-1.54.35-1.79,1.47-1.87,5.36-.41,10.42-2.09,15.5-3.66,3.98-1.23,7.93-2.6,11.88-3.93,2.46-.84,4.65-2.13,6.56-3.92,1.17-1.09,2.03-2.34,2.51-3.86.36-1.17,1.08-1.76,2.36-1.62,1.06.12,2.09-.13,3.12-.32,1.12-.22,1.89-1.34,1.76-2.55-.12-1.06-1.09-1.77-2.32-1.59-.98.15-2.21.75-2.72-.34-.4-.89.6-1.75,1.13-2.59,3.12-4.94,5.46-10.19,6.85-15.91.11-.46.22-.92.32-1.38.08-.38.17-.76.24-1.14.02-.13.06-.28.08-.41.13-.69.25-1.38.36-2.08.27-1.65.46-3.32.57-4.98.02-.35.05-.72.06-1.07.02-.33.04-.66.04-1,.02-.46.02-.94.02-1.41,0-.42,0-.86-.01-1.3.09-5.39-1.14-10.58-2.48-15.74-.3-1.08-.78-2.13-.69-3.28.08-1.17-.39-2.05-1.31-2.73-.52-1.17-1.02-2.37-1.6-3.51-.39-.77-.16-1.18.41-1.77,2.54-2.67,4.15-5.82,4.43-9.55.16-.97-.38-2.34,1.42-2.3.32.35.63.72.95,1.07.75.04,1.12.76,1.75,1.02.79.85,1.57,1.7,2.36,2.56,4.19,5.14,5.74,11.23,6.38,17.66-.24.52-.38,1.03.25,1.41.02.34.06.67.08,1.01-.58,1.62-.5,3.19.23,4.75.04,4.17.11,8.33.11,12.51Z"/><path class="cls-10" d="m226.74,87.96c-.04.16-.01.39-.3.25.1-.09.19-.17.3-.25Z"/><path class="cls-12" d="m141.5,71.62c-.56.86-1.45,1.15-2.37,1.38-.41.44-.84.86-1.25,1.3-1.15.49-2.13,1.24-3.02,2.09-.21.12-.4.24-.6.36-.33.01-.53.17-.61.49-.5.44-1,.89-1.49,1.32-.56.04-.85.34-.9.89-.81.91-1.61,1.81-2.43,2.72-.34.4-.69.8-1.04,1.2-.3.1-.44.32-.43.63-.05.08-.08.18-.12.28-.33.07-.49.28-.51.61-.55.62-1.08,1.23-1.62,1.83-.32.06-.47.27-.5.57-3.61,6.35-6.72,12.9-7.97,20.17-.29,1.72-.43,3.49-.64,5.22.21.85-.09,1.66-.19,2.48-.16.36-.44.72-.46,1.08-.11,2.94-.36,5.87.16,8.79.08.47.17.9.76.91.11.53.28,1.07.3,1.61.02.7-.28,1.45-1.08,1.31-2.34-.38-4.71.09-7.04-.33,0-.15,0-.3.01-.46.38-.22.33-.41-.05-.58-.43-.97-.58-1.98-.45-3.02-.64-2.03.11-4.06-.04-6.07-.35-2-.41-4,.11-5.99.07-1.02.15-2.05.22-3.08-.32-.66-.41-1.29.23-1.83.02-.39.04-.79.06-1.19-.24-1.51.05-2.98.38-4.44.41-4.21,1.21-8.35,2.31-12.45.55-1.99,1.4-3.85,2.22-5.72.1-.21.21-.4.3-.61.46-.83.91-1.65,1.36-2.48,1.93-3.36,4.72-5.73,8.31-7.18.86-.35,1.64-.98,2.64-1.02.56-.01,1.08-.16,1.51-.55.21-.02.4-.05.59-.07.6-.01,1.17-.1,1.57-.62,3.55-.98,7.1-1.91,10.77-2.32.72-.07,1.74-.44,2.11.56.4,1.02-.33,1.68-1.12,2.2Z"/><path class="cls-13" d="m108.47,128.09c-.01-.19-.04-.39-.05-.58.38.17.42.36.05.58Z"/><path class="cls-5" d="m214.7,133.87c-.66,1.21-1.04,2.51-1.15,3.9-.13.49-.28.97-.42,1.47-.91.81-.89,1.91-.85,3-.22.01-.44.02-.66.04-.86-1.38-.63-2.76-.02-4.17.32-.73.45-1.54.62-2.32.28-1.37,1.07-2.25,2.44-2.55.01.21.04.42.05.63Z"/><path class="cls-7" d="m230.24,123.6c-.08.07-.08.16-.02.25.08.62-.35,1.2-.12,1.83.01.11.01.21.01.32-.57,2.27-.95,4.59-1.18,6.92-.06.09-.09.18-.09.28-.17.05-.28.13-.21.33-.05.3-.1.6-.15.9-.51.62-.73,1.35-.78,2.14-1.25,3.29-2.61,6.53-4.38,9.59-.22.39-.32.86-.83,1.02h-.6c-.24-.22-.47-.43-.72-.63-.36-.52-.76-.98-1.36-1.24-.01,0-.01-.01-.02-.01-.11-.09-.22-.17-.33-.25-1.02-.46-1.91-1.23-3.01-1.53-.21-.12-.4-.24-.61-.36-1.2-.3-2.39-.61-3.59-.91-.04-1.09-.06-2.19.85-3,.15-.5.29-.98.42-1.47.11-1.38.5-2.68,1.15-3.9-.01-.21-.04-.43-.05-.63.05-.21.09-.43.12-.63.06-.09.12-.17.19-.25,2.21-7.32,2.05-14.85,1.7-22.37-.1-2.1.15-4.34-.81-6.35-.11-2.4-1.11-4.61-1.52-6.95-2.37-5.23-5.5-9.96-9.42-14.12-1.92-2.04-4.29-3.58-6.62-5.14-.58-.32-1.18-.64-1.77-.96-.77-.24-1.57-.4-2.28-.75-3.58-1.74-7.41-2.88-11.24-3.66-7.46-1.51-15.01-.89-22.5-.12-1.97.21-3.96.22-5.85,1.2-2.57,1.34-5.27,2.49-8.02,3.41-2.13.73-4.16,1.65-5.85,3.01-3.42,2.76-6.67,5.74-10.24,8.31-.44.32-.69.9-1.34.9.79-1.99,2.44-3.32,3.83-4.81,2.72-2.96,5.65-5.77,9.1-7.86,3.12-1.87,6.22-3.85,9.68-5.11.22-.06.44-.12.64-.17.1-.05.19-.09.29-.13,1.09-.33,2.2-.66,3.29-.98.57-.17,1.13-.38,1.7-.52,2.45-.62,4.99-.95,7.4-1.81,2.38-.18,4.76-.35,7.14-.57,3.17-.28,6.32.16,9.46.33,3.19.18,6.32,1.03,9.44,1.74,2.09.47,4.04,1.25,5.99,2.1.41.07.86-.05,1.2.32.11.1.22.19.34.3.19.02.38.05.57.07.11.07.22.15.32.23,1.2.3,2.23.96,3.3,1.55.19.01.39.01.58.01,1.72,1.45,3.87,2.19,5.66,3.55,1.86,1.41,3.83,2.7,5.32,4.53.27-.02.46.04.53.32.1.11.19.22.29.32.1.11.19.22.29.33.81.58,1.46,1.32,2.05,2.13l.06.07c.07.07.13.15.19.21l.08.02v.07c.47.24.81.57.98,1.06h0s.01.01.01.01c.7.8,1.38,1.62,2.02,2.45.27.35.52.7.78,1.07.29.43.57.85.83,1.29.19.28.36.57.51.87.04.05.06.1.08.15.15.25.28.51.4.78.06.12.12.24.18.36h0c.06.58-.25,1.3.63,1.49h.01c.07.11.15.23.23.34.4.6.81,1.2,1.23,1.81.02.21.04.4.06.61.58,1.31,1.17,2.61,1.76,3.92-.06.46.02.87.35,1.21.33,2.67,1.13,5.26,1.59,7.92.76,4.42.83,8.82.64,13.26Z"/><path class="cls-8" d="m224.37,94.52h0s-.01.01-.01.01c-.89-.19-.57-.91-.63-1.48.47.38.64.89.64,1.47Z"/><path class="cls-8" d="m224.61,94.87c-.09-.11-.16-.23-.23-.34h-.01s-.01-.01-.01-.02c.01,0,.01.01.02.01.05.01.08.04.11.05s.05.04.06.05c.06.06.08.13.06.25Z"/><path class="cls-8" d="m230.22,123.86c-.06-.1-.06-.18.02-.25.05.08.05.17-.02.25Z"/><path class="cls-8" d="m174.46,154.71c-.11.73-.6.91-1.23.89h-.01c.11-.75.62-.87,1.24-.89Z"/><path class="cls-8" d="m173.24,155.59h0c-.09.55-.46.63-.91.61h0c.18-.39.5-.57.9-.61h.01Z"/><path class="cls-11" d="m182.32,200.01c-.45-.77-.39-1.54-.08-2.33.49.75.4,1.54.08,2.33Z"/><path class="cls-7" d="m116.4,142.3c-5.16.45-10.29,1.41-15.19,2.93-3.27,1.01-6.82,1.72-9.61,4.03-2.36.28-4.09,1.81-6.02,2.94-1.66.91-3.06,2.47-5.22,2.15-1.13-.21-2.27-.24-3.42-.13-2.81-.29-5.66-.19-8.44-.75-2.45-.49-4.77-1.4-7.06-2.38-.39-.17-.79-.46-.75-.81.05-.39.56-.53.95-.63,1.88-.44,3.75-.9,5.63-1.28,1.68-.35,2.94-.86,3.1-2.96.15-1.8.84-3.53,1.23-5.31.19-.91.39-1.88-.49-2.62-1.09-1.34-2.73-1.76-4.21-2.43h0c-.11-.09-.21-.18-.32-.28h-.01c-.3-.36-.7-.57-1.18-.6-.12-.11-.24-.23-.36-.34.02-.06.05-.11.07-.16,4.93.27,9.81,1.17,14.77,1.13.69-.04,1.38-.07,2.08-.12.59-.36,1.26-.23,1.91-.24,3-.04,6-.07,9-.11,1.88.23,3.75.15,5.62-.13.19.13.39.15.58,0,.58.05,1.15.1,1.72.15h.5c.75-.01,1.51-.07,2.25-.02,3.3.22,6.61.15,9.92.11.46.35.96.29,1.46.12.61.22,1.24.23,1.86.16.28.02.56.05.83.07.38,1.35,1.01,2.59,1.32,3.96.61,2.65.19,3.34-2.5,3.57Z"/><path class="cls-5" d="m114.9,134.54c-.5.17-1,.23-1.46-.12.51-.33,1.02-.45,1.46.12Z"/><path class="cls-5" d="m101.27,134.34h-.5c.17-.13.34-.12.5,0Z"/><path class="cls-5" d="m99.05,134.19c-.19.15-.39.13-.58,0h.58Z"/><path class="cls-9" d="m168.87,110.29c-1.52.01-3.02,0-4.3-.92-2.17-1.58-4.43-1.6-6.81-.6-.81.34-1.69.41-2.51.19-6.93-1.83-13.66,4.69-13.1,10.46-.28,1.75.38,3.44,1.37,4.97,2.82,4.37,8.79,5.99,13.84,3.53,1.2-.58,2.22-.66,3.32.24,1.48,1.24,3.19,2,5.12,2.38,7.12,1.37,12.8-2.54,13.21-9.9.3-5.44-4.68-10.43-10.14-10.36Zm1.64,15.97c-1.98.34-3.89.44-5.77-.58-1.41-.77-2.37-1.8-3.01-3.23-.92-2.02-2.44-2.3-3.75-.53-1.41,1.91-3.33,3-5.53,3.08-2.19.08-4.19-.9-5.38-2.99-1-1.74-1.09-3.56-.16-5.29,1.27-2.39,3.39-3.59,5.46-3.73,2.71.02,4.47.39,5.59,2.55.92,1.81,3.83,2.02,5.42.67,4.01-3.39,9.85-1.64,11.17,3.4.56,2.1-.68,6.07-4.04,6.65Z"/><path class="cls-9" d="m205.54,93.01c-.11,1.32-.96,1.54-2.1,1.57-4.48.12-8.91-.47-13.36-.89-2.04-.19-4.09.02-6.13-.36-1.75-.34-2.04-.57-1.92-2.33.15-2.15,1.92-1.37,3.08-1.68h.01c2.37.12,4.72.26,7.09.38,3.81.02,7.54.79,11.33,1,1.41.07,2.09.98,1.99,2.32Z"/><path class="cls-9" d="m157.56,89.94c.08,1.14-.84,1.92-2.53,1.88-3.66-.09-7.31-.17-10.95-.57-.34-.04-.7.01-1.04.02-2.1-.21-4.21.06-6.32-.23-1.29-.18-2.08-.61-2.2-2.09-.15-1.68.92-1.74,2.04-1.89.24-.04.49-.07.74-.11.29-.01.57-.02.86-.05h.97c2.4.01,4.8.04,7.2.05.51.11,1.02.21,1.53.32,2.42.21,4.86.36,7.26.66,1.15.15,2.33.56,2.43,2.02Z"/><path class="cls-9" d="m195.61,104.6c-.02,2.09-1.87,3.87-3.97,3.85-2.13-.02-3.58-1.66-3.56-4,.02-2.39,1.19-3.53,3.63-3.52,2.22.01,3.91,1.59,3.9,3.67Z"/><path class="cls-9" d="m149.37,101.79c-.21,1.6-1.19,2.67-2.48,3.04-1.92.55-3.23-.29-4.42-1.61-.62-1.47-.5-2.91.12-4.35,1.34-1.28,3.68-1.66,5.25-.9,1,.49,1.72,2.33,1.53,3.83Z"/><path class="cls-11" d="m125.12,86.73c-.07.21-.15.4-.22.6-.1-.01-.18-.01-.28-.02.02-.3.18-.51.5-.57Z"/><path class="cls-5" d="m188.39,149.02c-.21.07-.42.13-.63.21.11-.4.28-.57.63-.21Z"/><path class="cls-11" d="m127.25,84.29c-.01.34-.21.52-.51.61.02-.33.18-.53.51-.61Z"/><path class="cls-11" d="m127.79,83.38c-.01.3-.13.52-.43.63-.01-.32.12-.53.43-.63Z"/><path class="cls-10" d="m125.13,95.17c.01.33-.16.55-.41.72-.09-.36.05-.62.41-.72Z"/><path class="cls-6" d="m138.17,86.9c-.29.02-.57.04-.86.05.27-.25.56-.27.86-.05Z"/><path class="cls-3" d="m152.38,112.98c2.7.03,4.47.39,5.58,2.55.93,1.81,3.83,2.01,5.42.67,4.01-3.39,9.86-1.64,11.18,3.4.55,2.11-.69,6.07-4.05,6.65-1.97.34-3.89.43-5.77-.58-1.41-.76-2.36-1.8-3.01-3.23-.92-2.02-2.44-2.29-3.74-.53-1.42,1.9-3.34,3-5.53,3.08-2.19.08-4.19-.9-5.38-2.99-.99-1.74-1.09-3.56-.16-5.3,1.28-2.39,3.39-3.59,5.47-3.73Z"/></g></svg>