<?xml version="1.0" encoding="utf-8"?>
<!-- Generator: Adobe Illustrator 27.3.0, SVG Export Plug-In . SVG Version: 6.00 Build 0)  -->
<svg version="1.1" id="_레이어_2" xmlns="http://www.w3.org/2000/svg" xmlns:xlink="http://www.w3.org/1999/xlink" x="0px"
	 y="0px" viewBox="0 0 294.8 294.8" style="enable-background:new 0 0 294.8 294.8;" xml:space="preserve">
<style type="text/css">
	.st0{fill:#FFFFFF;}
	.st1{fill:#2D292A;}
	.st2{fill:#FF277A;}
	.st3{fill:#232325;}
	.st4{fill:#686667;}
	.st5{fill:#FEF8FA;}
	.st6{fill:#FEF7F9;}
	.st7{fill:#FFECF1;}
	.st8{fill:#433FA5;}
	.st9{fill:#EF4D85;}
	.st10{fill:#AFAEAE;}
	.st11{fill:#A2A2A3;}
	.st12{fill:#FEE1EB;}
	.st13{fill:#363334;}
	.st14{fill:#E2E1E1;}
	.st15{fill:#683648;}
	.st16{fill:#F6EFF2;}
	.st17{fill:#E8E7E7;}
	.st18{fill:#3A2E2F;}
	.st19{fill:#996076;}
	.st20{fill:#ABA9AD;}
	.st21{fill:#4F3641;}
	.st22{fill:#9A989D;}
	.st23{fill:#FFE6EE;}
	.st24{fill:#EFF0F0;}
	.st25{fill:#7E8888;}
	.st26{fill:#FEF2F6;}
	.st27{fill:#989699;}
	.st28{fill:#E2DEDF;}
	.st29{fill:#AFABAC;}
	.st30{fill:#949394;}
	.st31{fill:#A9A6A7;}
	.st32{fill:#FEE6EF;}
	.st33{fill:#FFDCE8;}
	.st34{fill:#EFD4DD;}
	.st35{fill:#969495;}
	.st36{fill:#F4F2F3;}
	.st37{fill:#F6C8D8;}
	.st38{fill:#9E9CA5;}
	.st39{fill:#FFF2F7;}
	.st40{fill:#EFC7D5;}
	.st41{fill:#B5B1B2;}
	.st42{fill:#9C9AA1;}
	.st43{fill:#332B2C;}
	.st44{fill:#FDEBF0;}
	.st45{fill:#2E292A;}
	.st46{fill:#52373E;}
	.st47{fill:#76485C;}
	.st48{fill:#B598A0;}
	.st49{fill:#B8B4B5;}
	.st50{fill:#AEB0B1;}
	.st51{fill:#A8AEAE;}
	.st52{fill:#828585;}
	.st53{fill:#888D8D;}
	.st54{fill:#896465;}
	.st55{fill:#618283;}
	.st56{fill:#627677;}
	.st57{fill:#30303A;}
</style>
<g id="_레이어_1-2">
	<rect class="st0" width="294.8" height="294.8"/>
	<path class="st1" d="M84.2,174c-0.6-0.5-1-1.1-1.6-1.9c-0.3-0.4-0.6-0.6-1.3-0.5c-4,0.9-8,0.5-12.1,0.2c-1.9-0.1-3.7-0.4-5.3-1.1
		c-1.1-0.4-2.1-1.1-2.8-2c-1.5-1.9-1.3-4.5,0.5-6.2c1.8-1.8,4.1-2.7,6.3-3.5c3.5-1.5,7.1-2.9,10.8-4.1c3.5-1,7.1-2,10.7-2.2
		c1.6-0.1,3-0.1,4.6,0.2c1,0.2,2,0.2,3,0c0.2-0.2,0.6,0,0.8-0.2c0.3-0.1,0-0.2-0.1-0.3c-2.1-0.6-4.1-1.7-5.8-2.9
		c-0.6-0.4-1.3-0.6-2-0.6c-1.4,0.1-2.7-0.4-3.9-1c-0.8-0.4-1.7-0.6-2.7-0.5c-2.2,0.3-4.3-0.1-6.4-0.6c-4.4-0.9-8.9-2.1-13-3.7
		c-3.8-1.5-7.4-3.2-10.8-5.3c-0.6-0.4-1.1-0.7-2-0.4c-0.9,0.3-1.9-0.6-1.8-1.8c0-0.8,0.2-1.6,0.5-2.3c0.5-1,0.9-2.1,1.1-3.2
		c0.1-0.7,0.4-1.5,0.7-2.2c1.6-4.1,3.3-8.1,5.3-12c0.4-0.9,0.8-1.9,1.1-2.8c0.6-1.7,1.5-3.2,2.3-4.7c0.3-0.6,0.5-1.3,0.6-2
		c0.5-4,1.5-7.8,2.8-11.6c0.1-0.3,0.2-0.6,0.3-0.8c0.9-3.2,2.3-6.4,3.8-9.4c2.4-5.2,5.5-10.1,9.2-14.5c1.7-2,3.3-4,5.3-5.6
		c0.4-0.3,0.7-0.6,0.5-1.3c-2-6-2.1-12.3-2.2-18.7c0-2.9,0.3-5.7,0.8-8.6c0.4-2.1,1.1-4.2,2.1-6c0.7-1.4,1.7-2.6,2.9-3.7
		c0.7-0.5,1.1-1,0.8-2.1c-0.3-1,0.3-2.1,1.5-2.6c1.7-0.8,3.3-1.1,5.2-0.9c3.7,0.5,6.7,2.1,9.6,4.3c1.9,1.4,3.7,2.8,5.3,4.3
		c0.2,0.1,0.3,0.2,0.5,0.2c0.7,0.5,1.3,1.1,1.9,1.8c0.3,0.6,0.9,1,1.4,1.7c0.2,0.4,0.4,0.8,0.7,1.3c0.1,0.2,0.2,0.4,0.3,0.6
		c0.1,0.1,0.1,0.2,0.2,0.3c0.5,0.7,0.8,1.5,1.3,2.3c0.3,0.8,0.7,1.8,1,2.6c0.5,1,0.9,2.1,1.4,3.2c0.1,0.2,0,0.7,0.5,0.4
		c0.1-0.1,0.1-0.2,0.2-0.2c0.1-0.1,0.1-0.2,0.2-0.2l0.1-0.1c0.1-0.1,0.2-0.2,0.2-0.2c0.5-0.5,1-1,1.6-1.6c0.1-0.1,0.2-0.1,0.3-0.2
		c0.1-0.1,0.3-0.2,0.4-0.3c0.1-0.1,0.2-0.2,0.2-0.2c0.1-0.1,0.2-0.2,0.3-0.2c1.3-1,2.8-1.6,4.4-1.9c0.9,0,1.9,0,2.7,0
		c0.1,0,0.2,0,0.4,0.1c0.4,0.1,0.8,0.2,1.3,0.3c0.2,0,0.4,0.1,0.6,0.2c0.1,0,0.2,0.1,0.3,0.1c0.1,0.1,0.2,0.1,0.4,0.2
		c0.1,0,0.2,0.1,0.3,0.1c0.2,0.1,0.4,0.1,0.6,0.2c0.1,0,0.2,0.1,0.3,0.1c1.1,0.7,2.3,1.3,3.2,2.2c0.8,0.8,1.4,0.8,2.1,0
		c0.1-0.2,0.3-0.3,0.5-0.4c1.1-0.9,2.2-2,3.4-2.7c0.6-0.3,1-0.8,1.7-1.1c0.4-0.2,0.9-0.5,1.4-0.8c0.4-0.3,0.9-0.4,1.4-0.8
		c0.6-0.4,1.3-0.7,2-1.1c1.9-0.8,3.7-1.9,5.5-2.7c0.6-0.3,1.4-0.5,2-0.8c1.4-0.5,2.7-1,4.2-1.6c0.1,0,0.2-0.1,0.3-0.1
		c0.2-0.1,0.4-0.1,0.7-0.2c0.6-0.1,1.1-0.3,1.7-0.5c0.1,0,0.2-0.1,0.3-0.1c0.2-0.1,0.4-0.1,0.7-0.2c0.6-0.1,1.3-0.3,1.8-0.5
		c0.4-0.1,0.7-0.2,1.1-0.3c2.4-0.6,4.8-1,6.9-2.4c1.1-0.2,2.2,0,3.3-0.1c0.7,0,1.5-0.5,2.2-0.4c0.9,0.3,1.8,0.8,2.4,1.7
		c0.1,0.2,0.3,0.4,0.4,0.6c0.1,0.1,0.1,0.2,0.2,0.3c0.8,1.3,1.3,2.6,1.6,4c0,0.1,0.1,0.2,0.1,0.4c0,0.4,0.1,0.7,0.2,1.1
		c0,0.1,0.1,0.2,0.1,0.4c0,0.1,0,0.3,0.1,0.4c0.3,1.4,0.2,2.7,0.4,4.1c0.1,0.6,0.1,1.1,0.1,1.8c0,0.8,0,1.7,0.2,2.4
		c0.1,0.3,0.1,0.6,0.1,0.9c0,0.2,0,0.3,0,0.5c0,2.4,0.1,4.7,0,7.1c0,0.5,0,0.9,0.3,1.4c0.1,0.1,0.1,0.3,0.1,0.4
		c0.1,2.3,0.2,4.7-0.5,7c0,0.1,0,0.3-0.1,0.4c-0.1,0.4-0.2,0.7-0.2,1.1c0,0.1-0.1,0.2-0.1,0.4c-0.1,0.3-0.2,0.7-0.3,1.1
		c-0.2,0.6,0.1,1.1,0.1,1.8c0,1.3,0.2,2.5-0.3,3.7c-0.1,0.3-0.2,0.6-0.4,0.9c-0.4,1.1-1.1,2.1-1.7,3c-0.3,0.5-0.3,0.9,0.1,1.5
		c3.3,3.7,5.3,8.1,7.1,12.7c1.1,2.8,1.9,5.8,2.5,8.8c0.1,0.2,0.1,0.4,0.1,0.6c0.1,0.3,0.1,0.5,0.2,0.8c0.4,1.9,0.5,3.8,0.7,5.5
		c0.3,0.7,0.9,1.3,1.5,1.8c0.1,0.1,0.2,0.2,0.3,0.3c0.1,0.1,0.1,0.2,0.2,0.2l0.1,0.1c0.1,0.1,0.1,0.2,0.2,0.2
		c0.1,0.1,0.1,0.2,0.2,0.3c0.1,0.1,0.2,0.3,0.2,0.4c0.1,0.2,0.3,0.4,0.4,0.6c0.1,0.1,0.1,0.2,0.2,0.2l0.1,0.1
		c0.2,0.3,0.5,0.7,0.7,1.1c0.3,0.4,0.5,0.8,0.8,1.4c0.2,0.4,0.5,0.8,0.8,1.4c0.1,0.1,0.1,0.2,0.2,0.3c0.1,0.2,0.2,0.4,0.4,0.6
		c0.1,0.1,0.2,0.3,0.3,0.4c1.7,2.8,3.2,5.5,4.7,8.4c0.1,0.1,0.1,0.2,0.1,0.3c0.1,0.2,0.1,0.3,0.1,0.5c0,0.1,0.1,0.2,0.1,0.3
		c0.1,0.2,0.2,0.4,0.3,0.6c0.1,0.2,0.2,0.4,0.3,0.6c1,2.3,1.9,4.6,2.4,7c0.2,0.8,0.5,1.6,1,2.2c0.6,0.7,0.6,1.5,0.4,2.3
		c-0.5,1.9-1.6,3.4-2.5,5c-0.3,0.4-0.8,0.8-1.1,1.3c-0.1,0.1-0.2,0.3-0.4,0.4c-2.3,2.4-5.1,3.9-8.2,5c-0.1,0-0.2,0.1-0.3,0.1
		c-0.2,0.1-0.4,0.1-0.7,0.2c-0.5,0.2-1,0.3-1.6,0.5c-0.7,0.2-1.4,0.4-2.1,0.6c-0.4,0.1-0.8,0.2-1.3,0.3c-4.6,1.3-9.3,2-14.1,2.5
		c-0.8,0-1.7,0-2.5,0.2c-1.5-0.1-2.7,0.6-4.4,1c1.4,0.9,2.3,2,3.4,2.9c1.6,1.4,2.9,2.7,4.3,4.3c0.7,0.8,1.7,1.4,2.6,1.9
		c3,1.6,6,3,8.8,4.9c0.4,0.3,0.9,0.6,1.3,0.9c0.7,0.8,1.7,1.6,2.2,2.6c0.1,0.2,0.2,0.4,0.3,0.6c0.3,0.6,0.3,1.3,0.5,1.9
		c0.1,0.8-0.2,1.6-0.5,2.3c-0.4,0.7-1,1.3-1.8,1.7c-0.4,0.2-0.9,0.4-1.5,0.5c-3.5,0.7-7.1,0.7-10.7,0.5c-0.8,0-1.7-0.2-2.4-0.7
		l-0.1-0.1c0.4-1.1,0.2-2.2,0-3.3c0.5-0.3,1.1-0.2,1.7-0.2c0.8,0,1.7,0,2.4-0.3c0.7-0.3,1.5-0.2,2.1-0.1c1.4,0.3,2.7-0.1,4.1-0.2
		c0.7-0.1,0.6-0.5,0.2-0.9c-0.7-0.7-1.6-1.4-2.4-1.9c-2.1-1.3-4.3-2.4-6.4-3.7c-0.7-0.4-1-0.4-1.1,0.6c-0.3,2-0.4,4.1-1.4,6
		c-0.6,0.1-0.9-0.3-1.3-0.6c-2.1-2.2-4.6-3.8-7-5.4c-0.9-0.6-2-0.6-2.9-0.1c-0.9,0.5-1.4,1.5-1.1,2.5c0.4,2.7,0.9,5.4,1.5,8.2
		c1.1,5.9,3.5,11.6,4.1,17.6c0.1,1.4,0.6,2.6,0.8,4c0.4,2.2,1.4,2.8,3.5,2.8c0.3,0,0.5,0,0.8,0.1c0.3,0.2,0.4,0.6,0.3,0.9
		c-0.4,3.7-0.1,7.4-1.3,11.1c-0.2,0.6-0.4,1.3-0.8,1.9c-0.6,0.8-1.4,1.3-2.3,0.9c-1-0.3-1.1-1.1-1.1-2.1c0-0.4,0.1-0.9-0.1-1.4
		c-0.8,0.3-1.6,0.9-2.3,1.5c-5.4,3.8-11.6,5.6-17.8,7.2c-2.2,0.5-4.3,0.9-6.5,1.1c-0.8,0.1-1.3,0.3-1,1.4c1.3,5.8,1.5,11.7,1.5,17.6
		c0,0.8,0,1.7-0.2,2.5c-0.1,0.8,0.2,1,0.9,0.8c0.9-0.2,1.9-0.5,2.7-0.7c4.3-1.3,8.7-2.2,12.9-3.2c0.4-0.1,0.9,0,1-0.4
		c0.2-0.5-0.4-0.7-0.6-1c-2.3-2.7-4.3-5.7-6.4-8.8c-1.3-1.8-2.2-3.8-2.7-5.8c-0.2-0.7-0.2-1.5-0.2-2.2c0.1-0.9,0.4-1.7,1.4-2
		c0.9-0.3,1.9-0.1,2.6,0.6c0.4,0.5,0.9,1,1.3,1.6c2.8,4.4,5.2,9,7.4,13.6c0.1,0.3,0.2,0.6,0.3,0.9c0.7,2.3,0.7,2.3,3,1.5
		c2.8-1,5.6-2.1,8.2-3.7c0.2-0.2,0.6-0.2,0.7-0.7c-1.3-0.8-2.6-1.7-4-2.4c-2.6-1.7-5.3-3.2-7.5-5.4c-1.6-1.6-3-3.3-3.7-5.5
		c-0.3-1.1-0.1-2.2,0.8-2.9c0.9-0.7,2-0.5,2.9,0c0.4,0.2,0.8,0.5,1.1,0.9c2.6,3.1,5.9,5.5,9,8.1c1.5,1.4,2.9,2.7,4.3,4.2
		c0.6,0.7,1.1,0.8,1.9,0.2c2.8-2,5.3-4.3,7.5-6.9c0.7-0.8,1.6-1.7,2.3-2.5c0.5-0.5,0.6-0.9-0.2-1.4c-0.9-0.5-2-1-3-1.6
		c-3.1-1.5-6.3-2.8-9-4.9c-0.3-0.2-0.6-0.5-0.9-0.8c-0.9-1.1-0.9-2.4,0-3.2c0.9-0.8,2.5-0.6,3.4,0.4c0.3,0.4,0.7,0.6,1.1,0.8
		c3,1.6,6.2,2.8,9.1,4.7c0.4,0.3,0.9,0.4,1.3,0.8c1.1,1.7,2.3,0.7,3.4,0.2c0.6-0.2,0.7-0.8,0.7-1.4c0.2-2.3-0.1-4.7,0.2-7
		c0.1-0.6-0.4-0.9-0.9-1.3c-1.5-0.9-3.1-1.5-4.9-2c-2.9-0.7-5.8-1.5-8.7-2.4c-0.7-0.2-1.3-0.2-1.5,0.6c-0.1,0.2-0.2,0.5-0.4,0.7
		c-0.1,0.2-0.3,0.3-0.6,0.2c-0.2-0.1-0.2-0.3-0.2-0.5c0-1.9,0-1.9-1.8-2.6c-0.8-0.3-1.9-0.6-1.9-1.9c0.2-0.7,1-0.9,1.4-1.7
		c0.1-0.1,0.2-0.2,0.3-0.3c0.1-0.1,0.3-0.1,0.4-0.1c2.8-0.4,5.4,0.5,8,1.1c2.1,0.4,4.1,0.9,6.2,1.5c0.2,0.1,0.4,0.1,0.6,0.2
		c0.2,0.1,0.4,0.1,0.5,0.2c0.9,0.4,2,0.6,2.9,1.1c0.2,0.1,0.4,0.2,0.6,0.3c0.1,0,0.2,0.1,0.3,0.1c0.2,0.1,0.4,0.2,0.6,0.3
		c0.1,0.1,0.2,0.1,0.3,0.2c0.1,0,0.1,0.1,0.1,0.1c0.5,0.3,1,0.6,1.5,1c0.6,0.6,1.1,1.1,1.8,1.8c0.9,0.8,1.7,1.9,2.3,2.9
		c0.5,0.7,0.8,1.7,0.4,2.5c-0.5,0.9-1.4,0.8-2.3,0.7c-0.4-0.1-0.8-0.3-1.4-0.4c0.2,2.2,0.1,4.3-0.2,6.4c-0.1,0.4-0.2,0.7-0.2,1.1
		c0,0.1-0.1,0.2-0.1,0.4c-0.2,0.8-0.5,1.5-1.5,1.7c-0.2,0.1-0.4,0.2-0.4,0.4c-0.5,1.6-1.8,2.7-2.7,4c-0.1,0.1-0.2,0.2-0.2,0.3
		c-0.1,0.1-0.2,0.2-0.3,0.2c-0.6,0.6-1.3,1.1-1.8,1.9c-0.4,0.5-0.4,0.9,0.3,1.3c0.9,0.4,1.7,1.1,2.5,1.8c0.3,0.2,0.5,0.4,0.8,0.6
		c0.2,0.2,0.4,0.4,0.6,0.6c0.1,0.1,0.2,0.2,0.3,0.3c0.2,0.2,0.4,0.4,0.6,0.6c0.2,0.2,0.3,0.4,0.5,0.6c0.1,0.1,0.2,0.2,0.3,0.4
		c0.2,0.2,0.4,0.5,0.6,0.8c0.1,0.1,0.1,0.2,0.2,0.3c0.1,0.2,0.2,0.4,0.3,0.6c0.1,0.3,0.2,0.6,0.2,0.9c-1.4,1.5-2.1,3.3-2.8,5.1
		c-0.2,0.6-0.7,1.4-1.7,1.1c-0.9-1.6-1.3-3.3-2.2-4.8c-1.1-1.9-2.7-3.4-4.1-5.1c-0.4-0.5-0.9-0.4-1.4,0c-1.3,1.3-2.6,2.3-4.1,3.3
		c-0.8,0.6-0.7,1.1-0.1,1.7c2.2,2.3,4.8,3.9,7.9,4.5c0.7,0.1,1.5,0.1,2,0.6c0.1,0.2,0.1,0.4,0,0.6c-0.8,0.6-1.7,1-2.7,1
		c-1.5,0-2.5,0.5-3.1,1.9c-0.1,0.2-0.3,0.3-0.5,0.4l-1.8-0.6c-1.4-0.2-2.4-1.3-3.5-2c-0.1-0.1-0.2-0.1-0.3-0.2
		c-0.1,0-0.1-0.1-0.1-0.1c-0.1-0.1-0.2-0.2-0.2-0.3l-0.1-0.1c-0.7-1-1.8-1.9-2.4-3c-0.5-0.8-1-0.2-1.6,0c-1.5,0.9-2.9,1.6-4.4,2.3
		c-0.2,0.1-0.5,0.2-0.7,0.3c-0.2,0.1-0.4,0.1-0.6,0.2c-0.1,0-0.2,0.1-0.3,0.1c-0.1,0.1-0.3,0.1-0.4,0.2c-0.1,0.1-0.2,0.1-0.3,0.1
		c-0.1,0.1-0.3,0.1-0.4,0.1s-0.2,0.1-0.3,0.1c-0.1,0.1-0.3,0.1-0.4,0.2c-0.1,0.1-0.3,0.1-0.4,0.1c-0.1,0.1-0.3,0.1-0.4,0.1
		c-0.1,0-0.2,0.1-0.3,0.1c-0.1,0.1-0.3,0.1-0.4,0.1c-0.1,0.1-0.2,0.1-0.3,0.1c-0.1,0.1-0.3,0.1-0.4,0.2c-0.1,0.1-0.3,0.1-0.5,0.1
		c-0.2,0.1-0.4,0.1-0.6,0.2c-0.8,0.2-1.6,0.5-2.4,0.8c-1.1,0.2-2.2,0.6-3.3,0.9c-2.6,0.6-5.3,1.4-7.9,2c-0.2,0.1-0.4,0.1-0.6,0.1
		s-0.5,0.1-0.7,0.2c-0.3,0.1-0.7,0.1-1,0.2c-0.2,0.1-0.3,0.1-0.5,0.1c-0.2,0.1-0.4,0.1-0.7,0.2c-0.6,0.2-1.4,0.3-2,0.5
		c-0.7,0.1-1.5,0.2-2.3,0.5c-0.1,0-0.2,0.1-0.4,0.1c-0.6,0.1-1.1,0.1-1.8,0.3c-0.6,0.1-1.4,0-2.1,0.2c-0.1,0-0.3,0.1-0.4,0.1
		c-1.5,0-2.8-0.1-4.1-0.8c-0.7-0.4-1.3-0.9-1.7-1.7c-1-1.9-1-1.9-3.2-1.5c-1.8,0.2-3.7-0.1-5.4,0.3c-2.8,0.2-5.6-0.3-8.4-0.3
		c-0.1,0-0.3,0-0.4-0.1c-0.5-0.1-1.1-0.5-1.6,0.1c-0.3,1-0.7,2.1-1,3c0,0.1-0.1,0.2-0.1,0.3c-0.1,0.3-0.2,0.6-0.3,0.8
		c-0.7,2.3-1.9,4.4-2.7,6.6c-0.1,0.1-0.1,0.2-0.2,0.3c-0.1,0.2-0.2,0.4-0.2,0.6c0,0.1-0.1,0.2-0.1,0.3c-0.1,0.2-0.2,0.4-0.3,0.6
		c-0.5,0.8-0.7,1.8-1.5,2.4l0,0c-0.1,0.2-0.1,0.4-0.3,0.5c-0.5,0.5-0.6,1.4-1.3,1.9c-0.1,0-0.3,0-0.3-0.1c-1.3-1.7-2.9-2.1-4.9-1.6
		c-0.2-0.1-0.3-0.2-0.3-0.5c0.4-1.7,1.7-2.9,2.4-4.3c1.5-2.7,2.9-5.3,4.4-8c0.5-1,1.3-2.1,1.9-3.1c0.5-0.8,0.3-1.1-0.7-1
		c-1.3,0.2-2.6,0.1-3.9,0.3c-1.4,0.2-2.7,0.2-4.1,0c-1.5-0.2-1.7-0.1-2.2,1.4c-1.3,4.1-2.3,8.2-2.6,12.5c-0.1,0.4-0.1,0.8-0.2,1.1
		c-0.1,0.5-0.5,0.7-0.9,0.5c-1.5-0.7-2.9-0.5-4.4,0c-0.1,0-0.2,0-0.4-0.1c-0.1-3,0.8-5.7,1.5-8.6c0.6-2.5,1.8-4.9,2.7-7.3
		c0.1-0.3,0.3-0.6,0.4-1c-1.4-0.6-2.7-1.1-4.1-1.8c-0.9-0.4-1.8-1-2.7-1.6c-0.3-0.2-0.6-0.5-0.8-0.9c-0.5-0.9-0.3-1.9,0.6-2.3
		c0.7-0.3,0.7-0.6,0.7-1.1c0.2-2.7,1.1-5.3,2.1-7.9c0.6-1.6,1.6-3,2.6-4.4c0.9-1.4,1.8-2.8,2.5-4.3c0.7-1.3,1.1-2.7,2-4
		c0.3-0.5,0.3-0.8-0.2-1.3c-0.9-0.6-1.7-1.7-2.4-2.5c-0.5-0.6-0.8-1.5-0.3-2.1s0.2-1.3,0.2-1.9c0.8,0.1,0.8,0.7,0.9,1.3
		c0.2,0.8,0.4,1.6,0.9,2.2c0.2,0.3,0.5,0.7,0.9,0.6c0.5-0.1,0.5-0.6,0.5-0.9c0.2-1.3,0-2.6-0.1-3.9c-0.4-3.9-1.3-7.6-2.1-11.4
		c-1.1-5.6-1-11.3-0.1-16.8c0.3-2.1,0.5-4.2,0.4-6.3c-0.2-2.4-1.1-3.8-2.8-4.3c-0.4-0.1-0.8-0.2-1.3-0.1c-1.7,0.2-3.3,0.4-5.1,0.7
		c-2,0.3-3,1.6-3.5,3.3C84.5,173.2,84.6,173.6,84.2,174L84.2,174z"/>
	<path class="st2" d="M102.1,262.3c2-0.9,3.4-0.5,4.8,1.1c0.2,0.2,0.3,0.4,0.5,0.6c0.5,2.6-0.6,4.8-2.2,6.8
		c-0.3,0.4-0.7,0.9-0.9,1.5c-0.4,0.9-0.9,1.7-1.8,2.3c-2.1,1.6-4.3,2.8-7,3.2c-2.4,0.3-4.6-0.1-6.6-1.4c-2-1.4-2.7-3.3-2.4-5.7
		c0.2-1.3,0.4-2.5,0.7-3.7c0.2-1,0.8-2,1.7-2.7c0.3-0.2,0.6-0.5,0.7-0.9c0.3-0.8,0.8-1.5,1.4-2.1c0.3-0.1,0.6-0.2,0.8-0.4
		c1.1-0.6,2.3-0.6,3.4-0.1c0.3,0.1,0.6,0.4,0.9,0.3c0.3-0.4,0-1,0.3-1.5c0.2,0.1,0.3,0.2,0.3,0.4c0.1,0.6,0,1.4,0.6,1.7
		c0.9,0.5,1.9,1,2.9,1.3c0.2,0,0.3-0.1,0.5-0.1C101.3,262.7,101.6,262.4,102.1,262.3L102.1,262.3z"/>
	<path class="st3" d="M84.2,174c-0.2-1.3,0.4-2.3,0.9-3.4c0.4-0.8,1.3-1.1,2.1-1.4c1.4-0.3,2.8-0.4,4.2-0.7c0.3-0.1,0.7,0,1-0.1
		c1.4-0.4,2.4,0.1,3.5,0.6c0.4,0.2,0.6,0.6,0.8,1c0.9,1.9,1,4,0.7,5.9c-0.2,1.4-0.1,2.7-0.4,4.1c-0.5,2.3-0.4,4.6-0.8,6.9
		c-0.1,0.7-0.2,1.5,0,2.2c0.3,1.1,0.3,2.3,0.4,3.4c0.2,2,0.6,3.9,1,5.8c0.6,3.2,1.3,6.5,1.7,9.7c0.2,1.3,0.2,2.5,0,3.8
		c0,0.1,0,0.3-0.1,0.4c-0.3,1-0.8,1.3-1.7,0.5c-0.8-0.7-1.5-1.7-1.6-2.9c0-0.5-0.1-1-0.5-1.5c-0.6-1.9-0.8-3.9-1.1-5.7
		c-0.6-4.6-1.8-9.1-2.6-13.6c-0.6-3.5-0.9-7.1-0.6-10.7c0.1-1.3-0.1-1.5-1.3-1.5c-0.6,0-1.1,0-1.8,0.1
		C86.6,177.1,85.1,175.9,84.2,174L84.2,174z"/>
	<path class="st2" d="M195.6,241.5c1-0.2,1.6-0.8,1.9-1.9c0.1-0.4,0.3-0.8,0.4-1.3c0.3-1.3,0.8-2.3,2-2.8c0.1-0.1,0.2-0.3,0.2-0.4
		c2.2-0.4,4.3,1.6,4.5,4l0,0c0.2,0.2,0.1,0.6,0.2,0.8c0,0.3,0,0.7,0.1,1c0.2,1,0.2,2.1,0.2,3.2c-0.1,2.4-1.3,4.3-3.4,5.4
		c-3.1,1.6-6.5,1.9-9.9,0.7c-0.8-0.3-1.7-0.8-2.5-1.3c-1.3-0.8-1.8-2-1.9-3.4c0.2-0.4,0.4-0.9,0.6-1.4c0.4-0.7,1.1-1.3,2-1.1
		c1.3,0.1,2.4-0.5,3.7-0.8c0.3-0.3,0.8-0.4,1.1-0.7C195.2,241.5,195.4,241.3,195.6,241.5L195.6,241.5z"/>
	<path class="st4" d="M97.9,152.4c0.2,0,0.5-0.1,0.6,0.1c0.1,0.3-0.2,0.3-0.3,0.4c-0.3,0.1-0.7,0.1-1,0
		C97.4,152.6,97.8,152.7,97.9,152.4z"/>
	<path class="st5" d="M204.9,240c-0.2-0.2-0.2-0.5-0.2-0.9C205,239.4,205,239.7,204.9,240z"/>
	<path class="st6" d="M108.4,262.3c0-0.2,0.1-0.4,0.3-0.5C108.7,262,108.7,262.2,108.4,262.3z"/>
	<path class="st7" d="M128.4,152.6c-6,0.1-12.1-0.7-18-1.5c-2.1-0.2-4.2-0.5-6.2-1.1c-0.2-0.1-0.4-0.1-0.6-0.1
		c-1.4,0.3-2.5-0.4-3.5-0.9c-3.3-1.9-6.4-4.2-8.6-7.4c-0.3-0.5-0.6-0.9-0.8-1.5c-1.7-3.2-2.7-6.6-3.3-10c-0.3-1.7-0.8-3.4-0.7-5.2
		c0.1-2.3-0.2-4.6,0.2-6.9c0.3-1.6,0.5-3.1,0.8-4.6s1.4-2.2,2.9-1.9c0.7,0.2,1.5,0.1,2.1,0.1c3.1-0.2,6.2-0.3,9.3-0.6
		c4.9-0.4,9.8-1.3,14.6-2.5c1-0.3,1-0.3,1.3-1.5c0.4-2.7,0.7-5.3,1.1-8c0-0.2,0.1-0.5,0.2-0.7c0.2-0.1,0.4-0.1,0.5,0
		c0.8,2.4,1.8,4.8,3.1,7c0.4,0.7,1.1,1.3,1.6,2c0.1,0.3,0.6,0.3,0.9,0.4c1.1,0.2,2.2,0.4,3.3,0.5c4.7,0.2,9.3,0.2,14,0.1
		c0.1,0,0.2,0,0.3,0c1.9-0.3,3.8-0.3,5.6,0.5c1.5,0.6,3,0.5,4.7,0.3c1.3-0.1,1.3-0.1,1.8,1c2.7,6.5,3.9,13.1,4.1,20
		c0.1,4.6,0.2,9.3,0,13.9c0,0.1,0,0.2,0.1,0.4c-0.2,0.3,0.1,0.8-0.4,1c-0.1,0-0.2,0-0.3,0c-0.2,0-0.4-0.1-0.6,0
		c-0.1,0-0.2,0.1-0.3,0.1c-0.1,0.1-0.3,0.1-0.4,0.2c-0.1,0.1-0.2,0.1-0.3,0.1c-0.6,0.2-1.1,0.4-1.7,0.6c-0.1,0.1-0.2,0.1-0.3,0.1
		c-1,0.4-2.1,0.8-3.1,1.4c-1.7,0.7-3.4,1.3-5.1,2c-3,0.9-6.2,1.9-9.3,2.4c-1.1,0.2-2.4-0.1-3.5,0.3
		C131.6,152.8,130,152.9,128.4,152.6L128.4,152.6z"/>
	<path class="st8" d="M176.1,198.2c0.1,0.8,0.5,1.3,1.4,1.5c0.4,0.1,0.9,0.3,1.4,0.5c1.4,0.5,1.6,0.9,1.1,2.3
		c-0.1,0.2-0.3,0.4-0.1,0.7c0.6-0.6,0.6-1.5,0.9-2.2c1.8,0.5,3.5,1,5.2,1.6c2.4,0.7,4.9,1.1,7.2,2c1.1,0.4,2.2,0.9,3.2,1.7
		c0.4,0.3,0.6,0.6,0.5,1.1c-0.5,2.1-0.1,4.1-0.2,6.2c0,0.3,0,0.5,0,0.8c-0.1,0.9-0.3,1.8-1.5,1.9c-0.7,0.1-1.3,0.5-1.8,0.9
		c-1.9-1.9-4.1-3.1-6.4-4.3c-2.2-1.1-4.3-2.2-6.6-3.1c-0.2-0.1-0.4-0.2-0.4-0.5c0.1-0.7-0.4-0.8-0.9-0.8c-0.2,0-0.4,0-0.6,0
		c-0.7,0-1.3,0.3-1.7,0.9c-0.3,0.7-0.2,1.5,0.3,2c0.6,0.8,1.6,1.6,2.5,2.1c2.5,1.5,5,2.8,7.6,3.9c0.9,0.4,2,0.8,2.8,1.5
		c0.4,0.3,0.8,0.2,1.3,0.4c-2.3,3.5-8.2,9.2-12.2,11.7c-0.7-1.3-1.9-2.2-2.9-3.2c-2-2-4.2-3.7-6.3-5.5c-1.7-1.5-3.4-2.8-4.8-4.7
		c-0.5-0.7-1.4-1.3-2.4-1.4c-1.5-0.1-2.5,1.1-2.2,2.6c0.4,1.5,1.1,2.8,2.1,4.1c1.8,2.1,3.9,3.8,6.2,5.3c2.5,1.6,4.9,3.1,7.4,4.6
		c-1.7,1.7-9.5,5-12.3,5.4c-0.2-0.1-0.3-0.3-0.3-0.5c-0.8-3.3-2.5-6.2-4.2-9.2c-0.1-0.2-0.2-0.4-0.3-0.6c-0.9-2.2-2.4-4.2-3.5-6.3
		c-0.4-0.7-0.9-1.3-1.5-1.9c-0.5-0.6-1.4-0.7-2.1-0.5c-0.8,0.2-1.1,0.8-1.1,1.7c-0.1,0.6,0,1.3,0.1,1.9c0.5,2.5,1.7,4.6,3.1,6.7
		c1.7,2.4,3.3,4.8,5,7.1c0.6,0.8,1.5,1.5,2.1,2.2c-0.2,0.6-0.7,0.6-1.1,0.6c-5.4,1.3-10.8,2.5-16.3,4.1c-0.1,0-0.2,0-0.2,0
		c-1.4,0.3-1.6,0.1-1.4-1.3c0.4-2.9,0.4-5.8,0-8.9c-0.1-0.4,0-0.8,0-1.3c0-2.9-0.4-5.7-0.9-8.7c-0.2-0.9-0.3-1.9-0.5-2.8
		c1.7-0.5,3.3-0.6,5-0.9c3.8-0.6,7.3-1.7,10.8-2.9c1.8-0.6,3.5-1.4,5.3-2.2c2-0.9,3.9-2.1,5.6-3.4c0.6-0.4,1.1-0.9,2.1-1.1
		c-0.1,0.8-0.3,1.7-0.2,2.5c0.1,1.3,0.9,1.7,2,1.1c0.5-0.2,0.8-0.6,1-1.1c0.6-1.6,1.3-3.1,1.3-4.9c0-2,0.2-4,0.5-6
		c0.1-0.7,0-1.6,0.1-2.3c0.1-0.7,0.3-1.5,0.9-2C175.8,197.6,176,197.8,176.1,198.2L176.1,198.2z"/>
	<path class="st2" d="M152.4,56.6c1.9,0.1,3.7,0.1,5.4-0.4c0.6-0.2,1.5-0.2,1.5-0.9c0-0.7-0.8-0.7-1.4-0.9c-2.5-1-5.1-2.1-7.7-2.8
		c-0.3-0.1-0.7-0.1-1-0.5c2.1-0.7,4.2-1.5,6.3-2.2c0.7-0.3,1.5-0.5,2.3-0.8c0.4-0.2,0.8-0.4,1.1-0.7c0.8-0.9,0.6-2.1-0.5-2.7
		c-0.6-0.3-1.3-0.4-2-0.3c-4.1,0.3-8,0.4-12,1.8c-1,0.3-2.1,0.7-3.1,1.3c-0.5,0.3-0.7,0.1-1-0.4c-0.8-2-0.9-2,1.3-3.3
		c3.8-2.3,7.6-4.2,11.6-5.9c6.3-2.8,12.6-5.5,19.1-8.1c0.4-0.2,0.8-0.3,1.3-0.3c1.5,0,2.8-0.3,4.3-0.7c0.9-0.3,0.9-0.3,1.1,0.6
		c0.4,1.4,0.5,2.8,0.6,4.3c0.2,2.2,0.4,4.5,0.5,6.7c0.2,4.6,0.4,9.2,0.3,13.8c0,1.5-0.1,2.9-0.2,4.5c0,0.6-0.2,1.1-0.4,1.7
		c-0.9,2.5-1.9,5-2.8,7.6c-0.3,0.7-0.6,1.5-1.3,2s-0.9,1.1-1.5,1.8c-0.3,0.4-0.6,0.5-1.1,0.1c-2.3-2.1-4.8-4-7.3-5.6
		c-2.6-1.8-5.2-3.5-7.9-5.3c-1.9-1.3-3.8-2.4-5.7-3.5C152,56.7,152.1,56.5,152.4,56.6L152.4,56.6z"/>
	<path class="st3" d="M146.2,149.7c1.7-0.7,3.3-1.4,5.1-1.9c1-0.4,2.2-0.7,3.2-1.4l0,0c0.7-0.2,1.5-0.3,2.2-0.8l0,0
		c0.2-0.1,0.4,0,0.5-0.3l0,0c0.3-0.1,0.6-0.1,0.8,0.1l0,0c0.3,0.3,0.5,0,0.8,0c1.3-0.4,2.6-0.6,4-0.5c1.5,0.1,1.9,0.7,1.5,2.2
		c-0.3,1-1,1.8-1.9,2.4c-0.4,0.3-0.8,0.6-1.1,1.1c-0.6,0.9-1.5,1.6-2.5,1.9c-0.6,0.2-1.3,0.5-1.7,1.1c-0.8,1.4-2.1,2-3.3,2.8
		c-2.2,1.4-4.1,3-6.3,4.4c-4,2.6-8,4.9-12.4,6.7c-2.6,1-5.1,2.1-7.9,2.5c-3.7,0.5-7.3,0.8-11-0.2c-2.3-0.6-4.4-1.8-6.3-3.3
		c-2.3-1.9-4.4-4.2-6.5-6.3c-0.7-0.6-1.3-1.5-1-2.5c0.1-0.4-0.1-0.7-0.5-1c-0.3-0.2-0.6-0.5-0.8-0.8c-1.1-1.1-1.1-2.6,0.1-3.8
		c0.9-0.9,2.1-1.3,3.4-1c2.6,0.4,5.2,1,7.8,1.7c1.5,0.3,2.8,0.6,4.4,0.3c0.9-0.2,2.1-0.1,3.1-0.1c2.4,0,4.8,0,7.3,0
		c0.4,0,0.9,0.2,1.3-0.3c1.6-0.4,3.2-0.2,4.8-0.2c0.8-0.2,1.7-0.2,2.5-0.1c2.5,0.2,4.7-0.6,7-1.3C144,150.7,145.2,150.3,146.2,149.7
		L146.2,149.7z"/>
	<path class="st2" d="M108.9,51.3c-0.4,0.3-0.7,0-1.1,0c-2.5-0.4-4.9-0.8-7.4-1.3c-0.6-0.1-1.1-0.2-1.8-0.2c-0.9,0-1.6,0.5-1.8,1.4
		c-0.2,0.7,0.2,1.6,1,2c0.3,0.2,0.6,0.2,1,0.4c0.3,0.1,0.6,0.2,0.9,0.3c-2.5,0.9-5,1.8-7.4,3c-2.4,1.3-4.6,2.7-6.9,4.3
		c-0.3-0.5-0.3-1-0.3-1.5c-0.4-5.2-0.5-10.5-0.3-15.7c0.2-3.9,0.7-7.8,1.5-11.6c0.3-1.7,0.9-3.3,1.6-5c0.1-0.2,0.2-0.4,0.3-0.6
		c1-1.9,1.8-2.3,4-2c2.5,0.4,4.6,1.5,6.6,2.9c2.3,1.7,4.5,3.3,6.6,5.3c1.8,1.7,3.3,3.7,4.7,5.6c1.1,1.7,2.2,3.3,3,5.1
		c0.6,1.3,1.4,2.4,2.1,3.5c0.6,0.8,0.4,1.7,0.2,2.6c-0.1,0.5-0.6,0.4-0.9,0.4c-0.4,0-0.5-0.2-0.5-0.6c0.1-1.5-0.7-2.4-1.8-3.1
		c-3.2-2.2-6.7-4-10.4-4.8c-2.7-0.6-5.4-0.9-8.1-0.1c-0.9,0.3-1.7,0.7-2.2,1.5c-0.6,0.8-0.5,1.7,0.2,2.4c0.6,0.6,1.4,0.8,2.2,0.9
		c5.2,0.5,10,2.4,14.8,4.4C108.7,51.1,108.8,51.2,108.9,51.3L108.9,51.3z"/>
	<path class="st8" d="M102.2,217.2c1.1,0.4,2.2,0.7,3.2,1.1c1.5,0.6,2.9,0.8,4.5,0.7c0.7,0,1.5,0,2.2,0c0.7,0,0.8,0.1,0.6,0.9
		c-0.1,0.5-0.2,1-0.4,1.6c-1.5,4-2,8.1-2.8,12.2c-0.3,1.4-0.3,2.7-0.5,4.1c-0.1,0.5,0,1.1,0,1.8c0.1,1-0.3,1.7-1.4,1.5
		c-4.5-0.4-9-1.4-13.4-2.7c-0.5-0.2-1.1-0.3-1.7-0.5c-0.5-0.1-0.6-0.4-0.4-0.9c0.7-1.9,1.6-3.8,2.6-5.4c1.7-2.7,3.4-5.2,4.8-8.1
		C100.5,221.5,101.4,219.5,102.2,217.2L102.2,217.2z"/>
	<path class="st3" d="M176.8,174.2c-0.3,0.1-0.6,0.2-0.9,0.1c-0.8-0.2-1.5,0.1-2,0.6c-1.5,1.1-1.3,2.6-0.9,4.2
		c0.9,4.4,2,8.8,2.6,13.1c0.1,0.4,0.1,0.8,0.2,1.3c0.1,0.2,0.1,0.4,0.1,0.6c0.1,0.7,0,1.5,0.1,2.1c0,0.1,0.1,0.2,0.1,0.4
		c0,0.4-0.1,0.7-0.5,1c-0.4,0.6-0.4,1.5-1,1.9c-2.4,0.9-4.5-0.5-4.7-2.5c-0.2-1.8-0.8-3.4-1-5.2c-0.3-1.9-0.5-3.8-0.9-5.6
		c-0.3-1.6-0.9-3-1.4-4.6c-0.3-1.3-0.8-2.5-1-3.8c-0.2-2.3-1.1-4.4-1.4-6.7c-0.2-1.5-0.4-2.9-0.6-4.4c-0.2-1.1,0.1-2.2,1.1-2.8
		c1.1-0.6,2.3-1,3.3-0.1c0.9,0.8,2.1,1.4,3,2.1c1.5,1,2.7,2.2,4,3.3c0.3,0.3,0.6,0.8,1.1,0.9c0.5,0,0.7,0.2,0.8,0.7
		c0.1,0.2,0.2,0.4,0.4,0.6C178,172.9,177.9,173.4,176.8,174.2L176.8,174.2z"/>
	<path class="st8" d="M138.5,242.2c-2.5-0.6-5.1-0.6-7.7-0.6c-1.1,0-2.3-0.4-3.4-0.3c-0.4,0-0.5-0.2-0.4-0.6c0.2-0.6,0.3-1.3,0.5-2
		c0.3-1.3,0.3-2.5,0.1-3.8c-0.1-0.5-0.1-1-0.1-1.6c0.4-2.3,0.4-4.6,0.6-6.9c0.2-2-0.4-4-0.1-6c0.8-0.3,1.8,0.1,2.7,0.2
		c1.4,0.2,2.7,0.2,4.2,0.2c1.5,0,1.6,0,1.5,1.5c-0.1,2.6,0.1,5.2,0.3,7.8c0.3,4,0.8,8,2,11.9C138.6,242,138.6,242,138.5,242.2
		L138.5,242.2z"/>
	<path class="st8" d="M124.6,219.1c-0.6,1.8-0.8,3.4-1.1,5.1c-0.2,1.1-0.3,2.2-0.4,3.3c-0.2,1.6-0.1,3.2-0.4,4.8
		c-0.1,0.2-0.1,0.4,0,0.6c0.1,2.5-0.2,4.9,0.1,7.4c0.1,0.5-0.2,0.6-0.5,0.5c-2.7-0.6-5.5,0.2-8.3-0.7c-0.1-0.6,0.2-1.3,0.5-1.8
		c1-2.6,1.7-5.3,1.6-8.1c-0.1-1.8,0.4-3.4,0.6-5.1c0.3-1.6,0.6-3.1,0.7-4.8c0-1,0.3-1.3,1.3-1.3
		C120.4,219.1,122.4,219.1,124.6,219.1L124.6,219.1z"/>
	<path class="st7" d="M101.1,263c-0.3,0.4-0.7,0.6-1.3,0.3c-0.5-0.3-1.1-0.6-1.8-0.8c-1.4-0.4-1.5-0.6-1.5-2.2c0-0.2,0-0.4,0-0.6
		c0.2-3,0.7-6,1.5-9c0.4-1.6,1-3.1,1.5-4.7c0.2-0.6,0.5-0.7,1-0.7c3.1,0.4,6.2,0.1,9.3-0.3c0.1,0,0.2,0,0.3,0c0.4,0,0.8-0.1,1.1,0.3
		c0.2,0.4-0.2,0.6-0.3,0.9c-1.9,2.8-3.3,5.9-5,8.9c-1.3,2.3-2.7,4.6-4.1,6.9C101.6,262.4,101.5,262.8,101.1,263L101.1,263z"/>
	<path class="st2" d="M126.9,53.4c-2.2-0.1-4.2-0.7-5.6-2.4c-0.9-1.1-0.9-2.8,0-4c0.9-0.9,1.9-1.9,2.9-2.6c2.3-1.8,4.6-1.7,6.9-0.2
		c1.7,1,2.9,2.3,3.9,4.1c0.5,0.9,0.4,1.4-0.2,2.2c-0.3,0.4-0.7,0.8-1.3,1C131.4,52.7,129.2,53.3,126.9,53.4L126.9,53.4z"/>
	<path class="st2" d="M144.1,180.7c-1.3-0.1-2.2,0-3.1-0.3c-1-0.4-1.3-1-0.6-2c0.4-0.6,0.8-1.4,1.5-1.9c0.2-0.2,0.4-0.4,0.5-0.7
		c1.4-3.2,3.8-5.8,5.7-8.8c0.8-1.3,2-1.3,3,0c1,1.4,2.2,2.6,3,4.2c0.9,1.7,2.2,3,3.8,4.2c0.4,0.3,0.8,0.7,1.1,1.1
		c0.8,1,0.4,2-0.9,2.3c-1.5,0.2-2.8,0.4-4.3,0.7C150.6,180,147.2,180.4,144.1,180.7L144.1,180.7z"/>
	<path class="st7" d="M81,169.3c-3.2-0.2-6.3-0.4-9.3-1.1c-1.6-0.3-3-0.6-4.6-1.3c-0.3-0.1-0.7-0.2-1-0.4c-0.3-0.2-0.7-0.2-0.8-0.6
		c0-0.4,0.3-0.6,0.6-0.7c1.3-0.6,2.5-1.4,3.9-2c3.2-1.5,6.5-2.7,9.8-3.9c0.3-0.1,0.6-0.1,1.1-0.3C80.2,162.5,79.8,165.8,81,169.3
		L81,169.3z"/>
	<path class="st7" d="M195.6,241.5c-0.2-0.1-0.3,0-0.4,0.2c-0.4,0.3-0.9,0.4-1.4,0.1c-4.5-0.5-7.9-2.1-11.2-6.2
		c2.1-1.6,4.3-3.2,6.3-5.1c2,2.3,4.2,4.3,5.4,7C195.1,238.8,195.8,240.1,195.6,241.5L195.6,241.5z"/>
	<path class="st7" d="M176.9,171.1c-0.2-0.3-0.4-0.6-0.8-0.7c0-0.1-0.1-0.2-0.1-0.2c0.5-2.4,0.9-4.7,1.3-7.2
		c1.4,0.4,2.3,1.1,3.3,1.7c2.3,1.3,4.6,2.4,6.6,4.1c0.5,0.4,1.3,0.9,1.1,1.6c-0.1,0.6-1,0.4-1.7,0.4c-1.5,0.1-2.8,0.4-4.3,0
		c-0.3-0.1-0.6,0-0.9,0.1C180.1,171.3,178.5,171.2,176.9,171.1L176.9,171.1z"/>
	<path class="st9" d="M175.6,197.6c0.1-0.3,0.2-0.7,0.3-1c0.3-0.4,0.7-0.3,1.1-0.2c0.2,0.1,0.3,0.2,0.4,0.4c0.1,0.9-0.8,1-1.3,1.5
		C175.8,198.2,175.6,197.9,175.6,197.6z"/>
	<path class="st10" d="M197.2,144.4c0.7,0,1.5,0,2.2,0c0,0.1,0.1,0.1,0.1,0.1c0,0.1-0.1,0.2-0.2,0.3c-0.1,0.1-0.3,0.1-0.5,0.1
		c-0.4,0-0.7,0-1.1,0.1c-0.1,0-0.2,0.1-0.3,0.1c-0.3,0.1-0.6,0.1-1,0.2c-0.2,0.1-0.4,0.1-0.5,0.1c-0.3,0-0.6,0-0.9-0.3v-0.1
		c0.5-0.3,1-0.4,1.6-0.5c0.2-0.1,0.4-0.1,0.6-0.2C197,144.5,197.1,144.4,197.2,144.4L197.2,144.4z"/>
	<path class="st11" d="M177.1,196.5c-0.4,0-0.9,0-1.4,0l0,0c-0.2-0.5-0.1-1-0.1-1.6c0.8,0.1,1.1,1,2,1.3c0,0.1,0,0.1,0,0.2
		c-0.1,0-0.1,0.1-0.2,0.1C177.4,196.6,177.3,196.6,177.1,196.5L177.1,196.5z"/>
	<path class="st12" d="M166.4,243.9c-0.3,0.5-0.9,0.4-1.4,0.8c-0.3,0.2-0.7,0.3-1,0l-0.1-0.1C164.7,244.4,165.6,244.1,166.4,243.9
		L166.4,243.9z"/>
	<path class="st13" d="M82.8,136.1c-0.5-0.4-0.5-1-0.6-1.7C82.8,134.8,82.6,135.6,82.8,136.1z"/>
	<path class="st14" d="M142.4,250.2c-0.6,0-1.3,0-2,0c0.7-0.3,1.5-0.2,2.2-0.2c0.1,0.1,0.1,0.1,0.1,0.2c0,0.1-0.1,0.1-0.1,0.1
		C142.6,250.2,142.5,250.2,142.4,250.2z"/>
	<path class="st15" d="M193.9,241.9c0.4,0,0.9-0.1,1.4-0.1c-0.3,0.5-0.8,0.6-1.4,0.6C193.9,242.2,193.9,242,193.9,241.9L193.9,241.9
		z"/>
	<path class="st16" d="M142.7,250.1c0-0.1,0-0.2,0-0.3c0.6-0.2,1.3-0.3,1.9-0.3C144,250.1,143.3,249.9,142.7,250.1L142.7,250.1z"/>
	<path class="st17" d="M116.7,246c-0.5,0.1-1.1-0.1-1.7,0.3c0-0.3,0.1-0.5,0.4-0.5C115.8,245.8,116.2,245.8,116.7,246L116.7,246z"/>
	<path class="st18" d="M158.9,145.3c-0.3,0.2-0.6,0.8-0.8,0c0.3,0.1,0.5,0.1,0.6-0.3c0-0.2,0.1-0.4,0.2-0.6
		C158.9,144.6,158.9,145,158.9,145.3L158.9,145.3z"/>
	<path class="st19" d="M101.1,263c0.2-0.4,0.3-0.8,0.6-1c0.1,0.1,0.2,0.2,0.3,0.3C101.8,262.7,101.5,262.9,101.1,263L101.1,263z"/>
	<path class="st20" d="M119.5,98.1c-0.2,0-0.4,0-0.5,0c0-0.2,0-0.6,0.2-0.6C119.5,97.5,119.6,97.8,119.5,98.1z"/>
	<path class="st21" d="M152.4,56.6c-0.1,0.1-0.2,0.2-0.2,0.2c-0.2,0-0.5,0-0.4-0.3C151.9,56.2,152.2,56.4,152.4,56.6L152.4,56.6z"/>
	<path class="st22" d="M197.2,200.9c0.4-0.3,0.4,0,0.5,0.3C197.5,201.2,197.3,201.1,197.2,200.9z"/>
	<path class="st23" d="M170.5,242.7c-0.1,0-0.2,0-0.2,0c0.2-0.2,0.4-0.3,0.7-0.3C170.9,242.6,170.7,242.6,170.5,242.7L170.5,242.7z"
		/>
	<path class="st24" d="M113.8,249.9c0,0.3,0.1,0.6-0.3,0.8C113.5,250.4,113.6,250.1,113.8,249.9z"/>
	<path class="st25" d="M139.7,244.1c0.1,0,0.2,0.1,0.2,0.1c0,0.1-0.1,0.2-0.2,0.2c-0.1,0-0.2-0.1-0.2-0.1
		C139.4,244.3,139.6,244.3,139.7,244.1z"/>
	<path class="st26" d="M110.6,257.7c0,0.3,0.1,0.6-0.3,0.7C110.3,258.2,110.4,257.9,110.6,257.7z"/>
	<path class="st26" d="M110.3,258.4c0,0.2,0,0.4-0.2,0.6C110.1,258.7,110.1,258.6,110.3,258.4z"/>
	<path class="st27" d="M196.7,200.6c0.1,0.1,0.2,0.2,0.2,0.2c-0.2,0-0.4-0.1-0.5-0.2l0,0C196.4,200.4,196.5,200.4,196.7,200.6z"/>
	<path class="st28" d="M163.7,28.6c0.1-0.2,0.3-0.2,0.6-0.2C164.1,28.6,164,28.7,163.7,28.6z"/>
	<path class="st29" d="M205,120.2c0.2,0.1,0.2,0.3,0.2,0.6C205,120.7,205,120.5,205,120.2z"/>
	<path class="st29" d="M204.7,119.7c0.2,0.1,0.2,0.3,0.2,0.5C204.8,120.1,204.7,119.9,204.7,119.7z"/>
	<path class="st30" d="M196.9,144.5c-0.1,0.2-0.3,0.2-0.6,0.2C196.4,144.5,196.7,144.5,196.9,144.5z"/>
	<path class="st31" d="M199.3,109.7l0.3,0.3l0.1,0.1l-0.1,0.1C199.4,110.1,199.3,110,199.3,109.7L199.3,109.7z"/>
	<path class="st32" d="M150.2,248.5c-0.2,0-0.4,0-0.5-0.2c0.1,0,0.3-0.1,0.5-0.1l0.1,0.1C150.3,248.3,150.3,248.4,150.2,248.5
		L150.2,248.5z"/>
	<path class="st33" d="M151.8,247.8c-0.1,0.2-0.4,0.2-0.6,0.2C151.4,247.8,151.6,247.7,151.8,247.8z"/>
	<path class="st34" d="M113.5,33.8c0.3,0.1,0.3,0.3,0.3,0.5C113.6,34.2,113.5,34,113.5,33.8z"/>
	<path class="st35" d="M192.1,94.9c0.2,0.1,0.2,0.3,0.2,0.5C192.2,95.3,192.1,95.1,192.1,94.9z"/>
	<path class="st36" d="M199.6,233.7c0.2,0.1,0.3,0.3,0.3,0.5C199.7,234.1,199.6,233.9,199.6,233.7z"/>
	<path class="st37" d="M121.1,40.6c0.1-0.2,0.2-0.3,0.4-0.3C121.6,40.4,121.3,40.6,121.1,40.6z"/>
	<path class="st23" d="M168.6,243.2c-0.1,0.2-0.3,0.2-0.5,0.2C168.2,243.2,168.4,243.1,168.6,243.2z"/>
	<path class="st23" d="M171.5,242.1c-0.1,0.2-0.3,0.3-0.5,0.2C171.1,242.1,171.3,242.1,171.5,242.1z"/>
	<path class="st23" d="M172,241.9c-0.1,0.2-0.3,0.2-0.5,0.2C171.7,241.9,171.8,241.7,172,241.9z"/>
	<path class="st38" d="M199.9,217.6c0.2,0.1,0.1,0.2-0.1,0.2C199.8,217.7,199.8,217.7,199.9,217.6z"/>
	<path class="st39" d="M182.2,242.6c-0.2,0-0.2-0.1-0.3-0.3C182,242.3,182,242.4,182.2,242.6z"/>
	<path class="st23" d="M169.8,242.7c-0.1,0.1-0.2,0.1-0.3,0.1C169.6,242.7,169.7,242.7,169.8,242.7z"/>
	<path class="st40" d="M118.7,43c0-0.2,0.1-0.2,0.3-0.3C119.1,42.9,118.9,43,118.7,43z"/>
	<path class="st39" d="M182.5,242.8c-0.2,0-0.3-0.1-0.3-0.3C182.3,242.6,182.4,242.7,182.5,242.8z"/>
	<path class="st23" d="M169.1,243c-0.1,0-0.2,0.1-0.3,0.1C168.9,243,168.9,242.9,169.1,243z"/>
	<path class="st23" d="M167.8,243.5c-0.1,0.1-0.2,0.1-0.3,0.1C167.4,243.5,167.6,243.5,167.8,243.5z"/>
	<path class="st40" d="M119.1,42.8c0-0.2,0.1-0.3,0.3-0.3C119.3,42.5,119.2,42.6,119.1,42.8z"/>
	<path class="st41" d="M195.2,103.9c0.2,0.1,0.2,0.2,0.3,0.4C195.3,104.2,195.3,104,195.2,103.9z"/>
	<path class="st41" d="M195.6,104.4c0.1,0.1,0.1,0.2,0.2,0.3C195.7,104.6,195.6,104.5,195.6,104.4z"/>
	<path class="st41" d="M196.3,105.4c0.1,0.1,0.2,0.2,0.2,0.3C196.4,105.7,196.3,105.6,196.3,105.4z"/>
	<path class="st31" d="M199.9,110.3c0,0.1,0,0.2,0,0.3c-0.1-0.1-0.2-0.2-0.2-0.3l0,0C199.7,110.2,199.8,110.2,199.9,110.3
		L199.9,110.3L199.9,110.3z"/>
	<path class="st35" d="M177.1,196.5c0.1,0,0.2,0,0.3,0c0,0.1,0,0.1-0.1,0.2C177.4,196.7,177.3,196.6,177.1,196.5L177.1,196.5z"/>
	<path class="st30" d="M205.7,139.1c0,0.1,0,0.2,0,0.3c-0.1,0.1-0.1,0.1-0.2,0l-0.1-0.1C205.5,139.2,205.6,139.1,205.7,139.1
		L205.7,139.1z"/>
	<path class="st42" d="M195,224c0,0.1-0.1,0.2-0.3,0.3C194.8,224.1,194.8,224,195,224z"/>
	<path class="st35" d="M192.7,199.2c0.1,0.1,0.2,0.1,0.3,0.2C193,199.4,192.8,199.3,192.7,199.2z"/>
	<path class="st1" d="M107,121.5c0,0.9-0.1,2-0.5,2.9c-0.3,0.9-0.8,1.8-1.8,2.3c-0.7,0.4-1.4,0.9-2.1,1.5c-1.3,0.8-2.4,0.8-3.4-0.1
		c-1.4-1-2.4-2.4-3.3-3.9c-0.5-0.8-0.7-1.9-0.5-2.8c0.1-0.9-0.2-1.7-1-2.1c-0.2-0.1-0.4-0.2-0.5-0.4c-1.9-1.7-1.7-3.3-0.9-5.4
		c0.1-0.3,0.3-0.5,0.7-0.5c0.3,0,0.4,0.3,0.5,0.7c0.3,1.5,1.5,2.1,2.6,2.7c0.3,0.2,0.6,0.1,0.8-0.1c1.7-1.6,3.8-2,5.8-2.4
		c0.4-0.1,0.8-0.1,0.6,0.6c-0.1,0.3,0,0.4,0.2,0.5c1.7,0.8,2.1,2.3,2.5,4C106.9,119.6,107,120.6,107,121.5L107,121.5z"/>
	<path class="st1" d="M123.1,145.3c-3.1-0.1-6-0.5-8.8-2.1c-1.5-0.8-2.6-1.9-3.3-3.3c-0.3-0.7-0.5-1.5-0.4-2.2
		c0.1-0.5,0.3-1,0.9-1.1c0.5-0.1,0.9,0.1,1.3,0.5c3.7,4,8.4,4.9,13.6,4.6c1.9-0.1,3.7-0.4,5.4-0.9c0.9-0.3,1.9-0.7,2.7-1.1
		c0.4-0.2,0.8-0.6,1.1-0.3c0.3,0.4-0.2,0.8-0.4,1.1c-1.4,1.7-3,3-5.1,3.9C127.9,145,125.5,145.2,123.1,145.3L123.1,145.3z"/>
	<path class="st43" d="M146.2,149.7c-0.8,1.4-2.3,1.4-3.5,1.8c-1.4,0.4-2.7,0.8-4.1,1.1c-0.4,0.1-0.8,0.3-1.3-0.1
		c-0.3-0.3-0.7-0.2-1.1-0.2c-0.9,0-2,0-2.9,0c0.4-0.2,0.9-0.2,1.5-0.2c3.5-0.1,7-1.1,10.3-2.2C145.4,149.8,145.8,149.6,146.2,149.7
		L146.2,149.7z"/>
	<path class="st18" d="M154.5,146.3c-0.9,0.8-2,1.1-3.2,1.4C152.3,147,153.4,146.6,154.5,146.3z"/>
	<path class="st18" d="M156.7,145.5c-0.5,0.6-1.4,0.8-2.2,0.8C155.1,145.9,156,145.7,156.7,145.5z"/>
	<path class="st18" d="M158.1,145.3c-0.3,0-0.6,0-0.8-0.1C157.5,145,157.9,144.8,158.1,145.3z"/>
	<path class="st18" d="M157.2,145.3c-0.1,0.3-0.3,0.3-0.5,0.3C156.8,145.3,157,145.3,157.2,145.3z"/>
	<path class="st44" d="M122.2,158.3c4.1,0.4,7.8-1.3,11.9-1.5c-0.7,1.9-2,3.1-3.4,4.3c-0.2,0.2-0.6,0.3-1,0.3
		c-1.9,0.1-3.7,0-5.2-1.3c-0.7-0.5-1.6-1-2.3-1.6C122.1,158.5,122.2,158.4,122.2,158.3L122.2,158.3z"/>
	<path class="st35" d="M175.6,194.1c0.3,0.2,0.2,0.5,0.2,0.8c0,0.5,0,1,0,1.6C175.5,195.8,175.6,194.9,175.6,194.1L175.6,194.1z"/>
	<path class="st35" d="M175.4,192.5c0.4,0.3,0.2,0.7,0.2,1.1C175.3,193.3,175.3,192.8,175.4,192.5z"/>
	<path class="st38" d="M202,210.3h0.8C202.5,210.7,202.3,210.6,202,210.3L202,210.3L202,210.3z"/>
	<path class="st45" d="M154.7,176.4c0.2,0.2,0.5,0.3,0.7,0.7c-1.9,0.1-3.7,0.6-5.4,0.6c-0.3,0.1-0.6,0.2-0.9-0.1
		c0-0.4,0.4-0.4,0.7-0.5c0.2,0,0.3-0.1,0.5,0c-0.1-0.1-0.3,0-0.5,0c-0.4,0.1-0.8,0.2-1.3,0c-0.9-0.4-1.6-0.1-2.1,0.7
		c-0.2,0.2-0.4,0.3-0.5,0.5c-1,0.3-2.2,0.3-3.5,0.3c0.5-0.6,0.9-1,1.3-1.5c1.1-1.3,2.2-2.4,3.3-3.7c0.7-0.8,1.5-1.6,1.7-2.7
		c0.1-0.4,0.4-0.7,0.9-0.9c1.8,1.8,2.7,4.1,4.4,5.8c0.1,0.3-0.1,0.5-0.2,0.6c0.1,0.1,0.2-0.1,0.3-0.1
		C154.3,176,154.6,176.1,154.7,176.4L154.7,176.4z"/>
	<path class="st46" d="M149.2,177.4c0.2,0.3,0.5,0.2,0.8,0.3c-0.6,0.3-1.3,0.2-1.9,0.3c-0.3,0.1-0.6,0.2-0.6-0.3
		C148,177.2,148.6,177,149.2,177.4L149.2,177.4z"/>
	<path class="st47" d="M147.5,177.7c0.1,0.2,0.4,0.2,0.6,0.2c-0.7,0.4-1.5,0.2-2.2,0.2c0-0.2,0-0.4,0.2-0.5
		C146.6,177.7,147.1,177.2,147.5,177.7L147.5,177.7z"/>
	<path class="st48" d="M154.7,176.4c-0.2,0-0.4,0-0.7,0c-0.3,0.1-0.6,0.2-0.5-0.3c0.2-0.2,0.3-0.3,0.5-0.5
		C154.4,175.7,154.6,175.9,154.7,176.4L154.7,176.4z"/>
	<path class="st22" d="M196.7,200.6h-0.1h-0.1c0.1-0.1,0.1-0.1,0.2-0.2L196.7,200.6L196.7,200.6z"/>
	<path class="st29" d="M199.9,110.2c-0.1,0-0.1,0-0.2,0c0-0.1,0-0.1,0-0.2C199.7,110.1,199.8,110.2,199.9,110.2L199.9,110.2z"/>
	<path class="st22" d="M197.9,201.4l0.1-0.1C198.1,201.3,198.1,201.3,197.9,201.4L197.9,201.4L197.9,201.4z"/>
	<path class="st49" d="M196.9,145.3c-0.2,0-0.4,0-0.5,0c0.3-0.4,0.7-0.2,1-0.3C197.3,145.3,197.1,145.3,196.9,145.3z"/>
	<path class="st50" d="M147.5,177.7c-0.4-0.1-0.9,0.5-1.5-0.1c0.6-1.1,1.4-1.6,2.6-0.9c0.3,0.2,0.8,0.1,1.1,0.1
		c0.1,0,0.1,0.1,0.1,0.1l-0.1,0.1c-0.3,0.1-0.5,0.2-0.8,0.3C148.6,177.3,148.2,177.6,147.5,177.7L147.5,177.7z"/>
	<path class="st51" d="M150.2,172.9c-0.4,0.1-0.7,0.2-1,0.1c-0.2-0.1-0.2-0.1-0.2-0.2c0.1-0.2,0.2-0.5,0.3-0.5
		C149.9,172.2,149.9,172.7,150.2,172.9L150.2,172.9z"/>
	<path class="st52" d="M152.6,174.8c-0.2,0.1-0.4,0.2-0.5,0.3c-0.2,0.1-0.4,0.1-0.4-0.1c-0.1-0.1-0.1-0.3,0-0.4
		c0.1-0.2,0.3-0.2,0.5-0.1C152.2,174.6,152.4,174.7,152.6,174.8L152.6,174.8z"/>
	<path class="st53" d="M153.5,176c0.1,0.2,0.3,0.2,0.5,0.3c-0.3,0.2-0.7,0.3-1.1,0.2C153,176.3,153.3,176.1,153.5,176L153.5,176z"/>
	<path class="st54" d="M148.8,175c-0.3,0.4-0.6,0.4-0.9,0C148.2,174.8,148.5,174.8,148.8,175z"/>
	<path class="st55" d="M148.8,175c-0.3,0-0.6,0-0.9,0C148.2,174.6,148.5,174.5,148.8,175z"/>
	<path class="st56" d="M150,177.1c0-0.1,0-0.1,0-0.2c0.1,0,0.3-0.1,0.3,0.1C150.3,177.1,150.1,177.1,150,177.1L150,177.1z"/>
	<path class="st1" d="M153.6,112.1c-0.1,0-0.1,0-0.2,0c-0.2,0.1-0.4,0.2-0.7,0.3c-1.6,0.7-4,1.1-4.6,0.9c-0.6-0.2-0.7-0.9-3.5-1.4
		c-1.5-0.2-2.6,0.4-3.5,1.1c-1.4,1.6-1.7,3.2-1.7,4.8c0,3,0.8,5.4,2.6,7.8c1.9,2.5,6,2.6,7.9,0c1.9-2.6,1.8-5.2,0.9-8
		c-0.1-0.5-0.5-0.9-0.7-1.4c-0.4-0.7-0.4-0.8,0.4-1.1c0.9-0.3,1.7-0.9,2.6-1.3c0.7-0.2,0.9-0.8,1.1-1.5
		C154.3,112.3,154.1,112,153.6,112.1L153.6,112.1z"/>
	<path class="st1" d="M149.6,118.8c0.3-2.3,1.5-2.6,2.4-3.7c0.9-1,1.5-0.8,1.8-1.7s-4.9,1.3-4.9,1.3l-0.4,2.7L149.6,118.8
		L149.6,118.8z"/>
	<path class="st1" d="M139.3,114.3c0.5-0.3,1.1-0.7,1.7-1.1c1.1-0.7,2.3-1.4,3.7-1c1.9,0.4,1.5,6.2,1.5,6.2s-6-3.3-6.4-3.5
		C139.4,114.5,139.3,114.3,139.3,114.3L139.3,114.3z"/>
</g>
<circle class="st57" cx="215.8" cy="219.2" r="58.9"/>
<g>
	<g>
		<g>
			<path id="App_Icon_Placeholder_00000173857332390720086920000010227276303923885442_" class="st0" d="M228.8,187.5h8.9
				c3,0,4.4,0,6.1,0.5c1.7,0.6,3.1,2.1,3.7,3.7c0.5,1.5,0.5,3.1,0.5,6.1v8.9c0,3,0,4.4-0.5,6.1c-0.6,1.7-2.1,3.1-3.7,3.7
				c-1.5,0.5-3.1,0.5-6.1,0.5h-8.9c-3,0-4.4,0-6.1-0.5c-1.7-0.6-3.1-2.1-3.7-3.7c-0.5-1.5-0.5-3.1-0.5-6.1v-8.9c0-3,0-4.4,0.5-6.1
				c0.6-1.7,2.1-3.1,3.7-3.7C224.4,187.5,225.8,187.5,228.8,187.5L228.8,187.5"/>
		</g>
	</g>
	<g>
		<g>
			<path id="App_Icon_Placeholder_00000064316355534092942450000012664348120035664814_" class="st0" d="M228.8,221.2h8.9
				c3,0,4.4,0,6.1,0.5c1.7,0.6,3.1,2.1,3.7,3.7c0.5,1.5,0.5,3.1,0.5,6.1v8.9c0,3,0,4.4-0.5,6.1c-0.6,1.7-2.1,3.1-3.7,3.7
				c-1.5,0.5-3.1,0.5-6.1,0.5h-8.9c-3,0-4.4,0-6.1-0.5c-1.7-0.6-3.1-2.1-3.7-3.7c-0.5-1.5-0.5-3.1-0.5-6.1v-8.9c0-3,0-4.4,0.5-6.1
				c0.6-1.7,2.1-3.1,3.7-3.7C224.4,221.2,225.8,221.2,228.8,221.2L228.8,221.2"/>
		</g>
	</g>
	<g>
		<g>
			<path id="App_Icon_Placeholder_00000111911707855223090590000006725145450775256709_" class="st0" d="M193.7,187.5h8.9
				c3,0,4.4,0,6.1,0.5c1.7,0.6,3.1,2.1,3.7,3.7c0.5,1.5,0.5,3.1,0.5,6.1v42.7c0,3,0,4.4-0.5,6.1c-0.6,1.7-2.1,3.1-3.7,3.7
				c-1.5,0.5-3.1,0.5-6.1,0.5h-8.9c-3,0-4.4,0-6.1-0.5c-1.7-0.6-3.1-2.1-3.7-3.7c-0.5-1.5-0.5-3.1-0.5-6.1v-42.7c0-3,0-4.4,0.5-6.1
				c0.6-1.7,2.1-3.1,3.7-3.7C189.3,187.5,190.7,187.5,193.7,187.5L193.7,187.5"/>
		</g>
	</g>
</g>
</svg>
